<svg width="148" height="25" viewBox="0 0 148 25" fill="none" xmlns="http://www.w3.org/2000/svg">
<path d="M12.78 0L16.73 8L25.56 9.28L19.17 15.51L20.68 24.31L12.78 20.15L4.88 24.31L6.39 15.51L0 9.28L8.83 8L12.78 0Z" fill="#0E2720"/>
<path d="M43.3396 0L47.2896 8L56.1196 9.28L49.7296 15.51L51.2396 24.31L43.3396 20.15L35.4396 24.31L36.9496 15.51L30.5596 9.28L39.3896 8L43.3396 0Z" fill="#0E2720"/>
<path d="M73.8901 0L77.8401 8L86.6701 9.28L80.2801 15.51L81.7901 24.31L73.8901 20.15L66.0001 24.31L67.5101 15.51L61.1201 9.28L69.9501 8L73.8901 0Z" fill="#0E2720"/>
<path d="M104.45 0L108.4 8L117.23 9.28L110.84 15.51L112.35 24.31L104.45 20.15L96.5499 24.31L98.0599 15.51L91.6699 9.28L100.5 8L104.45 0Z" fill="#0E2720"/>
<path d="M135.01 0L138.96 8L147.79 9.28L141.4 15.51L142.91 24.31L135.01 20.15L127.11 24.31L128.62 15.51L122.23 9.28L131.06 8L135.01 0Z" fill="#0E2720"/>
</svg>
