<svg width="204" height="392" viewBox="0 0 204 392" fill="none" xmlns="http://www.w3.org/2000/svg">
<path d="M108.258 2.46997H94.4502V392H108.258V2.46997Z" fill="#F9EDD9"/>
<path d="M98.6767 0.010923H104.046C107.363 0.010923 110.063 1.92349 110.063 4.27322V6.27322C110.063 6.50273 109.8 6.69945 109.461 6.69945H93.2306C92.9066 6.69945 92.6289 6.51366 92.6289 6.27322V4.28415C92.6289 1.92349 95.3443 0 98.6767 0V0.010923Z" fill="#DADADA"/>
<path d="M15.6049 129.414H101.183V94.7394H15.6049V129.414Z" fill="#348BCB"/>
<path d="M15.8264 94.7104V107.992V129.385L0 112.048L15.8264 94.7104Z" fill="#F9EDD9"/>
<path d="M15.8264 107.239L4.33641 107.297L0 112.048L4.36591 116.827L15.8264 117.03V107.239Z" fill="#BE8BBD"/>
<path d="M15.8267 117.03V129.385L4.36621 116.827L15.8267 117.03Z" fill="#F9EDD9"/>
<path d="M15.8259 107.239L4.33594 107.297L15.8259 94.7104V107.239Z" fill="#F9EDD9"/>
<path d="M188.233 41.26H102.655V75.9345H188.233V41.26Z" fill="#348BCB"/>
<path d="M188.012 75.9778V62.696V41.3032L203.838 58.6405L188.012 75.9778Z" fill="#F9EDD9"/>
<path d="M188.012 63.4494L199.502 63.3914L203.838 58.6407L199.472 53.861L188.012 53.6582V63.4494Z" fill="#BE8BBD"/>
<path d="M188.012 53.658V41.3032L199.472 53.8607L188.012 53.658Z" fill="#F9EDD9"/>
<path d="M188.012 63.4494L199.502 63.3914L188.012 75.978V63.4494Z" fill="#F9EDD9"/>
<path d="M48.0446 109.871C47.6954 109.669 47.2888 109.569 46.8249 109.569C46.3611 109.569 45.9532 109.669 45.604 109.871C45.2561 110.073 44.9863 110.368 44.7961 110.757C44.6059 111.147 44.5107 111.616 44.5107 112.166C44.5107 112.716 44.6059 113.186 44.7961 113.575C44.9863 113.964 45.2548 114.259 45.604 114.461C45.9532 114.663 46.3598 114.763 46.8249 114.763C47.2901 114.763 47.6967 114.663 48.0446 114.461C48.3925 114.259 48.6622 113.964 48.8525 113.575C49.0427 113.186 49.1365 112.716 49.1365 112.166C49.1365 111.616 49.0414 111.146 48.8525 110.757C48.6622 110.369 48.3938 110.073 48.0446 109.871ZM47.7345 113.603C47.6302 113.968 47.4986 114.229 47.3396 114.386C47.1807 114.543 47.0087 114.621 46.8236 114.621C46.6386 114.621 46.4666 114.543 46.3076 114.386C46.1487 114.23 46.0171 113.969 45.9128 113.603C45.8086 113.238 45.7564 112.759 45.7564 112.166C45.7564 111.573 45.8086 111.094 45.9128 110.729C46.0171 110.364 46.1487 110.102 46.3076 109.946C46.4666 109.789 46.6386 109.711 46.8236 109.711C47.0087 109.711 47.1807 109.789 47.3396 109.946C47.4986 110.102 47.6302 110.363 47.7345 110.729C47.8387 111.094 47.8908 111.573 47.8908 112.166C47.8908 112.759 47.8387 113.238 47.7345 113.603Z" fill="#F9EDD9"/>
<path d="M52.876 113.02C52.7575 112.75 52.532 112.562 52.1998 112.458C52.0668 112.415 51.9131 112.389 51.7372 112.38V112.345C52.0317 112.339 52.3092 112.287 52.5698 112.188C52.8161 112.098 53.0181 111.961 53.1744 111.779C53.3308 111.597 53.409 111.358 53.409 111.064C53.409 110.627 53.2318 110.287 52.876 110.042C52.5203 109.798 51.9391 109.676 51.1326 109.676H49.2471V109.783L49.6745 109.89V114.444L49.2471 114.551V114.657H51.3463V114.551L50.8485 114.444V112.451H51.3111L52.0225 114.053C52.2024 114.455 52.4877 114.657 52.876 114.657H53.8716V114.551L53.5158 114.444L52.876 113.021V113.02ZM51.1326 112.272H50.8485V109.853H51.1326C51.4648 109.853 51.7255 109.957 51.9157 110.166C52.1059 110.374 52.1998 110.674 52.1998 111.062C52.1998 111.451 52.1046 111.75 51.9157 111.959C51.7255 112.167 51.4648 112.272 51.1326 112.272Z" fill="#F9EDD9"/>
<path d="M56.7973 113.44C56.6423 113.68 56.5654 113.939 56.5654 114.22H55.5803V109.848L56.0155 109.748V109.647H53.9463V109.748L54.3828 109.848V114.186L53.9463 114.286V114.674H57.2547V113.186H57.0371C56.9446 113.253 56.8651 113.337 56.7973 113.439V113.44Z" fill="#F9EDD9"/>
<path d="M59.2536 109.675H57.4385V109.781L57.8659 109.888V114.442L57.4385 114.549V114.656H59.2536C60.1019 114.656 60.7534 114.438 61.2069 114.002C61.6603 113.565 61.8857 112.953 61.8857 112.166C61.8857 111.379 61.659 110.767 61.2069 110.33C60.7534 109.893 60.1032 109.676 59.2536 109.676V109.675ZM60.2778 113.941C60.0354 114.299 59.694 114.478 59.2536 114.478H59.0399V109.853H59.2536C59.6953 109.853 60.0367 110.032 60.2778 110.39C60.5189 110.748 60.64 111.34 60.64 112.165C60.64 112.989 60.5189 113.582 60.2778 113.939V113.941Z" fill="#F9EDD9"/>
<path d="M70.3004 109.899C69.9512 109.697 69.5447 109.596 69.0808 109.596C68.6169 109.596 68.2091 109.697 67.8598 109.899C67.5119 110.101 67.2422 110.395 67.052 110.785C66.8617 111.174 66.7666 111.643 66.7666 112.193C66.7666 112.743 66.8617 113.214 67.052 113.602C67.2422 113.992 67.5106 114.286 67.8598 114.488C68.2078 114.69 68.6156 114.79 69.0808 114.79C69.546 114.79 69.9525 114.69 70.3004 114.488C70.6484 114.286 70.9181 113.992 71.1083 113.602C71.2986 113.214 71.3924 112.743 71.3924 112.193C71.3924 111.643 71.2973 111.173 71.1083 110.785C70.9181 110.396 70.6497 110.101 70.3004 109.899ZM69.9916 113.631C69.8874 113.995 69.7558 114.256 69.5968 114.414C69.4378 114.57 69.2658 114.648 69.0808 114.648C68.8958 114.648 68.7238 114.57 68.5648 114.414C68.4058 114.257 68.2742 113.997 68.17 113.631C68.0657 113.266 68.0136 112.786 68.0136 112.193C68.0136 111.6 68.0657 111.121 68.17 110.756C68.2742 110.391 68.4058 110.129 68.5648 109.973C68.7238 109.817 68.8958 109.738 69.0808 109.738C69.2658 109.738 69.4378 109.817 69.5968 109.973C69.7558 110.129 69.8874 110.39 69.9916 110.756C70.0959 111.121 70.148 111.6 70.148 112.193C70.148 112.786 70.0959 113.266 69.9916 113.631Z" fill="#F9EDD9"/>
<path d="M79.9385 113.15C79.8199 112.88 79.5945 112.692 79.2622 112.588C79.1293 112.545 78.9755 112.519 78.7996 112.51V112.475C79.0941 112.47 79.3716 112.418 79.6322 112.318C79.8785 112.229 80.0805 112.092 80.2369 111.909C80.3932 111.727 80.4714 111.488 80.4714 111.194C80.4714 110.757 80.2942 110.417 79.9385 110.172C79.5827 109.929 79.0016 109.806 78.195 109.806H76.3095V109.913L76.7369 110.02V114.291L76.3095 114.398V114.73H77.9396V114.398L77.9109 114.291V112.582H78.3735L79.3052 114.73L79.3521 114.941L73.9445 114.969L73.5536 116.011L74.2025 116.031V115.295H74.7836V116.031H75.4808V116.612H74.7836V117.271H74.2025V116.612H73.3803L72.8564 118.01L80.9991 118.039L79.9385 113.149V113.15ZM78.2693 112.402H77.9852V109.983H78.2693C78.6015 109.983 78.8621 110.088 79.0524 110.296C79.2426 110.505 79.3365 110.804 79.3365 111.193C79.3365 111.581 79.2413 111.881 79.0524 112.089C78.8621 112.298 78.6015 112.402 78.2693 112.402Z" fill="#F9EDD9"/>
<path d="M75.2936 109.916C74.9444 109.714 74.5378 109.613 74.074 109.613C73.6101 109.613 73.2022 109.714 72.853 109.916C72.5051 110.118 72.2354 110.412 72.0451 110.802C71.8549 111.191 71.7598 111.66 71.7598 112.21C71.7598 112.76 71.8549 113.231 72.0451 113.619C72.2354 114.008 72.5038 114.303 72.853 114.505C73.2009 114.707 73.6088 114.807 74.074 114.807C74.5391 114.807 74.9457 114.707 75.2936 114.505C75.6415 114.303 75.9112 114.008 76.1015 113.619C76.2917 113.231 76.3856 112.76 76.3856 112.21C76.3856 111.66 76.2904 111.19 76.1015 110.802C75.9112 110.413 75.6428 110.118 75.2936 109.916ZM74.9835 113.648C74.8792 114.012 74.7476 114.273 74.5887 114.431C74.4297 114.587 74.2577 114.665 74.0727 114.665C73.8876 114.665 73.7156 114.587 73.5567 114.431C73.3977 114.274 73.2661 114.014 73.1618 113.648C73.0576 113.283 73.0055 112.803 73.0055 112.21C73.0055 111.617 73.0576 111.138 73.1618 110.773C73.2661 110.408 73.3977 110.146 73.5567 109.99C73.7156 109.834 73.8876 109.755 74.0727 109.755C74.2577 109.755 74.4297 109.834 74.5887 109.99C74.7476 110.146 74.8792 110.407 74.9835 110.773C75.0877 111.138 75.1398 111.617 75.1398 112.21C75.1398 112.803 75.0877 113.283 74.9835 113.648Z" fill="#F9EDD9"/>
<path d="M63.6823 109.737H61.8672V109.844L62.2946 109.951V114.505L61.8672 114.612V114.719H63.6823C64.5306 114.719 65.1821 114.501 65.6356 114.065C66.089 113.628 66.3145 113.016 66.3145 112.229C66.3145 111.441 66.0877 110.829 65.6356 110.393C65.1821 109.956 64.5319 109.738 63.6823 109.738V109.737ZM64.7065 114.003C64.4641 114.362 64.1227 114.54 63.6823 114.54H63.4686V109.916H63.6823C64.124 109.916 64.4654 110.094 64.7065 110.452C64.9476 110.811 65.0688 111.402 65.0688 112.227C65.0688 113.052 64.9476 113.645 64.7065 114.002V114.003Z" fill="#F9EDD9"/>
<path d="M39.1827 106.262C41.896 106.262 44.1032 108.469 44.1032 111.183C44.1032 113.896 41.896 116.103 39.1827 116.103C36.4694 116.103 34.2623 113.896 34.2623 111.183C34.2623 108.469 36.4694 106.262 39.1827 106.262ZM39.1827 106C36.3199 106 34 108.321 34 111.183C34 114.044 36.3212 116.365 39.1827 116.365C42.0442 116.365 44.3654 114.044 44.3654 111.183C44.3654 108.321 42.0442 106 39.1827 106Z" fill="#F9EDD9"/>
<path d="M35.5514 109.31L34.9873 109.136V108.962H36.2847C36.6834 108.962 36.9993 109.047 37.2324 109.217C37.4656 109.387 37.6574 109.631 37.8078 109.949L39.0489 112.62L39.6919 110.924L38.936 109.31L38.3719 109.136V108.962H39.6694C40.068 108.962 40.3839 109.047 40.6171 109.217C40.8502 109.387 41.042 109.631 41.1925 109.949L42.4335 112.62L43.6181 109.484L42.772 109.136V108.962H44.8592V109.136L43.9566 109.484L41.8694 114.885H41.5309L39.8612 111.308L38.4848 114.885H38.1463L35.5514 109.31Z" fill="#F9EDD9"/>
<path d="M126.183 51.2623C128.896 51.2623 131.103 53.4694 131.103 56.1827C131.103 58.896 128.896 61.1032 126.183 61.1032C123.469 61.1032 121.262 58.896 121.262 56.1827C121.262 53.4694 123.469 51.2623 126.183 51.2623ZM126.183 51C123.32 51 121 53.3212 121 56.1827C121 59.0442 123.321 61.3654 126.183 61.3654C129.044 61.3654 131.365 59.0442 131.365 56.1827C131.365 53.3212 129.044 51 126.183 51Z" fill="#F9EDD9"/>
<path d="M135.045 54.8713C134.695 54.6694 134.289 54.569 133.825 54.569C133.361 54.569 132.953 54.6694 132.604 54.8713C132.256 55.0733 131.986 55.3678 131.796 55.7574C131.606 56.147 131.511 56.6161 131.511 57.166C131.511 57.7159 131.606 58.1863 131.796 58.5746C131.986 58.9642 132.255 59.2587 132.604 59.4606C132.953 59.6626 133.36 59.7629 133.825 59.7629C134.29 59.7629 134.697 59.6626 135.045 59.4606C135.392 59.2587 135.662 58.9642 135.852 58.5746C136.043 58.1863 136.137 57.7159 136.137 57.166C136.137 56.6161 136.041 56.1457 135.852 55.7574C135.662 55.3691 135.394 55.0733 135.045 54.8713ZM134.734 58.6032C134.63 58.9681 134.499 59.2287 134.34 59.3864C134.181 59.5427 134.009 59.6209 133.824 59.6209C133.639 59.6209 133.467 59.5427 133.308 59.3864C133.149 59.23 133.017 58.9694 132.913 58.6032C132.809 58.2384 132.756 57.7589 132.756 57.166C132.756 56.5731 132.809 56.0936 132.913 55.7287C133.017 55.3639 133.149 55.102 133.308 54.9456C133.467 54.7892 133.639 54.7111 133.824 54.7111C134.009 54.7111 134.181 54.7892 134.34 54.9456C134.499 55.102 134.63 55.3626 134.734 55.7287C134.839 56.0936 134.891 56.5731 134.891 57.166C134.891 57.7589 134.839 58.2384 134.734 58.6032Z" fill="#F9EDD9"/>
<path d="M139.876 58.0195C139.757 57.7498 139.532 57.5621 139.2 57.4579C139.067 57.4149 138.913 57.3888 138.737 57.3797V57.3445C139.032 57.3393 139.309 57.2872 139.57 57.1882C139.816 57.0983 140.018 56.9614 140.174 56.779C140.331 56.5966 140.409 56.3581 140.409 56.0636C140.409 55.6271 140.232 55.287 139.876 55.0421C139.52 54.7984 138.939 54.6759 138.133 54.6759H136.247V54.7828L136.674 54.8896V59.4437L136.247 59.5506V59.6574H138.346V59.5506L137.849 59.4437V57.4514H138.311L139.023 59.0528C139.202 59.4554 139.488 59.6574 139.876 59.6574H140.872V59.5506L140.516 59.4437L139.876 58.0208V58.0195ZM138.133 57.2716H137.849V54.8531H138.133C138.465 54.8531 138.725 54.9574 138.916 55.1658C139.106 55.3743 139.2 55.674 139.2 56.0623C139.2 56.4506 139.105 56.7503 138.916 56.9588C138.725 57.1673 138.465 57.2716 138.133 57.2716Z" fill="#F9EDD9"/>
<path d="M143.797 58.4404C143.642 58.6801 143.565 58.9394 143.565 59.2196H142.58V54.8479L143.016 54.7475V54.6472H140.946V54.7475L141.383 54.8479V59.1857L140.946 59.286V59.6743H144.255V58.1863H144.037C143.945 58.2527 143.865 58.3374 143.797 58.4391V58.4404Z" fill="#F9EDD9"/>
<path d="M146.254 54.6746H144.438V54.7814L144.866 54.8883V59.4424L144.438 59.5492V59.6561H146.254C147.102 59.6561 147.753 59.4385 148.207 59.002C148.66 58.5654 148.886 57.953 148.886 57.166C148.886 56.3789 148.659 55.7665 148.207 55.33C147.753 54.8935 147.103 54.6759 146.254 54.6759V54.6746ZM147.278 58.9407C147.035 59.299 146.694 59.4776 146.254 59.4776H146.04V54.8531H146.254C146.695 54.8531 147.037 55.0316 147.278 55.3899C147.519 55.7483 147.64 56.3398 147.64 57.1647C147.64 57.9895 147.519 58.5824 147.278 58.9394V58.9407Z" fill="#F9EDD9"/>
<path d="M157.3 54.8987C156.951 54.6967 156.545 54.5964 156.081 54.5964C155.617 54.5964 155.209 54.6967 154.86 54.8987C154.512 55.1006 154.242 55.3951 154.052 55.7847C153.862 56.1744 153.767 56.6434 153.767 57.1933C153.767 57.7432 153.862 58.2136 154.052 58.6019C154.242 58.9915 154.511 59.286 154.86 59.488C155.208 59.69 155.616 59.7903 156.081 59.7903C156.546 59.7903 156.953 59.69 157.3 59.488C157.648 59.286 157.918 58.9915 158.108 58.6019C158.299 58.2136 158.392 57.7432 158.392 57.1933C158.392 56.6434 158.297 56.1731 158.108 55.7847C157.918 55.3964 157.65 55.1006 157.3 54.8987ZM156.992 58.6306C156.887 58.9954 156.756 59.256 156.597 59.4137C156.438 59.5701 156.266 59.6483 156.081 59.6483C155.896 59.6483 155.724 59.5701 155.565 59.4137C155.406 59.2573 155.274 58.9967 155.17 58.6306C155.066 58.2657 155.014 57.7862 155.014 57.1933C155.014 56.6004 155.066 56.1209 155.17 55.7561C155.274 55.3912 155.406 55.1293 155.565 54.973C155.724 54.8166 155.896 54.7384 156.081 54.7384C156.266 54.7384 156.438 54.8166 156.597 54.973C156.756 55.1293 156.887 55.3899 156.992 55.7561C157.096 56.1209 157.148 56.6004 157.148 57.1933C157.148 57.7862 157.096 58.2657 156.992 58.6306Z" fill="#F9EDD9"/>
<path d="M166.938 58.1498C166.82 57.8801 166.594 57.6924 166.262 57.5882C166.129 57.5452 165.976 57.5191 165.8 57.51V57.4748C166.094 57.4696 166.372 57.4175 166.632 57.3185C166.879 57.2286 167.08 57.0917 167.237 56.9093C167.393 56.7269 167.471 56.4884 167.471 56.194C167.471 55.7574 167.294 55.4173 166.938 55.1724C166.583 54.9287 166.002 54.8062 165.195 54.8062H163.309V54.9131L163.737 55.0199V59.2913L163.309 59.3981V59.7304H164.94V59.3981L164.911 59.2913V57.5817H165.374L166.305 59.7304L166.352 59.9415L160.944 59.9689L160.554 61.0113L161.202 61.0308V60.2946H161.784V61.0308H162.481V61.612H161.784V62.2713H161.202V61.612H160.38L159.856 63.0101L167.999 63.0388L166.938 58.1485V58.1498ZM165.269 57.4019H164.985V54.9834H165.269C165.602 54.9834 165.862 55.0877 166.052 55.2962C166.243 55.5046 166.336 55.8043 166.336 56.1926C166.336 56.581 166.241 56.8807 166.052 57.0891C165.862 57.2976 165.602 57.4019 165.269 57.4019Z" fill="#F9EDD9"/>
<path d="M162.294 54.9156C161.944 54.7137 161.538 54.6133 161.074 54.6133C160.61 54.6133 160.202 54.7137 159.853 54.9156C159.505 55.1176 159.235 55.4121 159.045 55.8017C158.855 56.1913 158.76 56.6604 158.76 57.2103C158.76 57.7602 158.855 58.2306 159.045 58.6189C159.235 59.0085 159.504 59.303 159.853 59.5049C160.201 59.7069 160.609 59.8073 161.074 59.8073C161.539 59.8073 161.946 59.7069 162.294 59.5049C162.642 59.303 162.911 59.0085 163.101 58.6189C163.292 58.2306 163.386 57.7602 163.386 57.2103C163.386 56.6604 163.29 56.19 163.101 55.8017C162.911 55.4134 162.643 55.1176 162.294 54.9156ZM161.983 58.6476C161.879 59.0124 161.748 59.273 161.589 59.4307C161.43 59.587 161.258 59.6652 161.073 59.6652C160.888 59.6652 160.716 59.587 160.557 59.4307C160.398 59.2743 160.266 59.0137 160.162 58.6476C160.058 58.2827 160.005 57.8032 160.005 57.2103C160.005 56.6174 160.058 56.1379 160.162 55.773C160.266 55.4082 160.398 55.1463 160.557 54.9899C160.716 54.8336 160.888 54.7554 161.073 54.7554C161.258 54.7554 161.43 54.8336 161.589 54.9899C161.748 55.1463 161.879 55.4069 161.983 55.773C162.088 56.1379 162.14 56.6174 162.14 57.2103C162.14 57.8032 162.088 58.2827 161.983 58.6476Z" fill="#F9EDD9"/>
<path d="M150.682 54.7371H148.867V54.844L149.295 54.9508V59.5049L148.867 59.6118V59.7186H150.682C151.531 59.7186 152.182 59.501 152.636 59.0645C153.089 58.628 153.314 58.0156 153.314 57.2285C153.314 56.4415 153.088 55.8291 152.636 55.3925C152.182 54.956 151.532 54.7384 150.682 54.7384V54.7371ZM151.707 59.0033C151.464 59.3616 151.123 59.5401 150.682 59.5401H150.469V54.9156H150.682C151.124 54.9156 151.465 55.0942 151.707 55.4525C151.948 55.8108 152.069 56.4024 152.069 57.2272C152.069 58.0521 151.948 58.6449 151.707 59.002V59.0033Z" fill="#F9EDD9"/>
<path d="M122.551 54.31L121.987 54.1358V53.9615H123.285C123.683 53.9615 123.999 54.0467 124.232 54.2171C124.466 54.3874 124.657 54.6313 124.808 54.9487L126.049 57.6199L126.692 55.9243L125.936 54.31L125.372 54.1358V53.9615H126.669C127.068 53.9615 127.384 54.0467 127.617 54.2171C127.85 54.3874 128.042 54.6313 128.192 54.9487L129.434 57.6199L130.618 54.4842L129.772 54.1358V53.9615H131.859V54.1358L130.957 54.4842L128.869 59.8847H128.531L126.861 56.3076L125.485 59.8847H125.146L122.551 54.31Z" fill="#F9EDD9"/>
</svg>
