<?xml version="1.0" encoding="UTF-8"?>
<svg id="Illus" xmlns="http://www.w3.org/2000/svg" xmlns:xlink="http://www.w3.org/1999/xlink" viewBox="0 0 652.51 1281.08">
  <defs>
    <style>
      .cls-1 {
        stroke-width: 3px;
      }

      .cls-1, .cls-2, .cls-3, .cls-4, .cls-5, .cls-6, .cls-7 {
        stroke: #0e2720;
        stroke-miterlimit: 10;
      }

      .cls-1, .cls-5, .cls-6, .cls-7 {
        fill: none;
      }

      .cls-2 {
        fill: url(#linear-gradient-2);
      }

      .cls-2, .cls-3, .cls-4, .cls-6 {
        stroke-width: .25px;
      }

      .cls-3 {
        fill: url(#linear-gradient);
      }

      .cls-4 {
        fill: #231f20;
      }

      .cls-8 {
        fill: #0e2720;
        stroke-width: 0px;
      }

      .cls-7 {
        stroke-width: .5px;
      }
    </style>
    <linearGradient id="linear-gradient" x1="348.71" y1="250.96" x2="355.52" y2="250.96" gradientUnits="userSpaceOnUse">
      <stop offset="0" stop-color="#2f469d"/>
      <stop offset=".19" stop-color="#304ba0"/>
      <stop offset=".43" stop-color="#365cac"/>
      <stop offset=".71" stop-color="#3f78be"/>
      <stop offset="1" stop-color="#4b9ed7"/>
    </linearGradient>
    <linearGradient id="linear-gradient-2" x1="315.39" y1="254.31" x2="322.01" y2="254.31" xlink:href="#linear-gradient"/>
  </defs>
  <g id="Lukas">
    <path class="cls-5" d="M454.08,652.93s-14.02-4.49-15.22-4.56c0,0-16.31-4.61-17.05-6.95,0,0-6.31-2.94-7.23-2.41"/>
    <path class="cls-8" d="M406.09,671.34c1.76-2.43,3.09-5,4.3-7.74s2.41-5.56,4.18-8.04c.18-.25-.54-.18-.67,0-1.68,2.36-2.85,5.01-4.01,7.65-1.26,2.87-2.62,5.59-4.47,8.13-.18.25.54.18.67,0h0Z"/>
    <path class="cls-8" d="M406.65,672.46c1.94-1.76,3.46-3.92,4.39-6.37.53-1.4.89-2.86,1.49-4.24s1.45-2.75,2.43-3.95c.29-.36-.39-.5-.61-.23-.86,1.05-1.6,2.18-2.2,3.39-.65,1.34-1.06,2.76-1.53,4.16-.9,2.65-2.37,5.01-4.45,6.89-.36.33.21.61.49.35h0Z"/>
    <path class="cls-8" d="M407.87,673.27c1.08-.88,2.19-1.73,3.03-2.86.76-1.02,1.29-2.2,1.72-3.4.92-2.52,1.46-5.22,3.1-7.41.2-.27-.53-.22-.68-.03-1.53,2.05-2.13,4.56-2.94,6.94-.42,1.23-.91,2.46-1.64,3.54-.84,1.24-2.02,2.14-3.17,3.08-.32.26.39.29.58.13h0Z"/>
    <path class="cls-8" d="M408.87,673.9c1.61-1.68,3.24-3.37,4.46-5.36.58-.93,1.01-1.92,1.4-2.94s.83-2.13,1.69-2.89c.29-.26-.42-.19-.57-.07-1.62,1.42-1.95,3.76-2.99,5.57-1.23,2.14-2.97,3.94-4.67,5.71-.18.19.53.12.66-.02h0Z"/>
    <path class="cls-8" d="M410.24,674.77c.48-.85,1.25-1.5,1.91-2.21s1.31-1.49,1.91-2.27c.56-.72,1.12-1.47,1.58-2.26.48-.84.56-1.85.98-2.72.18-.37-.55-.36-.69-.08-.19.38-.34.77-.46,1.18-.15.5-.22,1.01-.48,1.47-.48.87-1.13,1.68-1.74,2.47s-1.22,1.49-1.87,2.19-1.35,1.32-1.82,2.15c-.2.35.54.35.69.08h0Z"/>
    <path class="cls-8" d="M411.7,675.63c1.33-1.03,2.58-2.16,3.72-3.4.52-.57,1.09-1.15,1.43-1.85s.4-1.56.71-2.31c.08-.19-.63-.11-.72.11-.28.69-.35,1.45-.63,2.14-.31.74-.92,1.35-1.46,1.93-1.11,1.2-2.32,2.3-3.62,3.3-.12.1-.07.18.06.22.16.04.39-.04.51-.14h0Z"/>
    <path class="cls-8" d="M412.65,676.47c.55-.22,1.04-.55,1.51-.9s.96-.72,1.4-1.12c.82-.74,1.44-1.66,1.84-2.7.06-.16-.23-.19-.32-.18-.17.02-.34.1-.41.26-.36.95-.95,1.79-1.7,2.47-.4.36-.84.7-1.27,1.02s-.86.61-1.35.81c-.11.05-.28.19-.19.32s.36.07.48.02h0Z"/>
    <path class="cls-8" d="M414.57,677.23c.59-.44,1.16-.93,1.68-1.45.13-.13.25-.26.37-.39s.23-.26.3-.42c.14-.34-.07-.65-.44-.67-.16,0-.39.05-.48.21s.07.23.2.24c-.06,0-.02,0,0,.05.01.03.02.07.02.1,0,.11-.08.21-.15.29-.2.23-.41.44-.63.65-.42.41-.87.8-1.35,1.15-.1.08-.21.22-.06.31.14.08.39.03.51-.06h0Z"/>
    <path class="cls-8" d="M415.75,677.99c.72-.43,1.3-1.03,1.7-1.76.08-.16-.08-.3-.22-.31-.18-.02-.38.06-.47.22-.04.08-.09.16-.13.23-.01.02-.02.04-.03.05.04-.06,0,.01-.01.02-.02.04-.05.07-.07.1-.11.14-.22.28-.34.41-.03.03-.06.06-.09.09-.02.02-.03.03-.05.04-.03.03.04-.04,0,0-.07.06-.13.12-.2.18s-.14.11-.21.16c-.03.02-.07.05-.11.07-.02.01-.04.03-.06.04-.06.04.06-.04,0,0-.12.07-.29.23-.17.38.11.13.35.14.49.06h0Z"/>
    <path class="cls-8" d="M223.31,612.06c-1.53-.1-2.68-1.34-3.28-2.66-.68-1.49-.9-3.18-1.16-4.79-.02-.13-.75.03-.72.19.45,2.81,1.04,7.28,4.69,7.53.15.01.39-.04.51-.14.1-.08.12-.13-.04-.14h0Z"/>
    <path class="cls-8" d="M223.87,610.38c-1.41-.46-2.04-2.21-2.55-3.45-.62-1.53-1.07-3.12-1.35-4.74-.04-.23-.77-.06-.72.19.29,1.72.78,3.41,1.46,5.02.53,1.24,1.17,2.86,2.57,3.32.16.05.37.02.51-.07.07-.05.24-.21.07-.27h0Z"/>
    <path class="cls-8" d="M224.5,608.57c-.88-2.08-1.76-4.16-2.63-6.25-.83-1.97-2-4.08-1.77-6.29.04-.37-.7-.28-.73.05-.23,2.19.86,4.24,1.69,6.2l2.73,6.47c.14.32.86.12.72-.19h0Z"/>
    <path class="cls-8" d="M225.83,607.06c-.15-2.31-1.85-4.29-2.75-6.35-.99-2.25-1.59-4.68-1.26-7.14.04-.29-.69-.16-.72.09-.32,2.42.22,4.8,1.16,7.02.47,1.1,1.04,2.15,1.63,3.19s1.14,2.15,1.22,3.38c.02.24.74.09.72-.19h0Z"/>
    <path class="cls-8" d="M242.41,593.93c-1.35-1.18-2.7-2.39-3.75-3.85-.52-.73-.93-1.52-1.24-2.36-.27-.74-.54-1.52-1.16-2.04-.2-.17-.88.11-.67.29.66.56.89,1.4,1.19,2.18s.72,1.53,1.21,2.22c1.05,1.46,2.4,2.67,3.75,3.85.2.17.88-.11.67-.29h0Z"/>
    <path class="cls-8" d="M240.96,595.76c-1.53-1.31-2.99-2.66-4.07-4.38-1.01-1.61-1.73-3.38-2.45-5.14-.07-.17-.78.06-.72.19.73,1.81,1.48,3.63,2.54,5.28s2.52,3,4.02,4.29c.14.12.79-.16.68-.24h0Z"/>
    <path class="cls-8" d="M244.27,591.97c-2.25-1.56-4.11-3.63-5.41-6.05-1.36-2.54-1.59-5.54-3.11-7.99-.18-.3-.87,0-.66.33.83,1.34,1.21,2.86,1.65,4.35.39,1.33.89,2.62,1.57,3.83,1.31,2.38,3.18,4.42,5.41,5.96.28.2.9-.19.55-.44h0Z"/>
    <path class="cls-8" d="M250.2,462c-3.04,1.88-4.07,5.37-4.74,8.67-.08.39.67.28.88.25.28-.05,1.19-.23,1.27-.61.61-3,1.47-6.47,4.27-8.2.36-.22.26-.49-.14-.52-.52-.04-1.1.14-1.54.41h0Z"/>
    <path class="cls-8" d="M251.35,467.64c-2.76,2.12-4.87,5.02-6.02,8.3-.16.44.7.42.92.39.41-.06,1.09-.25,1.25-.69,1.08-3.05,3.01-5.75,5.58-7.73.35-.27.24-.61-.18-.68-.51-.09-1.13.1-1.54.41h0Z"/>
    <path class="cls-8" d="M251.81,473.33c-4.22,2.16-7.27,6.28-7.98,10.98-.17,1.13,2.05.87,2.21-.15.6-4,3.14-7.64,6.75-9.49.4-.21.82-.71.5-1.16s-1.05-.4-1.48-.19h0Z"/>
    <path class="cls-8" d="M255.04,477.08c-1.06-.45-2.3.16-2.87,1.08-.5.79-.8,1.76-1.12,2.64-.7,1.89-1.26,3.83-1.68,5.8-.11.53.61.72,1,.69.51-.04,1.09-.33,1.2-.87.32-1.51.72-3,1.22-4.47.25-.73.52-1.44.81-2.15.14-.34.28-.68.43-1.01.05-.1.13-.21.16-.31.11-.35.19.29-.4.04.49.21,1.2-.02,1.54-.41s.18-.84-.28-1.03h0Z"/>
    <path class="cls-8" d="M250.61,465.59c-1.9,2.08-3.76,4.2-5.57,6.36-.88,1.05-1.75,2.11-2.6,3.18-.77.96-1.57,2.09-1.21,3.38.27.97,2.44.39,2.17-.58-.31-1.12.8-2.14,1.43-2.93.81-1,1.64-2,2.47-2.99,1.67-1.97,3.37-3.91,5.12-5.82.34-.37.18-.85-.27-1.02-.51-.19-1.18.02-1.54.41h0Z"/>
  </g>
  <g id="Joel">
    <path class="cls-5" d="M264.33,615.51s-7.09,29.76-34.07,10.79l-7.44-12.27s-.43-6.31,11.48-13.92c0,0,13.21-7.3,13.51-12.21,0,0,13.31,5.4,15.61,11.01,0,0,7.8,4,9.61,9.61,0,0,7.05,7.28,8.88,9.9.26.37.42.65.43.8.1,1.2,3.5,3.9,3.5,3.9,0,0,2.4,3.8.8,6.1,0,0-4,6.3-8.7,2l-5.3-5s-4.8-6.2-5.3-7.7c0,0-1.33-1.38-2.99-3.02-2.31-2.27-5.24-5.01-6.11-5.19"/>
    <path class="cls-5" d="M238.31,534.92s-.38-24.64-2.32-27.83c0,0-2.22-23.41,4.99-32.27,0,0,10.56-16.71,10.48-17.2"/>
    <path class="cls-5" d="M222.82,614.03s-6.11-2.24-6.62-8.84c0,0-4.54-12.38-4.76-13.7,0,0-4.69-.29-5.86-.59,0,0-4.39-3.66-5.64-12.53,0,0-4.39-3-1.25-6.59l-.27-3.9-.73-4.93s-4.86-25.01-3.61-33.07c0,0-3.74-8.5-2.49-13.11l.22-6.15s.15-2.49-2.78-10.62c0,0,.22-6.3,1.25-7.91,0,0-2.49-18.61,1.46-20.29,0,0-7.47-19.12,4.32-32.23l17.29-33.85s20.74-54.72,26.11-58.12c0,0,28.28-15.19,34.76-15.71l8.96-2.75s-2.68-2.29,0-3.66l4.45-1.57,9.81-7.79s6.61-7.46,10.86-7.85l2.29-3.27s1.27,18.84,9.01,22.77l18,20.41.33.54"/>
    <path class="cls-5" d="M331.83,351.35s22.9-9.86,26.35-9.4c0,0,20.63-5.91,22.09-7.13,0,0,22.2-13.83,5.74-17.69l6.76.42s4.32-.91,5.01,2.4l1.6,4.69s.85,2.13.43,2.61c0,0,2.93,4.37,6.93,5.49,0,0,3.25,1.54,1.7,4.69,0,0,34.47,15.24,38.14,24.03,0,0,10.45,33.35,12.14,48.25,0,0,10.4,58.18,8.85,60.99l-1.69,74.62s-2.81,64.36-8.85,78.41c0,0,1.83,26.14-2.95,29.23l-1.07,4.28-2.51,1.8-4.72,29.03s-36.15-9.12-41-17.23l4.27-7.85,6.37-16.65s-3.53-7.98,3.21-18.81l-1.43-16.54s-1.65-9.6-.82-11.38c.82-1.78,2.61-14.26-1.51-23.17,0,0,1.65-17.82.96-19.88l1.78-8.78-.55-10.15.55-10.83-.82-10.01.27-20.57s-2.99-10.36-1.08-23.94l5.5-28.84s2.69-12.9,2.02-21.65l1.35-11.33s22.49-30.28,21.73-49"/>
    <path class="cls-5" d="M377.43,331.43s14.53-8.01,4.82-21.76c0,0-1.88-2.65-8.04-1.42l-7.18-1.34"/>
    <path class="cls-5" d="M249.89,580.19l2.79-10.86,2.87-1.53c.66-.35.95-1.11.78-1.84-.15-.62-.06-1.58.71-2.98l13.24-39.29s-2.43-6.08,1.09-6.59c0,0,93.24-1.2,113.37,1.57,0,0,3.92-1.18,4.5,2.97l1.36,8.61s11.77,40.12,11.01,43.81c0,0,2.67,19.35,5.86,22.78,0,0,2.64,4.94-.32,11.21l-2.16,9.08-6.65,7.29s12.95,3.55,19.45-6.81"/>
    <path class="cls-5" d="M398.33,624.44s-37.57,9.76-47.21,9.27c0,0-11.18-1.54-24.87-3.99-15.96-2.86-35.32-6.96-44.36-11.3"/>
    <path class="cls-5" d="M325.83,667.92s14.55,4.75,16.24-22.46"/>
    <path class="cls-5" d="M405.5,671.75l-3.08,5.31s-2.47,4.01-2.98,9.33l-1.69,7.75s-2.66,4.44-3.62,8.75c0,0-1.63,4.09-1.48,5.21.13.94-.63,2.24,1.38,4.94.79,1.07,3.45.73,4.64.15.93-.46,2.15-1.19,3.63-2.34.32-.25.54-.62.63-1.01l1.63-5.7c.03-.14.08-.26.17-.38.7-.94,3.79-6.01,3.79-9.82,0,0,2.27-7.55,3.14-8.42.02-.02.06,0,.05.04-.27.75-1.78,5.25-.18,7.93,0,0,.19,2.96.86,4.18.11.2.12.44.03.65-.45,1.14-1.76,4.58-1.67,6.06,0,.15,0,.28-.03.43-.37,1.26-2.28,7.92-1.98,10.84.04.41-.07.81-.32,1.13l-8.64,10.99s-8.09,2.49-7.04,5.65c1.05,3.15,1.97,3.81,4.99,3.15,0,0,8.95-2.84,10.52-4.15,2.46-2.05,13.83-15.66,13.71-17.37l1.83-4.58-3,11.77s-2.89,4.98-4.4,6.37-6.48,4.98-6.48,4.98c0,0-3.7,1.24-3.82,3.22-.12,1.98-.69,4.88,1.74,4.3s8.79-2.75,10.06-4.14,7.53-6.62,7.53-6.62c0,0,2.95-3.67,3.1-6.33s5.47-14.1,5.47-14.1l1.39-5.07"/>
    <path class="cls-5" d="M283.17,329.15s30.65,24.66,41.89,21.12"/>
    <path class="cls-5" d="M352.26,343.33l22.65-21.08s4.16-7.84,4.63-10.16"/>
    <path class="cls-5" d="M373.71,323.37s-2.54-5.27-3.96-5.91c0,0-4.84-3.03-2.42-23.64,0,0,5.56-12.26,4.81-19.87l1.88-19.2-1.97-19.69s-4.08-8.87-4.81-9.53c-.62-.56-2.79-9.63-3.4-12.24-.11-.46-.35-.86-.7-1.18l-4.82-4.27c-1.01-.89-2.39-1.23-3.7-.9-5.22,1.32-18.72,4.75-22.56,5.75-.3.08-.59.12-.9.12-2.8.04-17.55.26-22.27.04-.89-.04-1.76.27-2.43.86l-3.4,3.02-2.76,5.67s-3.85,18.76-3.13,20.65l2.25,20.28s1.09,2.76.44,3.71l2.25,4.29,3.71,16.28,3.93,10.54.84,6.85"/>
    <path class="cls-5" d="M372.14,273.95s7.62,3.8,11.54-12.72c0,0,2.34-10.6.75-12.43l-1.67-3.6s-.97-2.85-2.65-2.85h-1.84"/>
    <path class="cls-5" d="M304.35,281.15s-4.21,1.38-6.51-2.89l-3.45-6.58-2.38-6.78-.58-8.18s-.16-4.11,2.88-3.45"/>
    <path class="cls-5" d="M238.95,491.47s14.29,12.55,16.22-9.65l-9.27-60.43-1.93-27.17-2.32-17.24s-6.14-25.36-2.2-29.38"/>
    <path class="cls-5" d="M417.07,496.19s-23.77-70.63-1.62-108.63"/>
    <path class="cls-5" d="M324.56,341.69s-4.7-4.61,1.34-4.83c0,0,3.23,1.68,2.03,4.18"/>
    <path class="cls-5" d="M353.26,348.02s-1.08-6.42,4.83-3.79c0,0,2.89,3.58-1.25,5.17"/>
    <path class="cls-1" d="M325.5,339.27s5.16,24.62,1.43,29.46c0,0-2.7,4.84-.04,11.71l1.39,10.6"/>
    <path class="cls-1" d="M356.12,346.5s-3.91,8.72,0,32.23l-.87,9.69-3.7,9.79"/>
    <path class="cls-8" d="M327.64,212.36c.32-3.65-.7-7.44.39-11,1-3.28,3.65-5.81,6.59-7.43,3.34-1.83,7.11-2.66,10.77-3.58,3.92-.99,7.85-1.97,11.77-2.96.44-.11.34-.48-.1-.37-4.33,1.09-8.65,2.17-12.98,3.26-3.52.89-7.1,1.8-10.27,3.63-2.6,1.5-4.92,3.69-6.12,6.48-1.65,3.83-.42,8.05-.78,12.05-.03.29.7.16.72-.09h0Z"/>
    <path class="cls-8" d="M331.07,212.31v-6.31c-.01-2.05-.15-3.96.91-5.79.9-1.56,2-3.31,3.46-4.4,1.67-1.24,3.97-1.68,5.97-2.1,6.75-1.44,14.06-1.6,19.76-5.97.32-.24-.4-.23-.58-.1-6.64,5.1-15.46,4.16-23.05,6.75-3.05,1.04-4.98,3.43-6.45,6.22-.86,1.62-.75,3.33-.75,5.1v6.79c0,.2.73.07.73-.19h0Z"/>
    <path class="cls-8" d="M332.73,212.33c.13-3.19.6-6.35,1.45-9.43.4-1.43.84-2.87,1.44-4.23.75-1.71,2.05-2.69,3.72-3.46,3-1.38,6.3-1.97,9.5-2.7s6.66-1.51,9.99-2.26c.43-.1.37-.33-.06-.23-3.74.85-7.47,1.69-11.21,2.54-3.2.72-6.49,1.38-9.41,2.93-1.04.55-2.02,1.23-2.68,2.23-.89,1.36-1.35,3.1-1.81,4.64-.98,3.3-1.52,6.71-1.65,10.16,0,.11.72.02.72-.19h0Z"/>
    <path class="cls-8" d="M334.9,211.39c1.11-3.12,2.19-6.26,3.39-9.36,1.11-2.86,2.51-5.67,5.03-7.55,1.64-1.22,3.59-1.97,5.62-2.14,1.56-.13,3.13.01,4.68-.24,2.71-.45,5.15-1.8,7.51-3.14.3-.17-.42-.09-.55-.01-1.7.96-3.41,1.95-5.29,2.52-1.99.61-3.99.42-6.03.59-2.37.19-4.69,1.05-6.6,2.48-2.36,1.77-3.77,4.34-4.86,7.03-1.32,3.27-2.44,6.62-3.62,9.94-.04.12.65.05.71-.13h0Z"/>
    <path class="cls-8" d="M335.37,210.75c2.61-1.19,4.66-3.16,5.88-5.76,1.44-3.06,1.85-6.73,4.24-9.28,1.41-1.5,3.33-2.04,5.31-2.31s3.83-.44,5.73-.3,3.66.86,5.44,1.64c1.37.6,2.74,1.08,4.26,1.04.28,0,.76-.44.28-.42-2.07.06-3.82-.97-5.68-1.74-1.52-.62-3.08-.94-4.71-.98-2.97-.09-6.62.08-9.3,1.49s-3.95,4.39-4.89,7.18c-1.32,3.9-2.9,7.32-6.85,9.12-.46.21-.04.46.29.31h0Z"/>
    <path class="cls-8" d="M341.17,209.71c1.28-3.23,3.39-5.99,5.73-8.53,1.14-1.24,2.3-2.55,3.72-3.47,1.71-1.11,3.75-1.5,5.73-1.81,6.86-1.06,14.39.18,19.08,5.7.16.19.86-.07.67-.28-5.06-5.94-13.31-6.99-20.6-5.66-1.57.29-3.17.63-4.6,1.39-1.69.9-3.02,2.32-4.31,3.71-2.51,2.69-4.79,5.6-6.16,9.05-.09.23.63.15.72-.09h0Z"/>
    <path class="cls-8" d="M343.22,209.97c2.48-5.94,8.52-8.9,14.41-10.45,3.33-.88,6.58-1.03,9.87.09,2.96,1,5.63,2.68,8.26,4.35.27.17.91-.2.56-.42-2.9-1.83-5.88-3.71-9.21-4.67s-6.41-.69-9.62.15c-6.11,1.61-12.41,4.72-14.97,10.87-.16.38.57.39.69.09h0Z"/>
    <path class="cls-8" d="M346.67,208.06c3.91-5.32,10.64-7.11,16.98-6.76,3.19.18,6.31.86,9.05,2.57,2.39,1.49,4.48,3.41,7.08,4.54.25.11.9-.24.57-.39-3.03-1.32-5.37-3.73-8.29-5.24s-6.58-2.02-9.96-2.01c-6.13.02-12.36,2.14-16.1,7.23-.21.29.52.27.68.05h0Z"/>
    <path class="cls-8" d="M354.42,206.25c5.6-3.56,13.01-3.66,18.78-.4,4.96,2.8,7.95,8.22,13.35,10.34.16.06.81-.2.59-.28-3.3-1.3-5.73-3.9-8.24-6.32-2.31-2.23-4.76-4.16-7.81-5.26-5.66-2.04-12.16-1.32-17.24,1.9-.3.19.42.11.56.03h0Z"/>
    <path class="cls-8" d="M358.48,208.06c4.92-.19,10.09-.37,14.77,1.42,2.4.92,4.38,2.42,6.26,4.15,2.09,1.93,4.16,3.89,6.24,5.83.18.17.86-.1.67-.28-2.19-2.05-4.35-4.12-6.56-6.14-1.91-1.74-3.95-3.17-6.4-4.05-4.68-1.68-9.79-1.53-14.69-1.34-.26.01-.77.42-.29.4h0Z"/>
    <path class="cls-8" d="M363.19,212.23c4.69-.23,9.5-.46,14.07.79,2.22.61,3.73,1.67,5.01,3.58s2.46,3.84,3.69,5.75c.17.26.86,0,.66-.31-1.33-2.07-2.59-4.21-4.01-6.22-1.26-1.78-2.86-2.71-4.93-3.27-4.69-1.28-9.62-1.06-14.42-.83-.4.02-.56.54-.07.51h0Z"/>
    <path class="cls-8" d="M364.28,215.95c4.65.49,9.41-.98,13.73,1.4,1.84,1.01,3.89,2.34,5.24,3.97,1.51,1.83,1.78,4.27.7,6.38-.19.37.54.39.7.09.97-1.9.96-4.16-.15-6-1.18-1.95-3.41-3.35-5.31-4.51-2-1.22-4.12-1.84-6.47-1.92-2.73-.09-5.46.34-8.19.05-.37-.04-.73.49-.25.54h0Z"/>
    <path class="cls-8" d="M365.04,217.77c2.05-.05,4.13-.17,6.18-.08,2.19.09,4.11.75,5.85,2.11,1.35,1.06,2.54,2.35,3.64,3.65,1.22,1.44,2.27,3.03,2.4,4.96.01.2.74.05.72-.19-.13-1.9-1.16-3.49-2.35-4.92s-2.62-2.98-4.21-4.12c-3.49-2.49-7.89-1.88-11.94-1.77-.24,0-.78.38-.29.37h0Z"/>
    <path class="cls-8" d="M365.6,219.08c3.35.16,6.6,1.56,8.97,3.95,2.55,2.58,4.04,6.18,5.73,9.34.15.28.84.02.66-.32-1.77-3.32-3.33-7.1-6.12-9.72-2.43-2.28-5.66-3.62-8.99-3.78-.35-.02-.74.5-.25.53h0Z"/>
    <path class="cls-8" d="M365.9,220.49c3.78-.88,6.22,2.41,8.49,4.84s4.46,4.96,6.27,7.76c.13.2.83-.03.67-.28-2.06-3.19-4.61-6.01-7.21-8.76-1.16-1.23-2.31-2.64-3.83-3.44-1.39-.72-2.98-.84-4.49-.49-.44.1-.34.47.1.36h0Z"/>
    <path class="cls-8" d="M365.2,221.43c1.43.39,2.89.77,4.2,1.49,1.5.82,2.48,2.09,3.56,3.37,2.15,2.54,4.47,4.92,6.94,7.15.17.16.85-.12.68-.27-2.53-2.29-4.91-4.74-7.11-7.36-.99-1.18-1.92-2.33-3.27-3.1s-2.9-1.2-4.41-1.6c-.2-.05-.85.26-.58.33h0Z"/>
    <path class="cls-8" d="M366.36,223.79c3.77-.28,6.58,2.73,8.61,5.52,1.05,1.45,2.04,2.96,3.22,4.31s2.51,2.56,3.53,4.05c.12.18.82-.06.68-.27-1.07-1.56-2.48-2.82-3.7-4.26-1.29-1.51-2.34-3.2-3.54-4.78-2.04-2.69-4.89-5.22-8.5-4.96-.24.02-.77.4-.29.37h0Z"/>
    <path class="cls-8" d="M367.59,225.98c1.49-.05,2.89.12,3.7,1.51.72,1.24,1.45,2.39,2.41,3.47,2.15,2.43,4.57,4.65,6.95,6.85.13.12.78-.15.68-.24-2.53-2.34-5.17-4.7-7.38-7.36-.49-.59-.96-1.22-1.35-1.88-.33-.55-.58-1.17-1-1.65-.87-.99-2.3-1.03-3.52-.99-.15,0-.81.29-.47.28h0Z"/>
    <path class="cls-8" d="M368.69,228.47c1.27-.39,2.58,1.36,3.29,2.2.8.95,1.51,1.96,2.26,2.94,1.39,1.83,2.96,3.58,5.13,4.47.29.12.84-.3.42-.47-2.5-1.03-4.13-3.28-5.69-5.38-.79-1.07-1.6-2.13-2.55-3.06-.81-.78-1.8-1.54-2.99-1.18-.44.13-.32.61.13.47h0Z"/>
    <path class="cls-8" d="M370.58,233.06c.96.34,1.91.8,2.72,1.44s1.06,1.55,1.55,2.41c.89,1.55,2.18,2.82,3.74,3.71.19.11.86-.18.58-.34-1.63-.93-2.99-2.34-3.83-4.01-.2-.39-.35-.81-.58-1.18-.24-.4-.57-.71-.94-.98-.81-.59-1.71-1.04-2.65-1.38-.16-.06-.37-.02-.51.07-.08.05-.24.2-.07.26h0Z"/>
    <path class="cls-8" d="M371.85,236.83c1.84.7,3.01,2.37,4.09,3.91.55.78,1.1,1.57,1.76,2.26.25.26.54.68.95.65.17-.01.78-.18.55-.45-.12-.14-.8.11-.68.25l-.02.08.15-.11-.05.03.44-.1c-.13-.01-.32-.26-.41-.35-.15-.15-.3-.31-.45-.47-.29-.33-.57-.67-.83-1.03-.5-.68-.96-1.38-1.46-2.06-.91-1.23-1.99-2.36-3.45-2.91-.16-.06-.81.2-.59.29h0Z"/>
    <path class="cls-8" d="M372.19,238.36c-.11.79.39,1.43.84,2.02.48.64.97,1.28,1.49,1.89,1.01,1.19,2.15,2.28,3.54,3.02.16.09.37.08.52-.04.11-.08.2-.3.04-.38-1.31-.7-2.4-1.72-3.36-2.84-.48-.55-.92-1.13-1.37-1.71s-1.07-1.24-.96-2.02c.05-.37-.69-.28-.73.05h0Z"/>
    <path class="cls-8" d="M372.23,241.99c.61,2.72,2.82,4.66,4.85,6.38.14.12.78-.16.68-.24-2.02-1.72-4.21-3.63-4.81-6.34-.03-.14-.76.04-.72.19h0Z"/>
    <path class="cls-8" d="M372.42,245.83c.67,1.6,1.83,2.97,3.31,3.88.16.1.38.07.52-.04.12-.09.19-.29.03-.39-1.39-.86-2.5-2.14-3.14-3.65-.07-.17-.27-.21-.43-.16-.13.03-.36.19-.29.36h0Z"/>
    <path class="cls-8" d="M372.91,245.98c.7.79,1.51,1.48,2.39,2.04.15.09.38.04.52-.06.11-.08.2-.23.05-.33-.85-.54-1.62-1.2-2.29-1.96-.11-.13-.35-.09-.49-.03-.1.05-.3.2-.18.33h0Z"/>
    <path class="cls-8" d="M361.88,210.4c2.03-.38,4.1-.62,6.16-.7,1.77-.06,3.91-.05,4.9,1.69.12.22.83-.02.67-.29-.97-1.71-3.1-1.89-4.86-1.85-2.28.05-4.54.3-6.78.72-.35.07-.59.51-.09.42h0Z"/>
    <path class="cls-8" d="M361.64,206.28c2.56-.03,5.22-.27,7.75.09,1.17.17,2.32.53,3.27,1.25.82.63,1.41,1.49,2.38,1.92.17.07.83-.19.59-.3-1.08-.48-1.73-1.55-2.71-2.17-.92-.58-1.98-.87-3.05-1.02-2.59-.36-5.31-.12-7.91-.09-.21,0-.79.33-.31.32h0Z"/>
    <path class="cls-8" d="M353.63,204.98c3.57-.87,7.3-.78,10.94-.68,3.15.08,6.36.41,9.02,2.23.19.13.86-.15.58-.35-2.75-1.86-6.09-2.2-9.32-2.28-3.78-.1-7.63-.16-11.32.73-.44.11-.34.46.09.35h0Z"/>
    <path class="cls-8" d="M348.46,200.87c2.56-1.92,5.47-2.73,8.65-2.83,1.47-.05,2.93-.06,4.4-.04,1.31.01,3.84-.37,4.19,1.34.05.22.77.04.72-.19-.31-1.49-2.06-1.47-3.26-1.5-2.03-.05-4.06-.05-6.08.03-3.35.13-6.48,1.08-9.19,3.1-.32.24.41.21.57.09h0Z"/>
    <path class="cls-8" d="M341.34,206.37l3.92-7.95c.6-1.22,1.13-2.55,1.87-3.7.99-1.53,2.55-1.87,4.25-2.01,2.72-.22,5.6-.41,8.25.39,2.14.64,4.03,2.42,6.38,1.79.44-.12.34-.5-.1-.38-1.84.5-3.52-.99-5.15-1.59-1.13-.42-2.33-.63-3.53-.73-2.46-.21-5.35-.21-7.76.4s-3.28,2.58-4.33,4.71c-1.49,3.02-2.98,6.03-4.47,9.05-.16.32.57.25.68.03h0Z"/>
    <path class="cls-8" d="M326.82,205.19c-.32-6.51-.19-14.92,7.1-17.62,5.86-2.17,12.36-.06,18.26-2.21.48-.17.04-.38-.28-.27-6.36,2.32-13.62-.39-19.75,2.88s-6.37,11.17-6.06,17.42c.01.21.74.07.72-.19h0Z"/>
    <path class="cls-8" d="M330.38,193.96c1.69-1.72,3.52-3.31,5.49-4.71,1.52-1.07,3.06-1.94,4.98-1.89,1.06.03,2.11.27,3.16.43,4.65.73,9.37.82,14.05.34.21-.02.78-.37.31-.32-3.02.31-6.06.39-9.09.19-1.45-.09-2.89-.25-4.32-.46-1.36-.2-2.71-.52-4.09-.51-1.86.01-3.52.8-5.04,1.81-2.22,1.49-4.25,3.25-6.11,5.15-.17.17.53.1.66-.04h0Z"/>
    <path class="cls-8" d="M321.47,207.71c.28-6.33-1.33-13.44,2.2-19.16,1.76-2.85,4.92-4.83,7.91-6.21,1.99-.92,4.22-1.33,6.25-.32,1.24.61,2.14,1.66,2.45,3.01.03.14.76-.04.72-.19-.69-2.98-3.98-4.06-6.72-3.59-3.19.55-6.45,2.56-8.89,4.63-6.46,5.49-4.32,14.63-4.65,22.04,0,.09.72,0,.72-.19h0Z"/>
    <path class="cls-8" d="M322.73,207.82c-.61-5.44.15-10.98,2.23-16.04.96-2.34,2.26-5.53,4.41-7,1.21-.82,2.71-1.02,4.14-1.07,1.19-.04,3.32-.32,3.98.92.15.29.84.02.66-.32-.5-.93-1.55-1.08-2.52-1.13-1.36-.07-2.77-.06-4.11.2-3.11.62-4.64,3.01-6.02,5.66-3.04,5.81-4.23,12.46-3.5,18.97.04.33.76.16.72-.19h0Z"/>
    <path class="cls-8" d="M320.14,207.49l.03-.83-.72.15c.7,1.18,1.27,2.42,1.7,3.72.08.24.8.03.72-.19-.44-1.3-1.01-2.54-1.7-3.72-.07-.12-.24-.1-.36-.08-.1.02-.36.09-.37.23l-.03.83c0,.28.71.12.72-.1h0Z"/>
    <path class="cls-8" d="M326,211.38c.19-4.27.14-8.54-.19-12.8-.29-3.76-1.55-8.91,2.07-11.53.31-.23-.41-.19-.57-.08-3.34,2.41-2.67,6.79-2.34,10.36.44,4.74.53,9.49.32,14.24,0,.17.71.06.72-.19h0Z"/>
    <path class="cls-8" d="M323.75,210.97c-.49-4.14-.47-8.32.1-12.45.27-1.96.66-3.9,1.17-5.81s1.1-5.74,3.37-6.38c.44-.12.33-.54-.11-.42-1.83.51-2.42,1.93-2.99,3.6-.82,2.37-1.45,4.81-1.88,7.28-.84,4.75-.95,9.59-.38,14.37.03.28.76.11.72-.19h0Z"/>
    <path class="cls-8" d="M320.22,209.73c-.36-5.29-.73-10.67.23-15.93.44-2.45,1.17-4.86,2.29-7.09.57-1.13,1.21-2.36,2.11-3.26,1.31-1.31,3.12-1.1,4.79-.85.36.06.73-.46.25-.53-2.31-.35-4.47-.34-6.04,1.61-1.66,2.06-2.73,4.69-3.45,7.22-1.75,6.14-1.34,12.58-.91,18.87.03.38.76.27.73-.05h0Z"/>
    <path class="cls-8" d="M316.76,210.19c-.56-4.74-.44-9.53.4-14.24.4-2.24.96-4.45,1.67-6.62.65-1.96,1.54-5.33,4.04-5.56.35-.03.6-.45.1-.4-1.77.16-2.91,1.43-3.67,2.95-1.16,2.32-1.84,4.97-2.42,7.49-1.24,5.43-1.51,11.04-.86,16.57.03.24.76.08.72-.19h0Z"/>
    <path class="cls-8" d="M317.64,207.97v-15.11c0-2.45-.17-5.01.37-7.41.61-2.72,2.87-6.13,6.15-4.57.2.09.78-.2.68-.25-1.67-.79-3.64-.43-5.09.67-1.99,1.51-2.59,4.15-2.77,6.5-.24,3.3-.07,6.65-.07,9.96,0,3.47,0,6.93,0,10.4,0,.14.72.03.72-.19h0Z"/>
    <path class="cls-8" d="M313.95,208.89c.13-4.03-.03-8.07-.03-12.1,0-2.08.04-4.15.19-6.22.06-.85.1-1.73.33-2.56.34-1.23,1.68-2.79,2.94-1.56.15.15.83-.12.68-.26-.91-.89-2.45-.61-3.35.18-1.48,1.3-1.32,3.91-1.41,5.69-.29,5.67.1,11.35-.08,17.03,0,.16.72.05.72-.19h0Z"/>
    <path class="cls-8" d="M310.95,208.48c-.4-3.52-.37-7.08.13-10.59.23-1.64.56-3.26.98-4.86.22-.82,1.18-5.39,2.32-5.2.37.06.73-.47.24-.55-1.55-.25-2.01,1.7-2.39,2.81-.67,1.95-1.2,3.95-1.58,5.97-.78,4.16-.9,8.41-.43,12.62.04.35.77.17.72-.19h0Z"/>
    <path class="cls-8" d="M309.88,208.16c0-3.62,0-7.24-.01-10.86,0-1.64-.04-3.3.39-4.9.46-1.7,1.36-3.22,2.57-4.48.3-.32-.4-.35-.59-.15-2.38,2.49-3.09,5.45-3.09,8.81,0,3.89,0,7.78.01,11.67,0,.33.73.19.73-.08h0Z"/>
    <path class="cls-8" d="M307.64,207.63c0-2.96,0-5.91,0-8.87,0-1.41-.26-2.87.71-4.01s1.99-2.09,3.08-3.02c.32-.27-.4-.29-.58-.13-1.11.95-2.16,1.96-3.11,3.06s-.82,2.19-.82,3.58c0,3.16,0,6.33,0,9.49,0,.31.73.16.73-.09h0Z"/>
    <path class="cls-8" d="M305.89,208.55c.11-2.66.23-5.37-.32-8-.26-1.28-.72-2.5-.42-3.82.28-1.21,1.04-2.24,2.1-2.88.42-.25-.19-.45-.47-.29-2.07,1.26-2.79,3.53-2.26,5.82.35,1.5.63,2.96.7,4.51s0,3.15-.06,4.73c-.01.35.72.23.73-.07h0Z"/>
    <path class="cls-8" d="M304.09,207.75c.31-2.34-1.49-3.99-2.95-5.53-.85-.89-1.38-1.85-2.02-2.88-.45-.72-1.08-1.17-1.94-1.22-2.09-.12-3.39,1.58-4.46,3.12-1.53,2.19-3.05,4.38-4.58,6.57-.17.24.55.16.67-.01,1.21-1.75,2.43-3.49,3.64-5.24,1-1.44,2.73-4.88,4.95-3.95.89.37,1.21,1.38,1.68,2.14.43.71.99,1.32,1.57,1.92,1.37,1.42,3.02,3.02,2.73,5.18-.03.25.69.11.72-.1h0Z"/>
    <path class="cls-8" d="M303.2,209.1c.07-1.31-1.69-2.2-2.63-2.79-1.28-.81-2.69-1.46-4.19-1.73-2.82-.52-5.79.24-8.03,2.01-.39.3.21.49.47.28,1.99-1.56,4.57-2.27,7.08-1.85,1.31.22,2.54.75,3.68,1.42.57.33,1.12.71,1.65,1.1s1.28.87,1.24,1.63c-.02.35.71.22.73-.07h0Z"/>
    <path class="cls-8" d="M303.37,209.9c-1.64.19-3.47.38-4.92-.58-.69-.45-1.21-1.1-1.85-1.61-.57-.47-1.21-.87-1.9-1.14-2.22-.9-5.11-.35-6.26,1.92-.09.18.61.12.72-.1.71-1.4,2.24-2.03,3.76-1.82s2.69,1.08,3.73,2.08c.87.83,1.73,1.45,2.94,1.67s2.45.09,3.66-.05c.34-.04.61-.43.11-.37h0Z"/>
    <path class="cls-8" d="M304.01,205.75c.5-2.08-.45-4.07-1.56-5.77-.49-.75-.99-1.74-1.81-2.17-.76-.4-1.64-.3-2.4.04-.12.06-.19.14-.08.22s.41-.04.51-.08c.81-.37,1.65.21,2.13.83.54.69,1.02,1.46,1.46,2.22.84,1.46,1.44,3.15,1.03,4.84-.05.2.67.09.72-.11h0Z"/>
    <path class="cls-8" d="M300.56,204.95c-.95-.08-1.77-.54-2.6-.98-.72-.38-1.45-.72-2.22-.99s-1.57-.46-2.38-.59-1.7-.21-2.51.08c-.43.15-.31.64.13.49.83-.3,1.77-.12,2.62.04.8.16,1.59.4,2.35.7,1.45.58,2.76,1.63,4.36,1.77.35.03.74-.47.25-.52h0Z"/>
    <path class="cls-8" d="M308.03,211.66c.11-.1.16-.01-.03-.12-.06-.03-.11-.07-.16-.11-.18-.13-.34-.29-.51-.44-.33-.29-.66-.58-.98-.87-.63-.57-1.25-1.16-1.85-1.76-.96-.95-1.95-2.25-3.42-2.32-.16,0-.4.05-.47.21-.07.16.06.27.21.27.83.04,1.48.61,2.05,1.17.65.64,1.29,1.3,1.95,1.93s1.35,1.25,2.05,1.85c.5.43,1.14.93,1.75.36.13-.12.05-.26-.09-.32-.17-.07-.39.02-.51.14h0Z"/>
    <path class="cls-8" d="M313.33,211.68c-1.51-.37-2.42-1.71-3-3.07-.68-1.61-1.08-3.36-1.41-5.07-.36-1.81-.48-3.68-.88-5.47-.25-1.12-1.31-1.53-2.21-.81-.16.12.52.07.66-.05.55-.44.91,1.6.94,1.77.12.82.23,1.64.36,2.45.26,1.63.56,3.25.99,4.85.59,2.19,1.45,5.08,3.95,5.7.17.04.81-.23.59-.29h0Z"/>
    <path class="cls-8" d="M316.12,210.92c-1.49-1.99-2.75-4.16-4.07-6.26s-2.68-4.26-4.02-6.39c-.11-.17-.78.11-.72.19,1.34,2.13,2.68,4.26,4.02,6.39s2.58,4.27,4.07,6.26c.13.17.77-.13.72-.19h0Z"/>
    <path class="cls-8" d="M321.02,212.52c-3-6.67-3.53-14.23-1.48-21.25.07-.24-.65-.14-.72.1-2.06,7.04-1.53,14.65,1.48,21.34.11.24.82.01.72-.19h0Z"/>
    <path class="cls-8" d="M311.32,212.39c-1.18-.33-1.83-1.46-2.35-2.48-.56-1.08-1.11-2.15-1.83-3.14-1.5-2.06-3.45-3.78-5.67-5.02-.23-.13-.89.2-.57.38,2.34,1.31,4.35,3.14,5.86,5.35.69,1.02,1.19,2.13,1.79,3.2.54.96,1.23,1.83,2.33,2.14.26.07.85-.31.43-.43h0Z"/>
    <path class="cls-8" d="M305.65,214.25c-3.03-1.32-6.21-2.52-9.55-2.65s-6.42,1.01-9.46,2.19c-.47.18-.04.44.29.31,2.97-1.15,5.99-2.26,9.23-2.06s6.08,1.33,8.91,2.57c.22.1.88-.22.58-.36h0Z"/>
    <path class="cls-8" d="M303.71,216.5c-2.63-.18-5.33-.55-7.97-.49-1.24.03-2.2.52-3.33.97-1.33.53-2.77.65-4.19.77-.39.03-.57.54-.07.5,1.24-.11,2.49-.21,3.69-.56s2.27-1.09,3.56-1.16,2.63.11,3.92.2l4.14.28c.33.02.75-.46.26-.5h0Z"/>
    <path class="cls-8" d="M303.52,215.77c-5.5.34-11.08-2.38-16.43-.09-.46.2-.04.43.28.29,5.12-2.19,10.75.52,16.05.19.36-.02.6-.43.1-.4h0Z"/>
    <path class="cls-8" d="M302.12,218.32h-5.28c-1.34-.01-2.92-.25-4.2.24-.62.24-1.1.69-1.67,1.03-.61.36-1.29.57-1.96.81-1.01.36-1.99.78-2.66,1.66-.04.05.58.04.71-.13.76-.99,1.97-1.27,3.09-1.69.38-.14.75-.29,1.1-.48.49-.26.89-.67,1.38-.91.76-.38,1.73-.25,2.56-.25h2.05c1.47,0,2.93,0,4.4.01.15,0,.82-.29.47-.29h0Z"/>
    <path class="cls-8" d="M301.25,220.03l-4.65-.02c-1.27,0-2.19.05-3.22.83-1.11.84-2.15,1.8-3.31,2.57-1.3.87-2.83,1.07-4.35,1.24-.41.05-.55.62-.06.56,1.23-.14,2.49-.28,3.64-.76,1.22-.5,2.22-1.4,3.24-2.21.5-.4.99-.82,1.52-1.19.76-.54,1.59-.49,2.48-.48l4.65.02c.42,0,.55-.56.06-.56h0Z"/>
    <path class="cls-8" d="M300.84,221.33c-2.88-.31-6.3-.55-8.56,1.64-.52.5-.82,1.1-1.17,1.71-.39.68-.98,1.16-1.65,1.55-1.2.68-2.51,1.09-3.61,1.94-.14.11.52.05.65-.06,1.73-1.33,4.24-1.6,5.38-3.65.74-1.33,1.64-2.29,3.15-2.75,1.68-.51,3.51-.29,5.23-.1.17.02.78-.26.6-.28h0Z"/>
    <path class="cls-8" d="M300.14,222.64c-2.54-.26-5.5-.42-7.44,1.56-1.15,1.17-2,2.72-2.93,4.07-.84,1.22-1.67,2.44-2.04,3.9-.09.36.65.28.74-.05.35-1.39,1.18-2.55,1.98-3.71s1.56-2.41,2.46-3.52c1.73-2.13,4.52-1.96,6.99-1.71.36.04.74-.49.25-.54h0Z"/>
    <path class="cls-8" d="M303.34,215.2c-5.49.22-10.98.05-16.44-.51-.28-.03-.77.36-.28.41,5.46.56,10.95.73,16.44.51.27-.01.77-.43.28-.41h0Z"/>
    <path class="cls-8" d="M306.46,213.34c-2.33-.29-4.53-1.16-6.42-2.56-.71-.53-1.4-1.09-2.24-1.4-.92-.34-1.94-.48-2.91-.54-3.32-.19-7.02,1.12-8.29,4.45-.05.14.64.07.72-.12,1.47-3.85,6.32-4.86,9.89-3.5,1.55.59,2.76,1.92,4.25,2.66s2.95,1.13,4.53,1.33c.17.02.83-.26.47-.31h0Z"/>
    <path class="cls-8" d="M298.79,224.32c-2.49-.62-4.79,1.18-6.29,2.98-.87,1.05-1.52,2.26-2.14,3.47-.7,1.37-1.38,2.75-2.07,4.13-.18.37.55.37.69.08.58-1.15,1.15-2.3,1.73-3.44s1.12-2.27,1.85-3.31c1.22-1.74,3.45-4.02,5.81-3.43.31.08.86-.38.42-.49h0Z"/>
    <path class="cls-8" d="M299.4,226.57c-1.06-.03-2,.48-2.87,1.05-.99.64-1.92,1.37-2.79,2.15-.81.73-1.74,1.53-2.05,2.61-.29,1.02-.08,2.41-1.04,3.13-.13.1-.06.16.05.2.14.05.4-.05.51-.14.74-.55.9-1.42,1.01-2.29.07-.52.13-1.04.37-1.51s.62-.89,1-1.26c.76-.76,1.59-1.47,2.46-2.11s1.91-1.52,3.04-1.49c.23,0,.78-.33.3-.34h0Z"/>
    <path class="cls-8" d="M298.73,229.85c-1-.09-1.9.46-2.45,1.28-.34.5-.55,1.08-.8,1.63-.31.71-.67,1.4-1.08,2.06-.7,1.14-1.64,2.07-1.86,3.43-.23,1.48-.32,3-.47,4.49-.03.3.7.17.73-.09.12-1.19.24-2.39.37-3.58.06-.6.1-1.22.32-1.78s.61-1.03.96-1.51c.65-.9,1.2-1.86,1.66-2.88s.96-2.75,2.34-2.63c.29.02.77-.38.28-.42h0Z"/>
    <path class="cls-8" d="M297.53,233.71c-.35,1.03-1.02,1.95-1.52,2.92s-1,2.03-1.43,3.07c-.83,2.01-1.49,4.09-1.98,6.21-.08.34.66.24.73-.06.5-2.15,1.17-4.25,2.03-6.28.41-.97.86-1.93,1.35-2.87s1.17-1.89,1.52-2.92c.13-.39-.59-.36-.69-.07h0Z"/>
    <path class="cls-8" d="M293.14,248.68l2.54-5.86c.79-1.82,1.54-3.67,2.65-5.32.16-.24-.55-.16-.67.01-1.09,1.62-1.84,3.42-2.61,5.21l-2.63,6.06c-.08.18.63.11.72-.11h0Z"/>
    <path class="cls-8" d="M293.77,251.34c.18-2.81.64-6.49,3.69-7.64.14-.05.27-.21.18-.36-.1-.15-.36-.09-.49-.04-3.29,1.24-3.92,5.03-4.11,8.11-.02.36.71.25.73-.06h0Z"/>
    <path class="cls-8" d="M294.44,253.62c-.73-2.78.65-5.8,3.35-6.88.1-.04.28-.14.2-.27-.08-.12-.39-.03-.48,0-2.91,1.17-4.61,4.26-3.8,7.34.06.23.78.03.72-.19h0Z"/>
    <path class="cls-8" d="M295.21,254.94c-.38-1.38.06-2.64.99-3.68.81-.91,1.81-1.93,1.54-3.26-.07-.33-.79-.14-.72.19.29,1.44-1.14,2.4-1.87,3.42s-.99,2.3-.65,3.52c.09.33.81.13.72-.19h0Z"/>
    <path class="cls-8" d="M295.89,256.02c-.24-2.08-.47-4.9,1.62-6.17.13-.08.08-.15-.04-.17-.16-.03-.38.06-.51.14-2.22,1.34-2.05,4.16-1.79,6.39.02.15.75,0,.72-.19h0Z"/>
    <path class="cls-8" d="M297.16,259.17c-.15-1.37-.12-2.75.09-4.11.11-.71.27-1.4.49-2.08.18-.58.4-1.16.9-1.53.13-.1-.12-.1-.16-.1-.16,0-.36.07-.49.17-.47.36-.72.87-.9,1.42-.22.66-.39,1.35-.51,2.04-.26,1.45-.3,2.93-.14,4.4.01.11.74-.02.72-.19h0Z"/>
    <path class="cls-8" d="M298.08,260.21c-.12-1.02-.18-2.02.36-2.93.44-.76,1.05-1.39,1.27-2.26.05-.18-.21-.26-.34-.25-.18,0-.35.12-.4.3-.23.88-.94,1.53-1.34,2.33-.48.94-.39,1.99-.27,3.01.04.34.77.17.72-.19h0Z"/>
    <path class="cls-8" d="M355.03,236.76c1.33-.1,2.69-.2,4.02.03.58.1,1.14.26,1.68.51.42.19,1.44.64,1.36,1.21-.03.19.41.12.44-.05.08-.58-.66-.97-1.09-1.2-.59-.33-1.24-.55-1.89-.68-1.47-.3-2.98-.2-4.46-.09-.23.02-.35.3-.05.27h0Z"/>
    <path class="cls-8" d="M354.64,237.76c1.51,0,3.05-.08,4.55.01.41.03.8.11,1.14.36.24.17.44.4.65.6.47.43,1,.76,1.58,1.01.13.06.53-.13.35-.21-.69-.3-1.26-.72-1.8-1.24-.46-.44-.93-.69-1.57-.75-.72-.07-1.46-.03-2.18-.03h-2.56c-.16,0-.46.25-.17.25h0Z"/>
    <path class="cls-8" d="M340.53,243.01c1.81-1.38,3.99-2.18,6.27-2.29.23-.01.35-.28.05-.27-2.38.12-4.7.96-6.6,2.41-.23.18.13.26.28.15h0Z"/>
    <path class="cls-8" d="M341.28,244.07c1.9.35,3.85.27,5.7-.29.99-.3,1.89-.77,2.83-1.18,1.09-.47,2.23-.66,3.4-.83.22-.03.35-.32.05-.28-.93.13-1.87.26-2.76.55s-1.77.79-2.67,1.15c-1.99.8-4.19.99-6.29.6-.16-.03-.51.22-.26.26h0Z"/>
    <path class="cls-8" d="M354.17,242.92c2.07-.15,4.13-.04,6.19.25.09.01.25,0,.31-.08.05-.06.07-.14-.04-.15-2.13-.3-4.25-.41-6.4-.26-.21.02-.36.26-.06.24h0Z"/>
    <path class="cls-8" d="M348.24,241.43c3.59-.15,7.19-.1,10.78.14.17.01.46-.23.17-.25-3.59-.24-7.19-.29-10.78-.14-.16,0-.46.26-.17.25h0Z"/>
    <path class="cls-8" d="M350.38,239l4.73.11,2.32.05c.39,0,2.12-.19,2.11.44,0,.17.43.08.43-.06,0-.47-.51-.56-.89-.59-.95-.06-1.92-.04-2.87-.07l-5.66-.13c-.16,0-.46.23-.17.24h0Z"/>
    <path class="cls-8" d="M360.31,240.28c1.7.11,3.33.74,4.66,1.8.14.11.53-.09.34-.24-1.38-1.1-3.08-1.75-4.84-1.86-.1,0-.24.03-.28.13s.04.16.13.17h0Z"/>
    <path class="cls-8" d="M358.82,240.98c1.19.15,2.36.46,3.47.93.09.04.2,0,.28-.02.02,0,.2-.1.13-.12-1.13-.47-2.31-.79-3.52-.95-.1-.01-.21,0-.3.06-.03.01-.15.1-.05.11h0Z"/>
    <path class="cls-8" d="M362.81,238.27c.98.94,1.96,1.88,2.95,2.81.1.1.32.02.38-.1.07-.17.02-.37-.14-.47-.1-.06-.23-.05-.31.02-.07.06-.11.18-.02.24.05.03.08.08.05.14l.38-.1c-.98-.94-1.96-1.88-2.95-2.81-.15-.14-.52.08-.33.26h0Z"/>
    <path class="cls-8" d="M362.54,242.98c1,.03,2,.02,2.99-.03.09,0,.23-.03.29-.12.05-.08-.04-.13-.12-.12-1,.05-1.99.06-2.99.03-.09,0-.24.03-.29.12s.04.12.12.12h0Z"/>
    <path class="cls-8" d="M352.08,239.88h3.95c.08,0,.25-.03.29-.11s-.04-.1-.11-.1h-3.95c-.08,0-.25.03-.29.11s.04.1.11.1h0Z"/>
    <path class="cls-8" d="M343.24,242.38c.88.03,1.77-.18,2.54-.61.87-.48,1.25-1.17,1.73-2,1.17-2.02,3.77-1.72,5.75-1.43.1.01.46-.14.36-.16-1.65-.25-3.49-.43-5.05.3-.81.38-1.27.97-1.69,1.74-.26.47-.53.92-.97,1.25-.69.52-1.52.77-2.39.74-.09,0-.49.16-.29.17h0Z"/>
    <path class="cls-8" d="M328.73,246.01c-.12-.93-.09-1.88.09-2.8.1-.51.52-2.1,1.31-1.38.09.08.48-.09.41-.15-.31-.28-.78-.23-1.14-.08-.45.18-.7.58-.85,1.03-.36,1.11-.41,2.35-.26,3.5.01.09.45,0,.43-.12h0Z"/>
    <path class="cls-8" d="M326.88,246.22c0-.9,0-1.8,0-2.7,0-.35-.01-.79.34-.97.28-.15.59-.19.82-.43.07-.07-.06-.09-.11-.09-.09,0-.22.04-.29.11-.23.24-.62.26-.88.46-.28.22-.32.56-.32.89-.01.95,0,1.9,0,2.85,0,.09.43.02.43-.12h0Z"/>
    <path class="cls-8" d="M325.11,245.04c-.15-.85-.12-1.73.11-2.56.17-.61.64-1.4.16-1.97-.09-.11-.51.04-.4.17.24.29.18.67.09,1.01-.11.37-.25.72-.34,1.09-.18.78-.2,1.59-.05,2.38.02.14.46.04.43-.12h0Z"/>
    <path class="cls-8" d="M323.1,241.16c-2.77-.16-5.55-.15-8.31.07-1.93.15-4.66.26-5.4,2.46-.08.24.35.25.42.06.77-2.3,4.04-2.14,6-2.26,2.38-.15,4.77-.14,7.16,0,.22.01.44-.31.15-.33h0Z"/>
    <path class="cls-8" d="M307.68,243.54c-.42.03-.78.28-1,.64-.25.41-.31.89-.44,1.34-.27.95-.73,1.83-1.34,2.6-.17.22.24.31.37.14.54-.67.97-1.43,1.26-2.24.14-.4.22-.8.33-1.21s.33-.9.79-.94c.25-.02.33-.36.03-.34h0Z"/>
    <path class="cls-8" d="M321.66,242.92h-6.16c-1.23-.01-3.13-.29-3.86,1-.12.22.32.23.42.06.38-.67,1.24-.72,1.93-.73.81-.01,1.63,0,2.44,0h5.2c.25,0,.33-.33.03-.33h0Z"/>
    <path class="cls-8" d="M308.83,244.56c-1.08,1.48-2.15,2.96-3.23,4.43-.09.13.33.07.4-.02,1.08-1.48,2.15-2.96,3.23-4.43.09-.13-.33-.07-.4.02h0Z"/>
    <path class="cls-8" d="M321.78,244.05c-2.52.04-5.05.04-7.57-.01-.87-.02-1.92-.22-2.76.06-.75.25-1,1-1.44,1.59-.02.03.35.02.43-.08.21-.29.37-.61.57-.91.38-.54.97-.55,1.57-.53,1,.03,2,.05,3.01.06,1.97.03,3.94.02,5.9-.02.09,0,.49-.17.28-.17h0Z"/>
    <path class="cls-8" d="M309.64,246.51c-.96.23-1.84.77-2.48,1.53-.06.07-.04.16.05.19s.24,0,.31-.08c.57-.67,1.34-1.16,2.2-1.37.08-.02.21-.09.18-.19s-.18-.09-.25-.07h0Z"/>
    <path class="cls-8" d="M321.83,245.07h-5.44c-.84,0-1.68-.03-2.51,0-.44,0-1,.1-1.17.57-.08.23.35.2.41.04.13-.37.61-.31.92-.31.35,0,.7,0,1.05,0h2.2c1.46,0,2.93,0,4.39,0,.19,0,.45-.29.16-.29h0Z"/>
    <path class="cls-8" d="M304.07,252.23c.51-1.12,1.08-2.19,2.23-2.75,1.05-.51,2.26-.59,3.4-.66.12,0,.47-.2.19-.18-1.27.08-2.59.19-3.76.74-.56.26-1.07.63-1.46,1.12-.44.54-.73,1.18-1.02,1.81-.03.07.38.04.43-.08h0Z"/>
    <path class="cls-8" d="M311.84,246.91h3.46c.9.02,1.88.11,2.67-.4.09-.06.03-.1-.03-.12-.09-.03-.23.04-.31.08-.39.25-.85.25-1.3.25-.48,0-.96,0-1.44,0h-2.87c-.14-.01-.47.19-.18.19h0Z"/>
    <path class="cls-8" d="M303.14,250.28c-.1-.78-.21-1.62.09-2.37.21-.54.74-1.17,1.38-1.07.1.02.21-.01.3-.06.03-.02.15-.1.05-.11-.78-.12-1.56.29-1.98.94-.53.82-.4,1.87-.28,2.78.01.08.45,0,.43-.12h0Z"/>
    <path class="cls-8" d="M303.64,249.82l1.06-.25c.06-.01.21-.08.19-.16s-.19-.06-.25-.05l-1.06.25c-.06.01-.21.08-.19.16s.19.06.25.05h0Z"/>
    <path class="cls-8" d="M321.52,241.92s.03,0,.03,0c.02,0,.05,0,.07,0,.02,0,.04,0,.06,0,0,0,.06.01.03,0,.08.02.17.05.24.08.02,0,.02,0,.05.02.02,0,.03.02.05.03.03.02.07.04.1.07.07.05.13.1.19.16.23.24.39.56.38.9,0,.1.11.15.2.14.08,0,.24-.07.24-.17,0-.41-.16-.8-.45-1.08-.31-.31-.71-.48-1.15-.48-.09,0-.23.07-.24.17-.01.11.12.14.2.14h0Z"/>
    <path class="cls-8" d="M324.98,246.32l-5.98-.15c-.09,0-.25,0-.31.08-.04.05-.08.11.03.11l5.98.15c.09,0,.25,0,.31-.08.04-.05.08-.11-.03-.11h0Z"/>
    <path class="cls-8" d="M338.4,205.8c-.43-2.68.72-5.22,2.32-7.3.81-1.05,1.72-2.02,2.64-2.98s1.87-1.96,2.96-2.76c.29-.21-.43-.12-.56-.02-1.07.79-1.99,1.72-2.9,2.67s-1.88,1.97-2.71,3.04c-1.68,2.14-2.92,4.77-2.47,7.55.02.15.75,0,.72-.19h0Z"/>
    <path class="cls-8" d="M328.52,205.47c-.81-3.44,1.4-6.3,3.59-8.68,1.11-1.2,2.24-2.5,3.67-3.31,1.66-.94,3.62-1.06,5.48-1.25,5.03-.51,10.46-1.1,14.37-4.66.31-.28-.41-.26-.58-.11-2.51,2.29-5.72,3.28-9.01,3.81-2.95.48-6.1.38-8.96,1.26-2.68.82-4.59,3.03-6.38,5.07-1.96,2.24-3.62,4.98-2.9,8.06.06.24.78.06.72-.19h0Z"/>
    <path class="cls-8" d="M343.22,204.08c.25-2.22,1.65-3.94,3.02-5.6s2.95-3.52,4.93-4.66c2.42-1.39,5.34-1.23,8.04-1.27s5.2-.04,7.81-.04c.24,0,.78-.36.29-.36-3.15,0-6.31,0-9.46.07-2.33.05-4.68.16-6.79,1.26-2,1.04-3.57,2.73-5,4.43-1.55,1.85-3.28,3.78-3.56,6.28-.03.25.7.11.72-.11h0Z"/>
    <path class="cls-8" d="M350.72,205.54c1.02-1.03,2.26-1.83,3.66-2.24,1.32-.39,2.74-.46,4.11-.54,2.7-.17,5.57-.04,7.69,1.86.16.15.83-.13.68-.26-2.46-2.21-5.9-2.11-8.99-1.88s-5.65.91-7.81,3.09c-.18.18.52.12.66-.02h0Z"/>
    <path class="cls-8" d="M348.63,240.02h4.07c.1,0,.24-.03.28-.13.04-.09-.03-.17-.13-.17h-4.07c-.1,0-.24.03-.28.13-.04.09.03.17.13.17h0Z"/>
    <path class="cls-8" d="M342.62,240.48c1.78-.16,3.52-.62,5.16-1.33.07-.03.11-.07.05-.11s-.25.03-.3.06c-1.5.66-3.09,1.06-4.72,1.22-.07,0-.26.03-.29.1s.03.08.1.07h0Z"/>
    <path class="cls-8" d="M343.98,239.44c2.38-1.07,4.9-1.8,7.49-2.16.2-.03.37-.26.07-.22-2.67.37-5.27,1.12-7.72,2.22-.28.12-.02.24.17.15h0Z"/>
    <path class="cls-6" d="M345.6,248.25s7.16-5.89,14.16-.42c0,0,1.18.67,1.59.87"/>
    <path class="cls-6" d="M326.26,252.27s-7.31-7.9-17.23,2.24"/>
    <path class="cls-7" d="M323.13,285.95l5.33-1.81s5.13-1.81,7.89-.35c0,0,3.71.51,6.06-.86,0,0,1.06-1.63,9.1,0l2.24.44.51.1-1.02.79s-4.65,5.51-10.12,5.54c0,0-6.33,1.02-10.62.49,0,0-8.01-2.59-9.36-4.34Z"/>
    <path class="cls-7" d="M354.26,283.47s-9.35,1.24-9.84,2.02c0,0-9.57,1.42-10.87.65,0,0-10.22.36-10.42-.18"/>
    <path class="cls-7" d="M357.33,273.69s4.15,2.92,3.69,6.11"/>
    <path class="cls-7" d="M316.35,287.81s-3.83-3.73.51-9.18"/>
    <path class="cls-7" d="M336.99,330.49s3.3,4.67,11.33-2.78"/>
    <path class="cls-5" d="M367.33,293.82l-2.99,4.58-10.62,11.46c-15.27,17.33-30.9,0-30.9,0l-10.17-8.05-2.9-3.65"/>
    <path class="cls-6" d="M332.91,303.08s5.91-5.71,12.27,0"/>
    <path class="cls-8" d="M356.36,322.95c.83,0,1.11-1.07.13-1.07-.83,0-1.11,1.07-.13,1.07h0Z"/>
    <path class="cls-7" d="M380.98,255.78s-.73-5.81-1.41-6.28"/>
    <path class="cls-7" d="M375.59,259.05c0-2.65-1.3-3.69-1.3-3.69l1.15-2.2s5.99-13.79,6.37-4.92"/>
    <path class="cls-7" d="M295.06,269.16s-.43-10.88.31-11.37c0,0-1.26-2.43-3.94-1.07"/>
    <path class="cls-7" d="M299.29,262.16s-2.84-.12-2.99,2.14"/>
    <path class="cls-7" d="M298.3,270.31s2.26.8,3.35.15"/>
    <path class="cls-7" d="M376.01,262.02s2.39,1.07,2.99-.6"/>
    <path class="cls-6" d="M324.55,255.52s4.95-.72,1.4-2.07c0,0-7.82-3.55-10.87-.85l-4.4,3.6s3-.13,3.98.38c0,0,5.58,1.18,7.87-.72l2.03-.34Z"/>
    <path class="cls-6" d="M344.54,251.63s-3.09,2.34.36,1.69c0,0,2.7-.66,4.44-.02,0,0,1.55,1.14,8.25-1.01.08-.02.15-.06.21-.11.29-.25,1.3-1.03,2.26-1.04.09,0,.13-.12.05-.17-.96-.64-4.03-2.56-6.16-2.51,0,0-1.8-.2-3.27.12,0,0-3.18.59-6.13,3.06Z"/>
    <path class="cls-3" d="M349.3,248.96s-1.35,2.64.04,4.34c0,0,3.11.71,5.81-.31,0,0,1.09-3.32-.5-4.49,0,0-5-.49-5.36.46Z"/>
    <circle class="cls-4" cx="352" cy="250.54" r="1.34"/>
    <path class="cls-2" d="M316.37,256.89c-2.53-2.84.62-5.18.62-5.18,0,0,1.54-.44,3.9.13,1.5.37,1.11,3.18.93,4.15-.04.2-.21.31-.4.39-1.87.78-4.8.78-5.05.5Z"/>
    <circle class="cls-4" cx="318.53" cy="254.28" r="1.37"/>
    <path class="cls-8" d="M341.64,245.75c1.22-1.55,3.17-2.04,5-2.48.04,0,.22-.06.2-.13s-.2-.02-.24-.01c-1.94.47-4.06,1.01-5.36,2.66-.09.11.33.06.39-.03h0Z"/>
    <path class="cls-8" d="M340.54,244.68c2.89-1.29,6.63-.4,8.99-2.9.19-.2-.23-.26-.36-.12-1.1,1.16-2.7,1.56-4.23,1.78s-3.13.34-4.59.99c-.27.12-.03.35.19.25h0Z"/>
    <path class="cls-8" d="M349.78,243.28c1.2.08,2.42.15,3.61-.05s2.3-.81,3.51-1.06c.27-.05.2-.3-.07-.24-1.17.24-2.22.83-3.39,1.03s-2.33.12-3.5.04c-.18-.01-.46.25-.16.27h0Z"/>
    <path class="cls-8" d="M359.02,241.91h1.64c.24,0,.44,0,.64.15.18.13.32.22.55.21.08,0,.23-.06.25-.15.02-.1-.12-.11-.19-.11s-.17-.1-.22-.13c-.07-.06-.15-.11-.23-.15-.21-.09-.46-.08-.69-.08h-1.59c-.1,0-.24.03-.29.13-.05.09.04.14.12.14h0Z"/>
    <path class="cls-8" d="M314.99,247.58c-1.23-.02-2.45-.04-3.68,0-.99.03-1.99.12-2.85.65-.09.05-.03.09.03.11.09.03.24-.04.31-.08.83-.51,1.88-.48,2.82-.49,1.03-.02,2.06,0,3.09.01.09,0,.25,0,.31-.08.04-.05.08-.11-.03-.11h0Z"/>
    <path class="cls-8" d="M317.29,245.51c-2.36.35-5.25-.65-7.16,1.27-.19.19.23.26.36.12,1.74-1.76,4.59-.77,6.75-1.08.24-.03.34-.35.04-.31h0Z"/>
    <path class="cls-8" d="M307.97,244.58c.14-.54.7-.86,1.19-1.02.54-.17,1.1-.2,1.66-.23.09,0,.23-.07.24-.17s-.12-.14-.2-.13c-.67.04-1.34.09-1.97.32-.59.22-1.2.63-1.36,1.27-.05.2.39.15.44-.04h0Z"/>
    <path class="cls-8" d="M366.8,218.45c3.28-.11,6.94-.11,9.46,2.33,1.33,1.28,2.39,2.89,3.51,4.35s2.36,2.8,3.06,4.47c.04.1.47-.04.43-.12-.74-1.75-2.1-3.22-3.25-4.71s-2.18-3.09-3.56-4.34c-2.54-2.29-6.17-2.26-9.38-2.16-.09,0-.49.18-.28.17h0Z"/>
    <path class="cls-8" d="M368.7,212.28c1.43-.14,2.77-.16,4.05.58,1.03.59,1.93,1.39,2.89,2.08,1.89,1.36,3.96,1.88,6.23,2.28.13.02.51-.18.27-.23-1.31-.23-2.63-.46-3.86-.95s-2.27-1.28-3.31-2.08c-.88-.67-1.79-1.41-2.85-1.76s-2.24-.25-3.35-.14c-.21.02-.37.25-.06.23h0Z"/>
    <path class="cls-8" d="M368.2,212.24c1.1.02,2.19.22,3.22.6.53.19,1.03.43,1.52.72s.89.64,1.39.86c.14.06.54-.14.34-.23-.53-.23-.98-.63-1.48-.91s-.99-.5-1.51-.69c-1.06-.39-2.19-.59-3.32-.62-.18,0-.46.27-.16.27h0Z"/>
    <path class="cls-8" d="M367.22,212.23c1.04,0,1.99.35,2.95.7s1.86.68,2.79,1.01,1.8.63,2.58,1.18c.59.42,1.14.83,1.89.81.24,0,.34-.3.04-.3-.88.02-1.58-.82-2.32-1.2-.79-.41-1.66-.67-2.5-.98-.92-.33-1.84-.68-2.76-1-.82-.29-1.65-.53-2.52-.53-.19,0-.45.3-.16.3h0Z"/>
    <path class="cls-8" d="M343.25,202.7c.62-1.41,1.88-2.34,2.83-3.51,1.08-1.34,1.87-2.91,3.15-4.08,2.37-2.16,5.93-2.7,8.85-1.44.13.06.53-.13.35-.21-2.86-1.23-6.3-.83-8.82.99-1.49,1.08-2.39,2.64-3.45,4.1s-2.62,2.54-3.34,4.21c-.06.14.37.09.43-.05h0Z"/>
    <path class="cls-8" d="M343.93,201.18c1.88-.49,2.77-2.21,3.65-3.78.6-1.08,1.29-1.99,2.32-2.7.97-.67,2.07-1.13,3.16-1.58l-.19-.25c-2.52,1.18-4.75,2.84-6.61,4.92l.36.12c1.63-1.9,3.42-3.8,5.82-4.7,2.67-1,5.14-.09,7.6,1.02.18.08.5-.17.25-.29-2.55-1.15-5.07-2.04-7.83-1.06-2.56.91-4.48,2.89-6.2,4.91-.18.21.24.26.36.12,1.81-2.02,3.98-3.64,6.43-4.79.27-.13.03-.34-.19-.25-1.75.73-3.58,1.52-4.79,3.05-1.32,1.68-1.9,4.35-4.23,4.96-.27.07-.19.36.08.29h0Z"/>
    <path class="cls-8" d="M297.95,228.73c-2.13-.84-3.32,2.28-4.09,3.64-.71,1.25-1.42,2.5-2.14,3.75-.32.55-.71,1.12-.85,1.75s0,1.26-.25,1.85c-.03.07.38.03.43-.08.17-.41.17-.81.19-1.25.02-.55.16-1.01.42-1.49.51-.96,1.07-1.89,1.61-2.84s1.1-1.94,1.66-2.91c.5-.88,1.29-2.8,2.61-2.29.12.05.45-.13.41-.15h0Z"/>
    <path class="cls-8" d="M291.02,241.78c.77-1.56.55-3.62,1.9-4.88.07-.07-.06-.06-.1-.06-.09,0-.22.04-.29.1-1.37,1.28-1.15,3.33-1.93,4.92-.03.05.37.03.43-.08h0Z"/>
    <path class="cls-8" d="M303.34,200.67c.1-1.15-.17-2.31-.77-3.3-.13-.22-.32-.41-.45-.63-.05-.09-.07-.08,0-.17.05-.06.14-.1.2-.14.12-.08.25-.16.38-.23.59-.32,1.22-.52,1.88-.62.17-.02.39-.2.08-.15-1.11.16-2.17.59-3.07,1.27-.02.02-.03.04,0,.05.97,1.1,1.44,2.57,1.31,4.03,0,.05.42.01.43-.12h0Z"/>
    <path class="cls-8" d="M303.95,199.81c.05-1.17-.02-2.33-.19-3.49l-.25.19c.3-.03.6-.03.89.02.1.02.23,0,.31-.08.06-.06.05-.15-.04-.16-.37-.06-.73-.07-1.1-.03-.08,0-.26.07-.25.19.17,1.13.23,2.28.19,3.42,0,.19.43.1.44-.05h0Z"/>
    <path class="cls-8" d="M293.26,210.52c-.82.09-1.68.18-2.47-.08-.73-.24-1.26-.78-1.88-1.2-.48-.33-1.03-.52-1.61-.35-.5.14-.95.62-.7,1.16.07.15.49.01.43-.12-.14-.31-.04-.68.29-.81s.68,0,.95.16c.51.28.93.71,1.43,1.02,1.07.66,2.29.59,3.5.46.21-.02.36-.27.06-.23h0Z"/>
    <path class="cls-8" d="M288.8,205.38c.15,0,.47-.23.17-.23-.15,0-.47.23-.17.23h0Z"/>
    <path class="cls-8" d="M288.87,205.51c.25,0,.33-.32.04-.32-.25,0-.33.32-.04.32h0Z"/>
    <path class="cls-8" d="M292.78,204.14c-.59-.12-1.18.01-1.74.21-.62.22-1.22.47-1.83.72-.98.39-2.01.97-2.25,2.08-.05.22.4.17.44-.03.22-1.01,1.23-1.47,2.09-1.81.5-.2,1.01-.41,1.51-.6s1.06-.35,1.62-.24c.22.04.43-.27.15-.33h0Z"/>
    <polyline class="cls-5" points="238.13 528.25 240.92 526.43 237.59 517.5"/>
    <path class="cls-8" d="M275.91,523.19v.71s.05.08.09.1c.05.04.11.05.18.06.08.01.17.01.25,0,.1,0,.19-.02.29-.05l.19-.06c.11-.04.21-.1.3-.16l.1-.09c.05-.05.07-.11.06-.18v-.71s-.05-.08-.09-.1c-.05-.04-.11-.05-.18-.06-.08-.01-.17-.01-.25,0-.1,0-.19.02-.29.05l-.19.06c-.11.04-.21.1-.3.16l-.1.09c-.05.05-.07.11-.06.18h0Z"/>
    <path class="cls-8" d="M275.47,527.11v.27c.02.05.05.09.09.1.05.04.11.06.18.06.08.01.17.01.25,0,.1,0,.19-.02.29-.05l.19-.06c.11-.04.21-.1.3-.17l.1-.09c.05-.05.07-.12.06-.19v-.27c-.02-.05-.05-.09-.09-.1-.05-.04-.11-.06-.18-.06-.08-.01-.17-.01-.25,0-.1,0-.19.02-.29.05l-.19.06c-.11.04-.21.1-.3.17l-.1.09c-.05.05-.07.12-.06.19h0Z"/>
    <path class="cls-8" d="M274.75,529.39v.36c-.01.07,0,.13.04.19.02.07.07.11.13.15.07.04.14.07.22.08.09.02.18.03.27.02l.2-.04c.13-.03.24-.09.35-.16l.13-.11c.07-.07.11-.16.13-.25v-.36c.01-.07,0-.13-.04-.19-.02-.07-.07-.11-.13-.15-.07-.04-.14-.07-.22-.08-.09-.02-.18-.03-.27-.02l-.2.04c-.13.03-.24.09-.35.16l-.13.11c-.07.07-.11.16-.13.25h0Z"/>
    <path class="cls-8" d="M273.84,532.47c.04.17.06.35.04.53v-.08c-.02.23-.09.46-.21.66-.06.09.07.16.13.18.14.05.33.03.46,0,.19-.03.38-.08.55-.18.12-.06.22-.13.29-.24.23-.37.29-.85.19-1.27-.02-.1-.19-.12-.26-.13-.17-.02-.37.01-.53.06s-.35.11-.49.21c-.07.05-.19.14-.16.24h0Z"/>
    <path class="cls-8" d="M273.1,536.76c.06.14.09.28.09.43v-.1c0,.17-.04.33-.12.48l.05-.1c-.04.09-.1.16-.17.23l.09-.1s-.04.04-.06.06c-.08.07-.18.18-.15.3s.18.17.28.19c.18.03.37.01.54-.04s.35-.12.49-.24c.22-.2.4-.46.47-.75.05-.24.04-.52-.06-.75-.05-.12-.15-.16-.28-.19-.17-.03-.38-.01-.54.04s-.35.12-.49.24c-.07.07-.2.19-.15.3h0Z"/>
    <path class="cls-8" d="M271.99,540.84c0,.07.01.14.02.2v-.12c0,.29-.03.58-.1.87-.03.13.06.26.16.32.13.08.34.1.49.08.19-.02.39-.08.55-.19.12-.09.22-.2.26-.35.1-.39.12-.79.08-1.19-.01-.13-.19-.22-.29-.25-.17-.05-.38-.04-.55,0s-.36.13-.48.27l-.09.12c-.05.08-.06.16-.04.25h0Z"/>
    <path class="cls-8" d="M270.95,544.36l-.11.54c-.04.17-.06.35-.11.53l.04-.14s-.01.04-.02.06l.09-.13s-.01.02-.02.02l.13-.12h0c.05-.02.11-.06.16-.09,0,0-.01,0-.02.01l.39-.1h-.01c.06,0,.12,0,.19,0h0c.06.01.11.03.17.04h0s.09.05.14.07h0s.07.06.11.1c0,0,0,0,0-.01l.06.13s0-.02,0-.02v.14s.01-.02.01-.02l-.04.14h0s-.06.08-.09.13h0s-.08.07-.13.11h0c-.05.03-.11.06-.16.09h0c-.13.03-.26.07-.39.1h0c-.12-.01-.24-.03-.35-.04h0s-.09-.05-.14-.07h0c.14.1.33.13.5.12.18-.01.4-.08.54-.2.12-.1.25-.23.25-.39,0-.15-.05-.28-.18-.37-.15-.11-.34-.14-.51-.12-.26.02-.51.13-.68.32-.15.17-.19.41-.06.6.06.09.17.16.27.19.24.09.54.05.76-.06.12-.06.24-.14.33-.25.08-.1.11-.16.14-.27.06-.19.09-.39.13-.59l.11-.55c.03-.14-.07-.29-.18-.37-.13-.09-.34-.13-.5-.12-.35.04-.72.22-.8.59h0Z"/>
    <path class="cls-8" d="M269.36,548.6c.02.07.03.14.04.22v-.15c0,.15-.02.29-.06.43l.04-.14c-.03.12-.08.23-.15.33l.09-.14c-.05.08-.11.16-.18.23-.1.1-.15.29-.11.42.04.14.17.26.31.31.18.06.37.07.55.02l.19-.07c.11-.05.2-.13.28-.22.12-.11.2-.25.28-.39.07-.12.12-.25.15-.38.08-.29.09-.58.02-.87-.04-.15-.17-.26-.31-.31-.16-.06-.39-.07-.55-.02s-.36.14-.47.29c-.09.12-.15.27-.11.42h0Z"/>
    <path class="cls-8" d="M267.71,552.78c0,.06,0,.12,0,.18v-.09c0,.31-.09.61-.23.88l.05-.1s-.02.03-.03.05l1.12-.37s-.02,0-.03,0l.13.04s-.04-.01-.06-.03l.09.06s-.06-.04-.08-.08l.05.08s-.01-.02-.01-.03c-.02-.05-.05-.09-.1-.11-.05-.04-.11-.06-.18-.06-.17-.03-.38,0-.54.04s-.35.11-.49.23l-.1.1c-.05.06-.07.12-.05.19.03.06.07.13.13.17.1.07.2.11.33.13.21.04.43,0,.63-.07.09-.03.18-.06.26-.11.09-.05.16-.11.23-.19.11-.2.21-.41.26-.64s.06-.45.05-.67c0-.11-.2-.16-.27-.17-.17-.03-.38,0-.54.04s-.35.11-.49.23l-.1.1c-.05.06-.07.12-.05.19h0Z"/>
    <path class="cls-8" d="M266.72,556.77c-.12.07-.2.12-.3.21-.05.04-.08.1-.11.15-.04.06-.06.13-.08.21-.03.15-.04.3-.12.43l.06-.08s-.05.07-.09.1l.1-.08s-.04.03-.06.04l.14-.08s-.02.01-.03.02l.17-.07s-.02,0-.03.01l.19-.06s-.01,0-.02,0l.2-.04s-.01,0-.02,0l.18-.02s-.01,0-.02,0h.16s-.02,0-.03,0l.13.02s-.03,0-.05-.02l.09.04s-.03-.01-.04-.02c-.1-.07-.26-.07-.38-.07-.19,0-.39.05-.57.12l-.17.07c-.09.04-.17.1-.23.17-.05.07-.11.16-.02.23.09.07.22.1.33.11.28.01.56-.04.81-.14.19-.08.35-.17.5-.31.06-.06.11-.13.15-.21.11-.19.07-.44.19-.62l-.06.08s.04-.05.06-.07l-.1.08s.02-.02.04-.03l-.14.08h.01c.07-.04.13-.08.18-.13.05-.03.08-.07.11-.13.02-.04.02-.08-.02-.11-.02-.04-.06-.07-.11-.08-.15-.04-.32-.03-.47,0-.19.03-.39.08-.55.18h0Z"/>
    <path class="cls-8" d="M265.37,560.62l-.12.81c-.02.05-.01.09.02.13.02.05.06.08.12.09.07.03.14.04.21.04.09,0,.17,0,.26,0,.19-.03.38-.08.55-.18l.13-.09c.07-.05.12-.11.15-.19l.12-.81c.02-.05.01-.09-.02-.13-.02-.05-.06-.08-.12-.09-.07-.03-.14-.04-.21-.04-.09,0-.17,0-.26,0-.19.03-.38.08-.55.18l-.13.09c-.07.05-.12.11-.15.19h0Z"/>
    <path class="cls-8" d="M263.78,564.73c.02.09.03.18.02.27v-.09c0,.15-.05.3-.12.43l.05-.09c-.04.07-.09.14-.15.19-.04.04-.06.08-.06.13-.01.05,0,.08.04.12.05.04.1.06.16.07.07.02.15.03.22.02.19,0,.39-.04.57-.12l.16-.08c.09-.05.16-.1.23-.18.06-.06.11-.12.15-.19.06-.1.12-.2.15-.31.05-.18.06-.38.02-.57-.03-.11-.19-.14-.27-.15-.08-.01-.17-.01-.25,0-.1,0-.19.02-.29.05-.17.05-.35.11-.49.22-.08.06-.18.15-.16.27h0Z"/>
    <path class="cls-8" d="M263.25,567.4c.04.2.03.41,0,.61v-.06c0,.07-.02.13-.04.2-.02.03-.02.06,0,.08.02.03.06.05.11.05.07.01.13.01.2,0,.09,0,.17-.01.26-.03.19-.04.38-.09.55-.17l.14-.07c.07-.03.12-.08.16-.14.1-.28.13-.58.08-.87-.02-.03-.04-.05-.08-.06-.05-.02-.11-.03-.17-.02-.17,0-.36.03-.53.08s-.35.1-.5.19c-.06.04-.19.1-.18.19h0Z"/>
    <path class="cls-8" d="M263.16,570.25c.03.14.09.28.16.41.05.09.11.18.18.25.05.06.1.11.18.14.07.04.15.07.24.08.1.01.19.01.29-.01.1-.01.2-.04.29-.09l.16-.1c.09-.07.16-.15.21-.25l.04-.14c.01-.1-.01-.19-.07-.27-.08-.08-.14-.17-.19-.27l.06.13c-.04-.08-.07-.17-.09-.26-.02-.07-.06-.13-.11-.18-.05-.06-.12-.1-.19-.12-.08-.03-.17-.05-.26-.04-.1,0-.2,0-.29.03l-.19.07c-.11.05-.2.12-.28.22l-.09.13c-.04.09-.05.18-.03.28h0Z"/>
    <path class="cls-8" d="M262.23,571.47c-.14,0-.28.01-.42.03-.15.02-.29.05-.43.1-.2.06-.37.13-.56.22-.12.06-.23.13-.34.21-.07.05-.18.17-.15.27s.18.15.27.16c.36.04.73-.07,1.02-.27.01,0,.03-.02.04-.03l-.13.09c.06-.04.12-.07.19-.1l-.16.08c.06-.03.12-.05.18-.07l-.19.06c.06-.02.12-.03.18-.05l-.2.04c.06-.01.12-.02.18-.03l-.18.02s.08,0,.12,0c.19,0,.39-.05.57-.12.08-.03.16-.07.23-.12.06-.04.12-.08.16-.14.05-.08.1-.18,0-.26l-.09-.05c-.09-.03-.19-.04-.29-.04h0Z"/>
    <path class="cls-8" d="M257.71,572.22c-.08,0-.17,0-.25.02-.14.02-.29.04-.43.09-.28.09-.53.21-.76.4-.12.1-.23.24-.25.4-.01.14.06.3.18.38.14.1.32.14.5.12.19-.02.39-.08.54-.2.04-.03.09-.07.13-.1l-.16.1c.08-.05.16-.09.24-.12l-.19.07c.08-.03.17-.05.26-.07l-.2.03c.09-.01.18-.02.27-.02.1,0,.2-.03.29-.07.09-.03.18-.07.25-.13.07-.05.13-.11.17-.19.05-.06.08-.13.08-.21,0-.15-.05-.29-.18-.38l-.14-.07c-.11-.04-.23-.06-.36-.05h0Z"/>
    <path class="cls-8" d="M254.49,574.73c-.25.25-.44.56-.55.9-.02.04-.02.07.01.1.02.04.06.06.11.07.07.02.14.02.21.02.09,0,.17,0,.26-.02.19-.03.38-.08.55-.17l.14-.08c.07-.04.12-.09.16-.16.07-.22.17-.42.3-.6l-.06.08c.06-.08.12-.15.19-.22.04-.03.06-.07.06-.11.01-.04,0-.07-.04-.09-.05-.03-.1-.05-.15-.05-.07-.01-.15-.02-.22,0-.19.01-.39.05-.56.12-.14.06-.29.12-.4.23h0Z"/>
    <path class="cls-8" d="M252.56,578v.89s.05.08.09.1c.05.03.11.05.18.05.08.01.17.01.25,0,.1,0,.19-.02.29-.05.17-.05.35-.11.49-.22l.1-.09s.07-.11.06-.18v-.89s-.05-.08-.09-.1c-.05-.03-.11-.05-.18-.05-.08-.01-.17-.01-.25,0-.1,0-.19.02-.29.05-.17.05-.35.11-.49.22l-.1.09s-.07.11-.06.18h0Z"/>
    <path class="cls-8" d="M252.56,581.3v.89s.05.07.09.08c.05.03.11.04.17.04.17.01.37-.02.53-.07s.35-.1.49-.21l.1-.08s.07-.09.07-.15v-.89s-.05-.07-.09-.08c-.05-.03-.11-.04-.17-.04-.17-.01-.37.02-.53.07s-.35.1-.49.21l-.1.08s-.07.09-.07.15h0Z"/>
    <path class="cls-8" d="M252.83,583.98v.62c.02.05.05.09.1.12.05.04.11.06.18.07.08.02.17.02.25,0,.1,0,.19-.02.29-.05l.19-.06c.11-.04.21-.1.3-.17l.09-.1c.05-.06.07-.13.05-.2v-.62c-.02-.05-.05-.09-.1-.12-.05-.04-.11-.06-.18-.07-.08-.02-.17-.02-.25,0-.1,0-.19.02-.29.05l-.19.06c-.11.04-.21.1-.3.17l-.09.1c-.05.06-.07.13-.05.2h0Z"/>
    <path class="cls-8" d="M253.22,586.55c-.03.09-.06.18-.07.28s0,.19.01.28c0,.05.02.1.03.14,0,.02.02.05.03.07.03.06.06.13.09.19.05.06.1.11.18.14.07.04.15.07.24.08.1.01.19.01.29-.01.1-.01.2-.04.29-.09l.16-.1c.09-.07.16-.15.21-.25l.04-.14c.01-.1-.01-.19-.07-.27,0-.02-.02-.03-.03-.05l.06.13c-.04-.08-.06-.16-.07-.24v.14c0-.08.01-.16.03-.24l-.04.14h0c.04-.08.05-.15.03-.22,0-.07-.02-.14-.07-.2-.05-.06-.1-.11-.18-.14-.07-.04-.15-.07-.24-.08h-.19c-.13,0-.26.04-.39.1l-.16.1c-.09.07-.16.15-.21.25h0Z"/>
    <path class="cls-8" d="M380.72,523.62c-.06.36-.05.74.06,1.1.03.11.18.14.27.16.17.03.37,0,.54-.05s.35-.11.49-.23c.07-.06.19-.16.15-.27-.07-.24-.1-.49-.09-.75v.09c0-.09,0-.18.02-.26.02-.05.01-.09-.02-.12-.02-.05-.06-.08-.12-.09-.07-.02-.14-.04-.21-.04-.09,0-.17,0-.26.01-.19.03-.38.08-.55.18l-.13.09c-.07.05-.12.11-.15.18h0Z"/>
    <path class="cls-8" d="M381,526.28v.7c-.01.07,0,.12.03.18.02.06.07.11.13.14.07.04.14.06.22.07.09.02.18.02.27.01.19-.02.39-.08.55-.19l.13-.11c.07-.07.11-.15.14-.24v-.7c.01-.07,0-.12-.03-.18-.02-.06-.07-.11-.13-.14-.07-.04-.14-.06-.22-.07-.09-.02-.18-.02-.27-.01-.19.02-.39.08-.55.19l-.13.11c-.07.07-.11.15-.14.24h0Z"/>
    <path class="cls-8" d="M381.31,529.21v.7s.05.08.09.1c.05.03.11.05.17.05.08.01.17,0,.25,0,.1,0,.19-.02.29-.05l.19-.06c.11-.04.21-.09.3-.16l.1-.09s.07-.11.06-.17v-.7s-.05-.08-.09-.1c-.05-.03-.11-.05-.17-.05-.08-.01-.17,0-.25,0-.1,0-.19.02-.29.05l-.19.06c-.11.04-.21.09-.3.16l-.1.09s-.07.11-.06.17h0Z"/>
    <path class="cls-8" d="M382.01,532.01v.6s.05.08.09.1c.05.04.11.05.18.06.08.01.17.01.25,0,.1,0,.19-.02.29-.05l.19-.06c.11-.04.21-.1.3-.16l.1-.09c.05-.05.07-.11.06-.18v-.6s-.05-.08-.09-.1c-.05-.04-.11-.05-.18-.06-.08-.01-.17-.01-.25,0-.1,0-.19.02-.29.05l-.19.06c-.11.04-.21.1-.3.16l-.1.09c-.05.05-.07.11-.06.18h0Z"/>
    <path class="cls-8" d="M382.97,534.98c.61,0,1.51-.92.54-.92-.61,0-1.51.92-.54.92h0Z"/>
    <path class="cls-8" d="M382.69,537.53l.21.8c.02.05.05.09.1.11.05.04.11.06.18.06.08.01.17.02.25,0,.1,0,.19-.02.29-.05.17-.05.35-.11.49-.23.08-.07.18-.17.15-.29l-.21-.8c-.02-.05-.05-.09-.1-.11-.05-.04-.11-.06-.18-.06-.08-.01-.17-.02-.25,0-.1,0-.19.02-.29.05-.17.05-.35.11-.49.23-.08.07-.18.17-.15.29h0Z"/>
    <path class="cls-8" d="M383.39,540.83c.07.3.14.6.2.9.03.14.18.23.3.28.08.03.17.04.26.03.1,0,.19,0,.29-.03.17-.05.36-.13.48-.28.09-.11.16-.24.12-.39-.07-.3-.14-.6-.2-.9-.03-.14-.18-.23-.3-.28-.08-.03-.17-.04-.26-.03-.1,0-.19,0-.29.03-.17.05-.36.13-.48.28-.09.11-.16.24-.12.39h0Z"/>
    <path class="cls-8" d="M384.29,543.93c.08.43.26.83.49,1.2.05.06.1.1.17.12.07.04.15.06.23.06.18.02.41-.02.57-.1.14-.07.31-.17.38-.32l.04-.13c.01-.09,0-.17-.06-.24-.04-.07-.09-.14-.12-.22l.06.11c-.14-.28-.24-.57-.3-.87-.03-.13-.18-.22-.3-.26-.17-.05-.38-.04-.55,0s-.36.13-.48.27c-.09.11-.16.22-.13.37h0Z"/>
    <path class="cls-8" d="M385.14,547.53c-.16.53,0,1.15.39,1.55.1.1.26.14.4.15.18.01.4-.03.57-.11.14-.07.31-.16.38-.3.05-.1.08-.23,0-.33-.09-.09-.16-.19-.22-.29l.05.1c-.11-.2-.16-.42-.17-.64v.11c0-.14.02-.27.06-.4.03-.12-.06-.23-.16-.29-.13-.08-.34-.09-.48-.07-.19.03-.39.08-.55.19-.12.08-.23.18-.27.33h0Z"/>
    <path class="cls-8" d="M386.02,550.84c-.01.19,0,.38.09.56s.19.33.35.44c.05.04.1.07.16.09.07.03.15.04.23.04.1,0,.19,0,.28-.03.1-.02.19-.04.29-.08l.16-.08c.09-.05.16-.12.23-.2l.05-.1c.02-.07,0-.13-.05-.19-.1-.08-.19-.17-.25-.28l.05.09c-.09-.15-.13-.31-.13-.48v.1s0-.03,0-.05c.02-.06,0-.1-.02-.14-.02-.05-.06-.09-.12-.11-.07-.03-.14-.05-.21-.05-.09-.01-.18-.01-.26,0-.19.03-.39.08-.55.19l-.13.09c-.07.05-.12.12-.14.21h0Z"/>
    <path class="cls-8" d="M386.69,554.25c.06.4.2.77.41,1.11.05.06.1.11.18.13.07.04.15.07.24.07.1.01.19,0,.29-.01.1-.01.2-.04.29-.09.15-.08.31-.19.37-.34l.04-.14c.01-.1-.01-.19-.07-.26-.04-.06-.07-.12-.1-.19l.06.13c-.12-.25-.2-.52-.24-.8-.02-.07-.06-.13-.11-.18-.05-.06-.12-.1-.19-.12-.08-.03-.17-.05-.26-.04-.1,0-.2,0-.29.03-.17.05-.36.14-.47.28l-.09.13c-.04.09-.05.18-.03.28h0Z"/>
    <path class="cls-8" d="M387.3,558.25c-.01.49.26.96.67,1.23.05.02.1.03.15.03.07,0,.14,0,.22,0,.19-.02.39-.07.56-.13.07-.03.64-.25.44-.37-.1-.07-.19-.14-.27-.23l.04.04c-.23-.26-.36-.6-.36-.95,0-.08-.23-.08-.25-.08-.17,0-.36.03-.53.08s-.35.1-.5.19c-.07.04-.17.1-.18.19h0Z"/>
    <path class="cls-8" d="M387.9,561.82c0,.16,0,.32.04.47s.1.3.18.44c.13.25.33.46.56.62.13.09.33.11.49.1.18-.01.4-.08.55-.2.11-.09.25-.22.26-.37,0-.14-.05-.26-.17-.34-.05-.03-.1-.07-.14-.11l.1.09c-.13-.12-.24-.26-.32-.42l.06.12c-.08-.17-.14-.35-.15-.54v.13s0-.08,0-.13c.01-.07,0-.13-.04-.19-.02-.07-.07-.12-.13-.15-.13-.09-.34-.12-.49-.1-.19.02-.39.08-.55.2-.11.09-.25.22-.26.37h0Z"/>
    <path class="cls-8" d="M388.81,565.66c.05.47.26.93.56,1.29.08.1.28.12.39.12.18,0,.4-.04.57-.11.14-.06.31-.14.39-.28.06-.1.08-.2,0-.3s-.16-.2-.22-.31l.05.09c-.16-.27-.26-.58-.29-.89-.01-.12-.2-.18-.28-.2-.17-.04-.38-.01-.54.03s-.36.12-.48.24c-.09.09-.16.18-.14.31h0Z"/>
    <path class="cls-8" d="M389.48,569.36l.49.81s.1.08.17.1c.07.03.15.05.23.05.1,0,.19,0,.28-.03.1-.01.2-.04.29-.08l.16-.09c.09-.05.16-.12.22-.21l.05-.11c.02-.08,0-.15-.06-.21l-.49-.81s-.1-.08-.17-.1c-.07-.03-.15-.05-.23-.05-.1,0-.19,0-.28.03-.1.01-.2.04-.29.08l-.16.09c-.09.05-.16.12-.22.21l-.05.11c-.02.08,0,.15.06.21h0Z"/>
    <path class="cls-8" d="M390.42,572.57v.3s.05.08.09.1c.05.04.11.06.18.06.08.01.17.01.25,0,.1,0,.19-.02.29-.05l.19-.06c.11-.04.21-.1.3-.16l.1-.09c.05-.05.07-.11.06-.18v-.3s-.05-.08-.09-.1c-.05-.04-.11-.06-.18-.06-.08-.01-.17-.01-.25,0-.1,0-.19.02-.29.05l-.19.06c-.11.04-.21.1-.3.16l-.1.09c-.05.05-.07.11-.06.18h0Z"/>
    <path class="cls-8" d="M391.02,575.64c-.04.14-.03.3-.01.44s.09.29.16.41c.05.06.1.1.17.13.07.04.15.06.24.07.1.01.19,0,.28-.02.1-.01.2-.04.29-.09l.16-.09c.09-.06.16-.14.21-.24l.04-.13c.01-.09-.01-.18-.07-.25,0-.01-.02-.03-.02-.04l.06.12c-.05-.1-.08-.2-.08-.31v.13c0-.08.01-.17.03-.25.01-.07,0-.14-.04-.19-.02-.07-.07-.12-.13-.16-.07-.05-.14-.07-.22-.08-.09-.02-.18-.03-.27-.02l-.2.03c-.13.03-.24.09-.35.16l-.13.11c-.07.07-.11.16-.13.26h0Z"/>
    <path class="cls-8" d="M391.62,579.06v.4c-.01.07,0,.12.03.17.02.06.07.11.13.14.07.04.14.06.22.07.09.02.18.02.27.01l.2-.04c.13-.03.24-.09.35-.16l.13-.11c.07-.07.11-.15.14-.24v-.4c.01-.07,0-.12-.03-.17-.02-.06-.07-.11-.13-.14-.07-.04-.14-.06-.22-.07-.09-.02-.18-.02-.27-.01l-.2.04c-.13.03-.24.09-.35.16l-.13.11c-.07.07-.11.15-.14.24h0Z"/>
    <path class="cls-8" d="M392.1,582.39l.21.8s.05.08.09.1c.05.03.11.05.17.05.08.01.17,0,.25,0,.1,0,.19-.02.29-.05.17-.05.35-.11.49-.22.07-.06.19-.15.16-.26l-.21-.8s-.05-.08-.09-.1c-.05-.03-.11-.05-.17-.05-.08-.01-.17,0-.25,0-.1,0-.19.02-.29.05-.17.05-.35.11-.49.22-.07.06-.19.15-.16.26h0Z"/>
    <path class="cls-8" d="M392.86,585.61l.2.4c.05.06.1.1.17.12.07.04.15.06.23.06.1.01.19,0,.28-.02.1-.01.2-.04.29-.09l.16-.09c.09-.06.16-.14.22-.23l.04-.13c.01-.09,0-.17-.07-.24l-.2-.4c-.05-.06-.1-.1-.17-.12-.07-.04-.15-.06-.23-.06-.1-.01-.19,0-.28.02-.1.01-.2.04-.29.09l-.16.09c-.09.06-.16.14-.22.23l-.04.13c-.01.09,0,.17.07.24h0Z"/>
    <path class="cls-8" d="M394.02,588.59c.02.14.09.28.16.4.03.04.06.08.09.12.05.05.1.09.15.14.02.02.04.03.06.05.07.04.14.07.22.08.09.02.18.03.27.02.1,0,.2-.03.29-.07.09-.03.18-.07.25-.13l.13-.11c.07-.07.11-.16.13-.25v-.13c-.03-.09-.09-.16-.17-.21-.02-.02-.05-.03-.07-.05l.1.09c-.07-.06-.13-.14-.17-.22l.06.12c-.04-.07-.06-.15-.07-.23-.02-.07-.05-.12-.11-.16-.05-.05-.11-.09-.19-.11-.08-.03-.17-.04-.26-.03-.1,0-.19,0-.29.03l-.19.07c-.11.05-.21.12-.29.2l-.09.12c-.05.08-.06.17-.04.26h0Z"/>
    <path class="cls-8" d="M395.13,592.4c0,.32.13.62.35.86.05.03.1.04.15.05.07.01.15.02.22,0,.09,0,.19-.02.28-.04.1-.02.19-.05.29-.08l.17-.07c.09-.04.17-.09.24-.16l.06-.08c.02-.05.01-.09-.03-.13-.02-.02-.04-.05-.06-.07l.04.06c-.16-.21-.24-.47-.24-.73-.02-.04-.05-.07-.09-.08-.05-.03-.11-.04-.17-.04-.08,0-.16,0-.25.01-.1,0-.19.03-.28.05-.17.05-.35.1-.49.21l-.1.08s-.07.09-.07.15h0Z"/>
    <path class="cls-8" d="M395.97,596.11l1.3,1.51c.09.1.27.13.39.14.18,0,.4-.03.57-.11.14-.06.31-.15.39-.29.06-.1.08-.22,0-.32l-1.3-1.51c-.09-.1-.27-.13-.39-.14-.18,0-.4.03-.57.11-.14.06-.31.15-.39.29-.06.1-.08.22,0,.32h0Z"/>
    <path class="cls-8" d="M398.53,599.51l.2.4c.02.07.05.12.11.15.05.05.11.08.19.1.08.02.17.03.26.03.1,0,.19,0,.29-.04l.19-.07c.11-.05.21-.11.29-.2l.09-.12c.05-.08.06-.16.04-.24l-.2-.4c-.02-.07-.05-.12-.11-.15-.05-.05-.11-.08-.19-.1-.08-.02-.17-.03-.26-.03-.1,0-.19,0-.29.04l-.19.07c-.11.05-.21.11-.29.2l-.09.12c-.05.08-.06.16-.04.24h0Z"/>
    <path class="cls-8" d="M400.13,602.11c.01.22.09.43.22.61.08.1.16.2.26.28.11.09.23.14.36.2.07.02.14.02.2.02.09,0,.17,0,.26-.02.18-.03.39-.09.55-.17l.14-.08c.07-.04.12-.09.16-.16v-.07c-.02-.05-.06-.09-.12-.1-.01,0-.03-.01-.04-.02l.09.04c-.18-.08-.33-.2-.45-.36l.04.06c-.13-.18-.21-.39-.23-.61,0-.09-.21-.11-.26-.12-.17-.01-.37.02-.53.07s-.35.1-.49.21c-.08.06-.17.12-.17.23h0Z"/>
    <path class="cls-8" d="M402.02,606.13c.34.79.81,1.52,1.39,2.15.08.09.28.09.38.09.18,0,.4-.05.57-.12.15-.06.61-.28.41-.5-.28-.3-.53-.62-.75-.97l.05.07c-.23-.35-.43-.72-.59-1.11-.05-.11-.16-.14-.27-.15-.17-.02-.37,0-.54.05s-.35.11-.49.22c-.07.06-.2.17-.16.27h0Z"/>
    <path class="cls-8" d="M404.03,610.12c.03.37.04.73.02,1.1v-.09c-.01.27-.04.54-.08.8-.04.29.42.27.61.24s.38-.08.55-.18c.1-.06.27-.15.28-.27.1-.66.12-1.33.07-1.99,0-.1-.2-.15-.27-.16-.17-.03-.37,0-.54.05s-.35.11-.49.23c-.09.07-.16.15-.15.27h0Z"/>
    <path class="cls-8" d="M278.35,521.91l1.45.08c.2.01.39,0,.57-.1.14-.07.31-.2.37-.35.05-.14.06-.29-.03-.42s-.26-.21-.42-.22l-1.45-.08c-.2-.01-.39,0-.57.1-.14.07-.31.2-.37.35-.05.14-.06.29.03.42s.26.21.42.22h0Z"/>
    <path class="cls-8" d="M282.23,521.44h.48c.18,0,.36-.03.53-.07.09-.02.19-.05.27-.09.08-.03.15-.06.22-.11l.1-.07s.07-.08.07-.14l-.04-.05c-.07-.03-.14-.05-.21-.05h-.48c-.18,0-.36.03-.53.07-.09.02-.19.05-.27.09-.08.03-.15.06-.22.11l-.1.07s-.07.08-.07.14l.04.05c.07.03.14.05.21.05h0Z"/>
    <path class="cls-8" d="M287.55,521.86h.64c.1,0,.2-.03.29-.07.09-.03.18-.07.25-.13.07-.05.13-.11.17-.19.05-.06.08-.13.08-.21v-.14c-.04-.1-.1-.18-.18-.23l-.14-.07c-.11-.04-.23-.06-.36-.05h-.64c-.1,0-.2.03-.29.07-.09.03-.18.07-.25.13-.07.05-.13.11-.17.19-.05.06-.08.13-.08.21v.14c.04.1.1.18.18.23l.14.07c.11.04.23.06.36.05h0Z"/>
    <path class="cls-8" d="M291.71,521.92c.07,0,.15-.01.22-.01h-.18c.15,0,.31.01.46.03l-.16-.03c.1.01.19.03.29.06.17.05.37.03.54-.02.1-.02.19-.06.27-.11.08-.04.15-.09.21-.15.08-.09.18-.22.13-.35s-.16-.2-.29-.23c-.43-.11-.88-.14-1.31-.09-.19.02-.39.09-.55.19-.07.04-.13.09-.17.16-.05.05-.08.11-.09.17v.12c.03.08.08.14.16.18.15.08.32.09.48.07h0Z"/>
    <path class="cls-8" d="M296.48,521.83h.97c.1,0,.2-.03.29-.07.09-.03.18-.07.25-.13.07-.05.13-.11.17-.18.05-.06.08-.13.08-.2,0-.14-.05-.28-.17-.36l-.14-.07c-.11-.04-.23-.05-.35-.04h-.97c-.1,0-.2.03-.29.07-.09.03-.18.07-.25.13-.07.05-.13.11-.17.18-.05.06-.08.13-.08.2,0,.14.05.28.17.36l.14.07c.11.04.23.05.35.04h0Z"/>
    <path class="cls-8" d="M301.7,521.18c.15,0,.3,0,.44.02.07,0,.14,0,.2.01.11,0-.09,0,.01,0,.04,0,.08,0,.12.01.29.03.58.08.86.14.14.03.32,0,.46-.02.18-.03.38-.09.55-.17.1-.05.26-.11.3-.21.04-.09-.04-.12-.12-.14-.62-.13-1.26-.2-1.89-.21-.18,0-.36.03-.53.08s-.35.1-.5.2c-.06.04-.2.11-.17.2s.19.09.25.09h0Z"/>
    <path class="cls-8" d="M309.58,521.92l1.85.09c.2.01.39,0,.57-.1.14-.07.31-.21.37-.36.05-.14.06-.3-.04-.43s-.26-.22-.42-.23l-1.85-.09c-.2-.01-.39,0-.57.1-.14.07-.31.21-.37.36-.05.14-.06.3.04.43s.26.22.42.23h0Z"/>
    <path class="cls-8" d="M315.17,521.97h1.45c.19,0,.39-.03.57-.11.13-.06.31-.16.39-.29.05-.1.09-.22,0-.31-.1-.1-.26-.14-.39-.14h-1.45c-.19,0-.39.03-.57.11-.13.06-.31.16-.39.29-.05.1-.09.22,0,.31.1.1.26.14.39.14h0Z"/>
    <path class="cls-8" d="M322.64,522.07h1.53c.19,0,.4-.05.57-.12.12-.05.31-.14.4-.25.05-.08.1-.18.01-.25-.1-.09-.26-.09-.38-.09h-1.53c-.19,0-.4.05-.57.12-.12.05-.31.14-.4.25-.05.08-.1.18-.01.25.1.09.26.09.38.09h0Z"/>
    <path class="cls-8" d="M328.04,522.18h1.53c.19,0,.39-.04.57-.12.13-.05.31-.15.39-.27.05-.09.09-.2,0-.28-.1-.09-.26-.11-.39-.11h-1.53c-.19,0-.39.04-.57.12-.13.05-.31.15-.39.27-.05.09-.09.2,0,.28.1.09.26.11.39.11h0Z"/>
    <path class="cls-8" d="M334.23,522.62h1.29c.18,0,.4-.05.57-.12.12-.05.31-.14.4-.25.05-.07.1-.17.01-.25-.1-.08-.26-.09-.38-.09h-1.29c-.18,0-.4.05-.57.12-.12.05-.31.14-.4.25-.05.07-.1.17-.01.25.1.08.26.09.38.09h0Z"/>
    <path class="cls-8" d="M338.17,522.61h1.53c.18,0,.4-.06.57-.12.12-.05.31-.13.4-.25.05-.07.1-.17.02-.24-.1-.08-.26-.08-.38-.08h-1.53c-.18,0-.4.06-.57.12-.12.05-.31.13-.4.25-.05.07-.1.17-.02.24.1.08.26.08.38.08h0Z"/>
    <path class="cls-8" d="M343.57,522.81h1.45c.19,0,.39-.05.57-.12.12-.05.31-.15.39-.27.05-.08.1-.19,0-.27-.1-.09-.26-.11-.39-.11h-1.45c-.19,0-.39.05-.57.12-.12.05-.31.15-.39.27-.05.08-.1.19,0,.27.1.09.26.11.39.11h0Z"/>
    <path class="cls-8" d="M349.54,522.88h1.29c.2,0,.39-.03.57-.11.13-.06.31-.17.38-.3.05-.1.08-.23,0-.33-.1-.1-.26-.15-.4-.15h-1.29c-.2,0-.39.03-.57.11-.13.06-.31.17-.38.3-.05.1-.08.23,0,.33.1.1.26.15.4.15h0Z"/>
    <path class="cls-8" d="M354.58,522.96l1.69.1c.17.01.36-.02.53-.07s.36-.11.49-.21c.06-.04.21-.13.17-.22-.04-.09-.17-.1-.26-.11l-1.69-.1c-.17-.01-.36.02-.53.07s-.36.11-.49.21c-.06.04-.21.13-.17.22.04.09.17.1.26.11h0Z"/>
    <path class="cls-8" d="M360.8,523.49h1.61c.19,0,.39-.04.57-.11.13-.05.31-.16.39-.28.05-.09.09-.21,0-.3-.1-.1-.26-.13-.39-.13h-1.61c-.19,0-.39.04-.57.11-.13.05-.31.16-.39.28-.05.09-.09.21,0,.3.1.1.26.13.39.13h0Z"/>
    <path class="cls-8" d="M365.41,523.29c.69.19,1.45.06,2.07-.27.07-.03.13-.08.18-.13.05-.03.08-.08.1-.14.03-.1-.04-.18-.13-.21-.15-.05-.32-.04-.47-.02-.19.03-.38.09-.55.18-.02.01-.04.02-.06.03l.17-.08c-.05.02-.11.05-.17.07l.19-.06s-.09.03-.14.04l.2-.04c-.06.01-.12.02-.18.03l.18-.02c-.07,0-.13,0-.2,0h.16c-.08,0-.17,0-.25-.03l.13.03s-.05-.01-.07-.02c-.16-.04-.31-.04-.47-.02-.18.03-.39.09-.55.18l-.13.09c-.07.05-.12.11-.15.18v.09c.02.06.07.1.13.12h0Z"/>
    <path class="cls-8" d="M369.97,523.07h.97c.19,0,.39-.04.57-.11.08-.03.16-.07.23-.13.06-.04.12-.09.16-.15.05-.09.09-.2,0-.29-.1-.09-.26-.12-.39-.12h-.97c-.19,0-.39.04-.57.11-.08.03-.16.07-.23.13-.06.04-.12.09-.16.15-.05.09-.09.2,0,.29.1.09.26.12.39.12h0Z"/>
    <path class="cls-8" d="M373.13,523.16h1.77c.2,0,.38-.02.57-.1.13-.06.31-.18.38-.32.05-.12.08-.26-.02-.37s-.26-.18-.41-.18h-1.77c-.2,0-.38.02-.57.1-.13.06-.31.18-.38.32-.05.12-.08.26.02.37s.26.18.41.18h0Z"/>
    <path class="cls-8" d="M378.76,523.45h.64c.1,0,.19,0,.28-.02.1-.01.2-.04.29-.08.08-.03.16-.08.23-.14.06-.04.12-.1.16-.17l.05-.12c.01-.08,0-.16-.06-.22l-.1-.08c-.09-.05-.19-.08-.3-.08h-.64c-.1,0-.19,0-.28.02-.1.01-.2.04-.29.08-.08.03-.16.08-.23.14-.06.04-.12.1-.16.17l-.05.12c-.01.08,0,.16.06.22l.1.08c.09.05.19.08.3.08h0Z"/>
    <path class="cls-5" d="M444.07,687.58s1.72.45.87,10.79l-2.09,6.45c-.1.34-3.64,11.03-3.7,13.63-.06,2.78-2.95,10.01-3.76,12.21-.81,2.2-6.09,6.25-7.1,6.95s-5.87-.58-6.21-1.62-.4-2.46.93-2.84,5.01-4.28,5.01-4.28l2.01-4.89c.13-.25.21-.52.23-.8.1-1.17,1.13-4.7,2.6-7.69.44-.9.06-3.3.06-3.3"/>
    <path class="cls-5" d="M423.79,710.44s1.44-4.86.99-5.63"/>
    <polyline class="cls-5" points="443.98 701.3 443.39 712.42 439.14 718.45"/>
    <path class="cls-7" d="M329.39,247.1s5.94,4.03,1.76,12.56l-3.92,9.77s-1.75,1.13-.97,4.26c0,0,.72,2.57,3.09,3.05,0,0,.98.07,1.25-.42,0,0,.95-1.5,2.63.42,0,0,2.93,3.24,5.93,1.13l2.23-1.89s1.68-1.71,4.22-1.16c0,0,1.99.19,2.38-3.67"/>
    <path class="cls-7" d="M299.69,274.09s.68,1.08.29,1.84"/>
    <path class="cls-5" d="M230.26,626.29l1.67,19.83s-2.5,7.79-1.67,12.22-.33,15.59-.17,17.9-3.85,21.27-3,26.33c0,0,.42,47.6,1.47,48.86l2.11,50.76.6,6.14s-2.09.85-1.24,5.11c0,0,.54,7.51-.15,9.06,0,0-1.3,4.1,2.06,5.88,0,0-3.84,9.6-3.53,13.16,0,0-1.55,6.97.31,8.82l-3.79,12.85s-1.7,18.58-1.08,21.98l7.16,77.39s.53,5.67,2.13,8.68c0,0-3.09,18.32,0,24.21,0,0,4.43,13.27,8.99,14.87,0,0-4.56,21.98,0,28.01,0,0,35.91-3.81,39.68,1.58,0,0,5.48-.07,5.87-1.04s6.37-15.92,2.41-19.78l4.78-53.35.77-35.12.39-24.02-1.25-19.59s-.1-13.03-1.93-14.86c0,0,4.73-.68,4.25-6.37v-17.37s2.22-6.37.87-10.9c0,0,3.47-7.62,2.51-10.23l2.32-8.88s3.18-5.31,3.47-12.83l1.54-9.74s3.67-10.61,3.09-13.7l.68-9.94,3.83-45.75s5.41-32.68,12.02-35.21c2.78-1.06,2.61-4.68,2.61-4.68l-.5-16.12c12.47.66,15.56-13.37,16.18-24.73"/>
    <path class="cls-5" d="M433.51,733.17c1.69,2.3-2.65,56.77-4.1,60.46s.64,25.52.64,25.52c3.53,6.9.16,17.98.16,17.98-3.37,5.3,2.07,7.5,2.07,7.5,3.85,2.01.98,72.62.98,72.62-.84.72-.84,13.61-.84,13.61,1.81,2.53-5.63,31.07-5.63,31.07,1.24,1.57,0,21.41,0,21.41l-4.14,22.51c.79,9.08-5.82,16.68-5.82,16.68,2.37,1.78,1.09,8.78,1.09,8.78v12.44l.59,5.82c1.18,2.67-5.96,2.51-5.96,2.51-11.65-6.42-37.49,2.62-37.49,2.62-6.33,4.64-5.97.4-5.97.4-1.19-2.15-.96-7.16-.96-7.16,6.69-14.33-1.64-29.42-1.64-29.42-2.39-9.08-1.91-24.84-1.91-24.84l.96-35.11-1.43-24.12,4.3-37.02c-1.67-2.39-2.15-42.03-2.15-42.03-5.73-6.45-14.33-69.26-14.33-69.26l-10.27-31.29c-4.54-4.3-6-48.2-6-48.2-.24-9.31-8.28-15.39-8.28-15.39,0,0-3.03-22-1.58-47.25"/>
    <path class="cls-5" d="M370.77,1056.86v4.06l-.83,4.86-.41,2.38v4.55l-1.55,13.24s-1.86,14.48-.72,19.55c0,0,8.79,5.38,9.1,5.28,0,0,.52,12.52,6.93,13.97,0,0,31.97,6.89,48.77,0,0,0,6.42-.9,3.11-12.82l-2.87-11.59-7.36-12.56-9.18-16.8-1.94-9.43-5.17-6.33s1.01-3.02-1.3-4.48"/>
    <path class="cls-5" d="M376.36,1110.78v-3.07s.71,1.69,5,3.08c6.42,2.09,20.86,3.51,52.94-2.39"/>
    <path class="cls-5" d="M381.36,1110.79s3.96-13.53,9.84-15.58c0,0,7.65-3.15,7.65-5.95"/>
    <path class="cls-5" d="M433.24,1104.15s-11.16-8.52-19.09-9.61c0,0-6.42-1.78-6.29-3.28"/>
    <path class="cls-5" d="M376.36,1107.71s-1.77-10.48-1.23-11.55c0,0-2.65-3.95-7.78-4.19"/>
    <path class="cls-5" d="M287.65,1038.91s9.19,27.32,3.11,33.98c0,0-11.2,9.2-11.2,19.78,0,0,4.54,18.74-15.52,21.5,0,0-38.58,5.63-39.39-3.79,0,0-.8-12.53,0-14.83,0,0,30.69,12.96,54.91-2.87"/>
    <path class="cls-5" d="M242.1,1038.37c-7,26.52-5.69,28.47-5.69,28.47-.89,4.95-5.2,11.8-5.2,11.8-2.41,3.3-6.56,16.9-6.56,16.9,0,0,6.44-12.67,19.82-14.22,0,0,2.15,0,2.51-1.67"/>
    <path class="cls-5" d="M255.71,1078.69s2.27,4.06,8.12,4.9c0,0,10.18,7.77,10.64,11.95"/>
    <path class="cls-8" d="M241.95,1078.81c3.53-.11,7.04.23,10.54-.43s6.84-1.54,10.25-2.33c.41-.1,1.42-.51,1.26-1.09s-1.25-.4-1.64-.31c-3.15.73-6.29,1.57-9.47,2.18s-6.53.29-9.81.39c-.62.02-1.57.19-1.91.78s.28.84.78.82h0Z"/>
    <path class="cls-8" d="M243.72,1071.74c7.44-.25,14.39-3.17,21.72-4.07.64-.08,1.52-.44,1.59-1.19.07-.71-.76-1.05-1.35-.98-7.33.9-14.31,3.83-21.72,4.07-1.66.05-2.22,2.23-.25,2.16h0Z"/>
    <path class="cls-8" d="M244.41,1066.75c8.35-.52,15.78-5.8,24.19-5.59.6.02,1.62-.2,1.91-.82s-.24-.93-.81-.94c-8.77-.22-16.31,5.08-24.93,5.62-.53.03-1.56.4-1.63,1.03-.08.68.81.73,1.27.7h0Z"/>
    <path class="cls-8" d="M243.84,1059.13c4.09-.31,7.73-2.44,11.68-3.41,4.14-1.01,8.43-1.22,12.66-.77.64.07,1.55-.13,2.05-.55.41-.35.41-.69-.2-.75-4.21-.45-8.48-.28-12.63.53-2.04.4-4.05.94-6.02,1.62s-4.11,1.85-6.32,2.02c-.54.04-1.63.19-1.93.72s.25.62.71.59h0Z"/>
    <path class="cls-8" d="M243.34,1052.64c2.43.08,4.65-.6,6.86-1.56,2.38-1.03,4.72-2.04,7.23-2.71s4.93-1.03,7.45-1.16c2.34-.12,4.88-.2,6.82,1.3.99.77,3.54-.64,2.24-1.65-1.83-1.42-4.14-1.75-6.39-1.78-2.68-.03-5.35.24-7.98.74s-5.12,1.26-7.57,2.24-4.94,2.59-7.65,2.5c-.67-.02-1.6.18-1.89.88-.26.62.24,1.17.88,1.19h0Z"/>
    <path class="cls-8" d="M243.8,1046.55c4.45-1.76,9-3.57,13.76-4.25s9.4.32,14.1,1.79c.67.21,1.58,0,2.05-.55.42-.5.29-1.12-.35-1.32-5.13-1.61-10.11-2.7-15.51-1.93-5.31.76-10.34,2.7-15.3,4.66-.53.21-1.1.86-.7,1.42.42.59,1.41.39,1.96.18h0Z"/>
    <path class="cls-8" d="M265.87,1041.78c-3.23-.54-6.48.61-9.17,2.34s-4.73,3.85-7.4,5.33c-.42.23-.84.75-.27,1.06s1.53,0,2.05-.29c2.32-1.28,4.28-3.06,6.4-4.62,1.9-1.41,4.16-2.73,6.6-2.31.67.11,1.54-.09,2.05-.55.43-.39.36-.85-.26-.95h0Z"/>
    <path class="cls-8" d="M262.1,1047.37c-1.91,1.71-3.76,3.58-5.94,4.94-1.09.68-2.2,1.29-3.26,2.02s-2.16,1.59-3.22,2.42c-.43.34-.37.69.2.75.64.07,1.53-.15,2.05-.55,1.06-.83,2.12-1.66,3.22-2.42s2.31-1.42,3.45-2.15c2.25-1.43,4.17-3.38,6.15-5.16.51-.46-.44-.6-.71-.59-.68.03-1.42.26-1.93.72h0Z"/>
    <path class="cls-8" d="M260.67,1054.12c-1.4.07-2.47.92-3.33,1.96-.79.96-1.62,1.63-2.53,2.43s-1.65,1.77-2.37,2.76c-.32.44-.62.85-.97,1.27-.17.2-.35.4-.53.59-.25.25-.33.33-.56.5-.44.34-.8.97-.19,1.36s1.55.18,2.07-.21c1.82-1.4,2.78-3.45,4.37-5.03.79-.79,1.74-1.42,2.54-2.29.33-.36.62-.75.95-1.12.07-.08.15-.15.22-.23.25-.27-.17.11.12-.1.27-.2-.22.06.09-.05-.08.03-.5.1-.19.09.59-.03,1.52-.43,1.62-1.1.1-.71-.81-.85-1.31-.82h0Z"/>
    <path class="cls-8" d="M256.77,1063.92c-.64,1.19-1.42,2.29-2.33,3.3-.23.25-.47.5-.71.74-.12.12-.25.24-.37.35-.06.06-.13.11-.19.17-.12.11,0,0-.07.06-.53.46-1.09.88-1.67,1.27-.13.09-.37.31-.32.5s.37.26.53.27c.7.06,1.47-.16,2.05-.55,2.5-1.67,4.55-3.93,5.97-6.58.1-.19-.12-.33-.26-.38-.27-.1-.66-.07-.93-.02-.57.1-1.38.31-1.68.86h0Z"/>
    <path class="cls-8" d="M255.69,1069.27c-2.54,2.86-5.43,5.4-8.63,7.52-.1.06-.39.25-.34.42s.39.19.51.2c.66.03,1.5-.18,2.05-.55,3.33-2.21,6.38-4.83,9.03-7.82.41-.46-.37-.49-.68-.46-.57.06-1.53.22-1.94.69h0Z"/>
    <path class="cls-8" d="M392.86,1090.48c3.45.35,6.84-.33,10.28-.61,2.88-.23,5.84-.04,8.3,1.62.94.63,3.55-.7,2.26-1.56-6.02-4.05-13.21-.69-19.78-1.36-.64-.07-1.59.22-1.9.85s.27,1.01.84,1.07h0Z"/>
    <path class="cls-8" d="M390.99,1086.45c5.98.34,12.86-1.38,18.17,2.23.99.67,3.57-.71,2.25-1.61-5.78-3.92-12.88-2.25-19.39-2.61-.67-.04-1.58.2-1.89.86-.29.62.26,1.1.86,1.13h0Z"/>
    <path class="cls-8" d="M389.98,1080.6c7.11.48,15.02-1.3,21.45,2.63.93.57,3.56-.74,2.27-1.53-6.87-4.19-15.07-2.44-22.66-2.96-.64-.04-1.59.21-1.9.84s.27.98.83,1.02h0Z"/>
    <path class="cls-8" d="M389.24,1077.82c4.01-.28,7.9-.93,11.8-1.84,3.09-.72,6.88-1.12,8.79,2.01.61.99,3.4-.03,2.67-1.22-1.97-3.23-6.23-3.61-9.61-3.04-2.12.36-4.19.98-6.31,1.35-2.33.42-4.68.66-7.04.82-.57.04-1.55.42-1.62,1.1s.78.86,1.3.82h0Z"/>
    <path class="cls-8" d="M385.95,1069.91c4.22.3,8.45.25,12.66-.19,1.03-.11,2.06-.23,3.09-.38s2.05-.41,3.04-.06c1.58.56,2.7,2.03,4.13,2.86.54.31,1.34.11,1.88-.1.16-.06,1.33-.65.83-.94-1.47-.85-2.59-2.24-4.17-2.91-1.81-.77-3.82-.29-5.68-.03-4.62.65-9.29.77-13.94.44-.65-.05-1.54.11-2.05.55-.4.34-.42.72.21.77h0Z"/>
    <path class="cls-8" d="M384.05,1064.61c7.97-.39,17.56-3.94,24.49,1.74.69.57,3.34-.55,2.71-1.06-7.43-6.09-17.49-2.5-26.02-2.09-.55.03-1.63.19-1.93.74s.25.69.74.67h0Z"/>
    <path class="cls-8" d="M381.55,1060.3c4.66-.5,8.83-2.7,13.38-3.65,5.1-1.06,9.32,1.35,13.46,4.03,1.14.74,3.63-.82,2.22-1.74-4.34-2.81-8.88-5.38-14.25-4.74-5.04.6-9.55,3.31-14.59,3.85-.64.07-1.53.46-1.58,1.22s.74,1.1,1.36,1.03h0Z"/>
    <path class="cls-8" d="M387.41,1058.8c1.77.87,3.35,2.02,5.07,2.98s3.72,1.4,5.73,1.26c.64-.05,1.5-.21,1.93-.74s-.36-.67-.73-.64c-1.75.13-3.36-.39-4.84-1.3-1.59-.97-3.13-1.97-4.8-2.8-.57-.28-1.53.05-2.04.33-.38.2-.89.63-.31.92h0Z"/>
    <path class="cls-8" d="M405.88,1067.35c-2.93-1.45-5.71-3.2-8.26-5.26-.54-.43-1.33-.39-1.94-.1-.31.15-1.29.84-.74,1.28,2.68,2.16,5.57,4.04,8.65,5.57.63.31,1.49.15,2.06-.24.4-.27.86-.95.22-1.26h0Z"/>
    <path class="cls-8" d="M406.73,1069.33c-2.62-.21-5.38-.2-7.57,1.46-.96.72-1.71,1.62-2.4,2.6-.32.45-.59.93-.92,1.37-.11.15-.23.28-.35.41-.07.07,0,.03-.14.12l.07-.03c-.24.1-.17.09.22-.04-.59.1-1.51.38-1.62,1.09-.1.67.8.9,1.3.82,1.37-.24,2.35-.91,3.16-2.03.6-.83,1.1-1.71,1.79-2.47.31-.34.64-.65,1.02-.9s.71-.38,1.17-.48c.92-.2,2.17-.09,3.21,0,.66.05,1.57-.22,1.9-.85s-.29-1.02-.84-1.07h0Z"/>
    <path class="cls-8" d="M396.45,1076.5c.46.62,1.2.89,1.88,1.17s1.39.54,2.09.77c1.5.48,3.04.82,4.6,1.06.65.1,1.58-.25,1.9-.86.33-.65-.3-1.02-.85-1.1-1.26-.19-2.49-.47-3.8-.89-.64-.2-1.27-.43-1.9-.68-.16-.06-.31-.13-.47-.19-.09-.04-.18-.08-.26-.11.09.04.09.04.02,0-.12-.06-.23-.13-.35-.2-.1-.08-.12-.09-.05-.04-.05-.05-.1-.11-.14-.17-.41-.55-1.43-.42-1.95-.16-.48.24-1.14.81-.71,1.39h0Z"/>
    <path class="cls-8" d="M405.28,1080.14c-2.62.64-5.14,1.76-7.34,3.33-.11.08-.38.27-.33.46s.38.23.52.23c.66.04,1.5-.16,2.05-.55.46-.32.92-.63,1.4-.91.12-.07.13-.07.02-.01.06-.04.13-.07.2-.11.13-.07.26-.14.39-.21.23-.12.47-.23.7-.34.13-.06.27-.13.41-.18-.32.13.04-.01.08-.03.28-.11.56-.22.84-.31.11-.04.21-.07.32-.11.16-.05.14-.05-.06.02.07-.02.14-.04.21-.06.29-.08.57-.16.86-.23.33-.08.71-.23.99-.42.11-.08.38-.27.33-.46-.13-.47-1.34-.16-1.58-.1h0Z"/>
    <path class="cls-8" d="M398.89,1087.2c.81,0,1.62,0,2.43,0,.2-.01.4-.06.58-.14.18-.05.35-.14.51-.26.22-.16.49-.47.51-.76s-.09-.55-.35-.71c-.3-.19-.63-.22-.99-.22h-2.43c-.2.01-.4.06-.58.14-.18.05-.35.14-.51.26-.22.16-.49.47-.51.76s.09.55.35.71c.3.19.63.22.99.22h0Z"/>
    <path class="cls-8" d="M327.71,197.13c-.23-2.22.34-4.48,1.61-6.31s3.07-3.1,4.84-4.35c.24-.17.37-.49.09-.69s-.78-.08-1.03.1c-1.95,1.37-3.9,2.83-5.28,4.81s-1.94,4.43-1.69,6.83c.06.6,1.52.26,1.45-.39h0Z"/>
    <path class="cls-8" d="M327.02,190.44c-.29-2.01,1.47-3.61,2.95-4.66,1.62-1.15,3.48-1.94,5.44-2.3.12-.02.4-.09.41-.25s-.2-.18-.31-.16c-2.19.41-4.29,1.27-6.1,2.57-1.58,1.14-3.41,2.84-3.11,4.99.03.25.76.08.72-.19h0Z"/>
    <path class="cls-8" d="M328.28,197.24c1.47-1.59,3.21-2.83,5.06-3.95s3.88-2.33,5.93-3.24c1.1-.48,2.23-.88,3.42-1.08s2.44-.08,3.67-.09c1.52,0,3.06-.29,4.16-1.43.29-.3-.41-.29-.58-.12-1.73,1.8-4.55.9-6.77,1.18-1.91.25-3.72.97-5.43,1.83-3.54,1.79-7.32,3.83-10.03,6.77-.29.31.42.29.58.12h0Z"/>
    <path class="cls-8" d="M329.64,193.21c1.58-3.34,6.01-4.1,9.26-4.78,4.23-.88,8.55-1.25,12.86-1.14.35,0,.74-.52.25-.53-4.74-.12-9.46.32-14.09,1.35-3.28.74-7.39,1.67-8.97,5.01-.18.38.55.38.69.09h0Z"/>
    <path class="cls-8" d="M342.84,186.38c3.4-.12,6.48-1.91,9.88-1.98,1.83-.04,3.32.61,4.74,1.72.57.45,1.16.91,1.58,1.51.64.91.48,1.74-.18,2.58-.19.24.53.17.67,0,.46-.58.82-1.2.63-1.97s-.77-1.34-1.31-1.82c-1.26-1.12-2.67-2.07-4.37-2.32-3.93-.59-7.48,1.75-11.35,1.89-.25,0-.77.4-.29.38h0Z"/>
    <path class="cls-8" d="M350.3,185.67c1.46.19,3.16-.4,4.5.37,1.08.62,1.76,1.77,2.96,2.22.33.12.85-.35.41-.51-1.23-.46-1.91-1.72-3.07-2.29-1.43-.7-3.05-.15-4.56-.35-.37-.05-.73.49-.24.55h0Z"/>
    <path class="cls-8" d="M350.08,198.76c4.66.33,9.04-1.89,13.69-2,2.47-.06,5.05-.03,7.35,1,1.92.87,3.5,2.27,4.66,4.02.14.21.84-.03.67-.29-2.54-3.84-6.52-5.12-10.94-5.17-2.38-.03-4.69.18-7,.72-2.69.64-5.34,1.49-8.15,1.28-.29-.02-.76.4-.28.43h0Z"/>
    <path class="cls-8" d="M366.09,198.24c1.08-.1,2.2-.2,3.26.1.92.27,1.76.82,2.59,1.29,1.68.95,3.3,2.01,4.54,3.5.17.21.87-.06.67-.29-1.34-1.62-3.14-2.74-4.96-3.76-.88-.5-1.77-1.05-2.78-1.26-1.07-.22-2.16-.13-3.23-.03-.37.03-.59.48-.09.44h0Z"/>
    <path class="cls-8" d="M357.32,207.09c1.13.15,1.65-.95,2.55-1.38,1.26-.6,2.73-.88,4.11-.98,2.78-.21,5.58.45,7.99,1.84.26.15.9-.21.56-.4-2.28-1.33-4.87-2-7.51-1.98-1.32,0-2.64.2-3.91.57-.6.17-1.21.37-1.76.66-.49.26-1.21,1.25-1.78,1.18-.34-.05-.74.44-.26.5h0Z"/>
    <path class="cls-8" d="M364.21,215.08c4.19-.33,9.14-.14,11.85,3.59.2.28.89-.01.66-.33-2.85-3.92-8.05-4.17-12.46-3.82-.42.03-.55.6-.06.56h0Z"/>
    <path class="cls-8" d="M381.55,229.85c.19-2.49-1.02-4.56-2.98-6.02-2.1-1.56-4.32-3.08-6.72-4.13-.22-.1-.88.22-.57.36,2.3,1.01,4.41,2.46,6.44,3.93.97.7,1.86,1.51,2.42,2.58s.77,2.21.68,3.37c-.02.3.71.17.73-.09h0Z"/>
    <path class="cls-8" d="M366.74,223.2c3.03-.86,5.56,1.66,7.56,3.55,1.85,1.74,4.13,3.13,5.54,5.29.15.24.85-.02.67-.3-.8-1.22-1.88-2.18-2.99-3.1-1.17-.97-2.29-1.97-3.4-3-2.02-1.89-4.58-3.69-7.49-2.86-.44.12-.33.55.11.43h0Z"/>
    <path class="cls-8" d="M374.25,217.47c2.18-.53,4.42.7,5.89,2.24s2.31,3.44,2.53,5.49c.02.21.75.05.72-.19-.48-4.34-4.49-9-9.23-7.85-.43.1-.35.42.09.32h0Z"/>
    <path class="cls-8" d="M364.31,213.53c7.24-1.3,14.92,2.15,18.87,8.32.12.18.79-.1.72-.19-4.1-6.4-12-9.75-19.46-8.41-.29.05-.64.37-.13.28h0Z"/>
    <path class="cls-8" d="M329.2,211.98c-.92-4.15,1.72-8.01,4.26-11.04s5.72-5.72,9.18-7.8c.42-.25-.22-.31-.44-.18-3.55,2.13-6.75,4.81-9.41,7.98s-5.25,7.01-4.31,11.23c.05.22.78.04.72-.19h0Z"/>
    <path class="cls-8" d="M332.97,211.33c.39-3.65-.98-7.74,1.42-10.93,1.07-1.43,2.57-2.49,4.01-3.51,1.66-1.18,3.49-2.32,5.6-2.3.32,0,.75-.48.26-.48-1.88-.02-3.56.7-5.13,1.69-1.68,1.06-3.41,2.27-4.76,3.74s-2.04,3.2-2.16,5.18c-.13,2.23.26,4.46.02,6.69-.04.34.7.23.73-.07h0Z"/>
    <path class="cls-8" d="M333.61,210.86c.27-3.33-.75-6.9,1.2-9.9.84-1.3,2.02-2.34,3.19-3.34,1.46-1.24,3.13-2.74,5.18-2.52.16.02.83-.25.47-.29-1.61-.18-3.12.47-4.42,1.37-1.5,1.04-2.99,2.31-4.2,3.68s-1.95,2.92-2.13,4.73c-.22,2.15.15,4.31-.02,6.46,0,.09.71.02.72-.19h0Z"/>
    <path class="cls-8" d="M302.07,217.94c-3.01-.14-6.03-.57-9.04-.2-1.26.15-2.51.44-3.68.92-.74.3-2.35.88-2.11,1.94.06.24.78.06.72-.19-.25-1.08,2.35-1.73,3.11-1.93,1.15-.3,2.33-.43,3.52-.47,2.41-.07,4.81.22,7.21.34.27.01.77-.38.28-.4h0Z"/>
    <path class="cls-8" d="M301.54,219.52h-5.07c-1.5-.01-3.13-.18-4.6.16-2.51.58-3.97,3.02-6.36,3.82-.43.14-.32.58.12.43,2.25-.76,3.65-2.88,5.85-3.67,1.49-.54,3.32-.29,4.89-.28h4.91c.31,0,.75-.46.27-.46h0Z"/>
    <path class="cls-8" d="M286.97,233.16l-.21-4.15c-.03-.6-.16-1.31.01-1.89s.75-.81,1.29-.99c.11-.03.35-.13.31-.28s-.31-.12-.41-.09c-.55.18-1.15.38-1.56.81-.46.49-.45,1.13-.42,1.76.08,1.68.17,3.35.26,5.03.01.24.74.09.72-.19h0Z"/>
    <path class="cls-8" d="M287.1,232.99c.26-2.11-.72-4.87.99-6.57.81-.81,1.97-1.37,2.99-1.88,1.14-.58,2.33-1.06,3.55-1.45.42-.13.35-.43-.08-.29-1.23.39-2.42.86-3.58,1.43s-2.3,1.15-3.26,1.96c-2.1,1.76-1.05,4.59-1.33,6.92-.03.23.69.1.72-.11h0Z"/>
    <path class="cls-8" d="M285.27,231.9c-.09-1.45-.18-2.94.24-4.35.34-1.16,1.02-2.19,1.88-3.03,1.93-1.88,4.58-2.66,7.18-3.1.34-.06.6-.47.1-.39-2.77.47-5.64,1.29-7.74,3.26-.9.84-1.63,1.87-2.04,3.04-.54,1.53-.44,3.17-.34,4.76.01.22.74.08.72-.19h0Z"/>
    <path class="cls-8" d="M290.71,234.51c-.09-1.23-.18-2.5.22-3.68.34-1.01,1.06-1.85,1.9-2.5.89-.68,1.91-1.18,2.96-1.57s2.27-.5,3.27-1.07c.13-.08.18-.21.06-.31-.13-.11-.4,0-.51.06-.58.33-1.27.42-1.91.6s-1.23.38-1.82.63c-1.03.44-2.02.99-2.87,1.71-.8.68-1.46,1.53-1.8,2.53-.41,1.22-.31,2.54-.21,3.8.02.26.75.1.72-.19h0Z"/>
    <path class="cls-8" d="M285.84,221.78c.07-.69-.02-1.36,0-2.05.05-1.21.74-1.78,1.78-2.28,1.73-.83,3.58-1.42,5.48-1.77,3.6-.66,7.31-.42,10.81.64.18.05.82-.23.59-.3-3.89-1.18-8.03-1.35-12-.5-1.93.41-3.83,1.05-5.59,1.94-.67.34-1.35.74-1.63,1.47-.36.93-.06,1.99-.16,2.95-.02.21.7.07.72-.12h0Z"/>
    <path class="cls-8" d="M287.25,214.53c3,.07,5.97-.06,8.96-.18,2.59-.1,5.28,0,7.47,1.54.16.11.76-.19.69-.24-2.09-1.48-4.67-1.66-7.15-1.6-3.17.08-6.32.27-9.49.19-.14,0-.82.26-.48.27h0Z"/>
    <path class="cls-8" d="M304.89,211.27c-2.3.32-4.53.07-6.73-.67-1.58-.53-3.09-.91-4.77-.77-2.97.25-5.74,1.82-7.43,4.27-.21.3.53.28.68.05,1.8-2.61,4.97-4.13,8.14-3.85,1.75.16,3.34.99,5.05,1.33s3.31.34,4.96.11c.37-.05.58-.54.08-.47h0Z"/>
    <path class="cls-8" d="M380.38,240.15c-3.3-2.43-5.46-6.17-9.13-8.13-.21-.11-.87.19-.58.35,3.63,1.93,5.77,5.66,9.03,8.06.2.15.87-.14.67-.28h0Z"/>
    <path class="cls-8" d="M376.7,242.79c-1.8-.72-2.59-2.75-3.21-4.43-.13-.35-.85-.14-.72.19.68,1.85,1.55,3.96,3.52,4.75.17.07.4,0,.51-.14s.06-.31-.1-.37h0Z"/>
    <path class="cls-8" d="M371.76,242.66c.42.09.77.35,1.1.62.39.32.77.65,1.15.97.77.65,1.55,1.31,2.32,1.96.15.12.79-.16.68-.25-.8-.67-1.6-1.35-2.39-2.02-.38-.32-.76-.65-1.14-.96-.34-.27-.7-.51-1.13-.6-.16-.03-.36.02-.51.09-.06.03-.25.15-.09.19h0Z"/>
    <path class="cls-8" d="M373.1,250.06c.44.58.88,1.15,1.32,1.73.03.05.15.05.19.05.09,0,.2-.02.28-.06.09-.04.29-.14.2-.26-.44-.58-.88-1.15-1.32-1.73-.03-.05-.15-.05-.19-.05-.09,0-.2.02-.28.06-.09.04-.29.14-.2.26h0Z"/>
    <path class="cls-8" d="M373.14,248.96l1.69,1.68c.11.11.35.06.48,0,.08-.04.31-.17.2-.28l-1.69-1.68c-.11-.11-.35-.06-.48,0-.08.04-.31.17-.2.28h0Z"/>
    <path class="cls-8" d="M373.86,253.25c.41,0,.56-.51.07-.51-.41,0-.56.51-.07.51h0Z"/>
    <path class="cls-5" d="M284.24,631.71c18.29,7.2,44.91,15.51,66.86,14.23l64.49-11.94"/>
    <path class="cls-5" d="M261.93,621.69s4.69,2.26,11.47,5.27"/>
    <path class="cls-8" d="M264.66,622.48c-.11-1.09.06-2.2.48-3.2.16-.39-.56-.42-.7-.1-.46,1.11-.63,2.3-.51,3.5.02.18.3.2.43.17.17-.05.31-.18.29-.36h0Z"/>
    <path class="cls-8" d="M266.86,623.55c-.28-1.2-.07-2.48.59-3.52.09-.14-.08-.2-.19-.2-.15,0-.39.06-.48.2-.7,1.1-.93,2.45-.64,3.72.06.24.78.06.72-.19h0Z"/>
    <path class="cls-8" d="M286.53,632.37c.51-2.72,1.64-5.27,3.31-7.47.11-.14-.09-.23-.2-.24-.17-.01-.37.06-.48.2-1.69,2.23-2.85,4.83-3.36,7.59-.06.3.68.19.73-.08h0Z"/>
    <path class="cls-8" d="M288.34,632.8c-.54-2.68,2.14-4.57,2.74-6.98.03-.14-.67-.04-.71.13-.61,2.43-3.3,4.33-2.75,7.04.03.14.76-.03.72-.19h0Z"/>
    <path class="cls-8" d="M289.8,633.34c-.03-1.34.35-2.67,1.09-3.78.36-.54.82-.96,1.26-1.42.39-.41.74-.88.65-1.48-.04-.27-.77-.1-.72.19.1.63-.45,1.09-.86,1.48-.45.44-.85.92-1.17,1.46-.65,1.09-.99,2.35-.97,3.63,0,.32.73.18.73-.08h0Z"/>
    <path class="cls-8" d="M291.82,633.76c-.65-2.62,2.11-4.4,3.3-6.35.07-.11-.26-.07-.29-.07-.13.02-.35.07-.43.2-1.21,1.97-3.97,3.76-3.31,6.41.04.15.77-.03.72-.19h0Z"/>
    <path class="cls-8" d="M293.97,635.32c.01-2.92,1-5.79,2.79-8.1.15-.19-.55-.1-.66.04-1.83,2.36-2.84,5.26-2.86,8.25,0,.13.72.03.72-.19h0Z"/>
    <path class="cls-8" d="M417.86,629.47c.32-2.18-.35-4.42-1.82-6.06-.14-.16-.83.09-.68.27,1.42,1.59,2.08,3.79,1.77,5.91-.03.23.69.1.72-.11h0Z"/>
    <path class="cls-8" d="M416.21,631.04c.82-2.7-1.24-5.01-2.97-6.79-.19-.2-.88.08-.67.3,1.68,1.73,3.71,3.95,2.91,6.58-.09.29.65.19.73-.08h0Z"/>
    <path class="cls-8" d="M414.04,633.93c0-1.7.06-3.41,0-5.11-.05-1.54-1.13-2.73-2.13-3.81-.2-.21-.89.06-.67.3.5.54.97,1.11,1.39,1.72.48.69.67,1.36.68,2.2.02,1.59,0,3.18,0,4.78,0,.34.73.21.73-.07h0Z"/>
    <path class="cls-8" d="M411.25,634.46c-.14-1.9-.29-3.79-.43-5.69-.1-1.35-.16-3.27-1.84-3.56-.18-.03-.84.27-.46.33,1.66.28,1.53,2.73,1.62,3.96.13,1.71.26,3.43.39,5.14.01.17.74.03.72-.19h0Z"/>
    <path class="cls-8" d="M408.53,634.95c-.1-1.51.08-3.02,0-4.53s-.54-2.84-1.3-4.12c-.14-.24-.84,0-.67.3.78,1.31,1.2,2.69,1.25,4.22.05,1.44-.1,2.88,0,4.33.02.28.75.12.72-.19h0Z"/>
    <path class="cls-8" d="M406.04,635.26l-.09-5.22-.02-1.26c0-.32.02-.69-.07-1s-.33-.56-.55-.8c-.3-.32-.6-.64-.9-.96-.23-.24-.91.05-.66.32.26.28.53.56.79.84s.56.54.63.93c.14.74.04,1.59.06,2.34l.08,4.86c0,.38.74.27.73-.05h0Z"/>
    <path class="cls-5" d="M238.2,534.39s5.25,34.64,3.45,35.97c-4.17,3.1-1.03,7.45-1.03,7.45,3.91-2.23,5.66,5.52,5.66,5.52l1.53,4.58"/>
  </g>
</svg>