<svg width="99" height="88" viewBox="0 0 99 88" fill="none" xmlns="http://www.w3.org/2000/svg">
<path d="M89.2043 16.3453L88.6045 16.3534L88.641 19.0333L89.2407 19.0252L89.2043 16.3453Z" stroke="#F9EDD9" stroke-miterlimit="10"/>
<path d="M53.9209 8.08699L55.1896 78.6475L55.211 79.8947C55.211 79.8947 55.2134 80.0804 55.2991 80.3232C55.4562 80.7683 55.8941 81.3967 57.1176 81.38L78.7637 86.8713C78.7637 86.8713 82.7482 88.5779 81.4986 84.4434L80.6203 3.23602C80.6203 3.23602 81.0368 -0.553358 78.3495 1.37465L55.3229 7.44432C55.3229 7.44432 54.3946 7.38957 53.9209 8.08699Z" stroke="#F9EDD9" stroke-miterlimit="10"/>
<path d="M55.591 80.8232C55.8861 81.3255 53.4868 81.861 53.4868 81.861L8.85928 83.551C8.85928 83.551 4.8771 83.501 5.53405 77.9384L5.03896 10.6674C5.03896 10.6674 3.36801 3.45996 13.0366 5.42367L51.4088 6.68283C51.4088 6.68283 53.5987 6.74234 53.9176 8.08719" stroke="#F9EDD9" stroke-miterlimit="10"/>
<path d="M81.5635 86.6358L88.9423 86.343C88.9423 86.343 90.1348 85.7456 90.2705 85.4433C90.4062 85.141 90.2443 83.4605 90.2443 83.4605L93.8837 80.1877C93.8837 80.1877 95.1548 80.9303 95.6594 81.2255C96.164 81.5206 96.3021 81.4563 96.3021 81.4563C96.3021 81.4563 96.521 81.3135 96.5187 81.154C96.5187 81.154 97.3089 84.8458 94.2074 86.3311L88.8661 86.6834L88.8495 86.3787" stroke="#F9EDD9" stroke-miterlimit="10"/>
<path d="M95.2682 55.4567C99.8479 53.9786 96.6107 33.187 96.6107 33.187C96.6107 33.187 96.4488 31.8136 95.2801 31.7469C95.1778 31.7398 95.0659 31.7469 94.9445 31.7612L87.311 31.6398C87.311 31.6398 86.04 31.4303 85.752 33.5155L85.7781 35.4149H89.1272C89.1272 35.4149 88.6773 34.0629 90.3911 34.3557H93.5021C93.5021 34.3557 94.3637 34.4818 94.29 35.7957C94.29 35.7957 91.8073 46.3284 94.5327 50.4082C94.5327 50.4082 94.428 52.6266 93.7044 52.7265L89.8603 52.8694C89.8603 52.8694 89.1819 52.8337 89.2581 51.7911L85.9995 51.8363L86.0281 54.0071C86.0281 54.0071 86.1875 55.8352 87.2706 55.5614L95.2611 55.4519L95.6491 81.2207" stroke="#F9EDD9" stroke-miterlimit="10"/>
<path d="M94.8711 6.3732L95.2829 31.7468" stroke="#F9EDD9" stroke-miterlimit="10"/>
<path d="M88.1487 0.862841C96.6796 0.0035666 95.4918 6.08752 95.4918 6.08752L93.3115 6.98726L89.5007 4.32612L89.446 2.65042C89.446 2.65042 89.3841 0.965192 87.6084 0.903305L88.1487 0.865224V0.862841Z" stroke="#F9EDD9" stroke-miterlimit="10"/>
<path d="M79.9941 0.91031L87.611 0.900787" stroke="#F9EDD9" stroke-miterlimit="10"/>
<path d="M88.3913 73.4895L94.0658 72.7064C94.0658 72.7064 94.7037 72.8397 94.6585 72.2042L94.5942 67.3675C94.5942 67.3675 94.6537 66.6249 93.7707 66.6368L88.2984 66.7106C88.2984 66.7106 87.1345 66.7272 87.1416 67.2556L87.213 72.4446C87.213 72.4446 87.0964 73.6681 88.3937 73.4872L88.3913 73.4895Z" stroke="#F9EDD9" stroke-miterlimit="10"/>
<path d="M89.6758 68.6882L89.0498 68.6967L89.0869 71.4242L89.7129 71.4157L89.6758 68.6882Z" stroke="#F9EDD9" stroke-miterlimit="10"/>
<path d="M88.0091 21.0307L93.4647 20.8617C93.4647 20.8617 94.4263 21.2069 94.4096 19.8668L94.3549 15.8703C94.3549 15.8703 94.5548 14.7659 93.5004 14.6612L88.0853 14.3279C88.0853 14.3279 86.7666 14.1066 86.7285 14.873L86.9404 19.8716L86.9713 20.3976C86.9713 20.3976 86.7428 21.1902 88.0091 21.0307Z" stroke="#F9EDD9" stroke-miterlimit="10"/>
<path d="M56.8325 78.583L79.5235 83.9291L79.2783 4.04752L55.5186 10.0601L56.8325 78.583Z" stroke="#F9EDD9" stroke-miterlimit="10"/>
<path d="M56.8325 78.5832L62.1 78.2071L61.1741 10.2125L55.5186 10.0602" stroke="#F9EDD9" stroke-miterlimit="10"/>
<path d="M61.1738 10.2124L79.2781 4.04752" stroke="#F9EDD9" stroke-miterlimit="10"/>
<path d="M62.0996 78.2072L79.5231 83.9293" stroke="#F9EDD9" stroke-miterlimit="10"/>
<path d="M86.0053 51.8408L85.9648 48.8131L89.0187 48.7726L89.6423 48.7631L89.6828 51.7908L89.2639 51.7955" stroke="#F9EDD9" stroke-miterlimit="10"/>
<path d="M89.018 48.7728L88.9014 38.3853L89.5012 38.3782L89.4607 35.4219L89.1299 35.4171" stroke="#F9EDD9" stroke-miterlimit="10"/>
<path d="M85.7832 35.4171L85.8237 38.4544L88.9013 38.3853" stroke="#F9EDD9" stroke-miterlimit="10"/>
<path d="M85.9637 48.8134L85.8232 38.4545" stroke="#F9EDD9" stroke-miterlimit="10"/>
<path d="M52.7782 78.6401L51.2619 77.212L49.5791 11.0431L51.8475 10.11L52.7782 78.6401Z" stroke="#F9EDD9" stroke-miterlimit="10"/>
<path d="M52.778 78.6404L8.68844 80.0923L7.88867 8.5607L51.8473 10.1102" stroke="#F9EDD9" stroke-miterlimit="10"/>
<path d="M49.579 11.0433L8.55038 9.84128L7.88867 8.5607L8.55038 9.84128L8.68844 80.0923" stroke="#F9EDD9" stroke-miterlimit="10"/>
<path d="M51.2627 77.2121L8.68457 78.3046" stroke="#F9EDD9" stroke-miterlimit="10"/>
<path d="M5.48738 71.2783L4.91136 70.9927L4.90183 70.35L4.69713 70.3334L4.7495 71.1427L1.45998 72.1233C0.691152 72.071 0.781602 71.0736 0.781602 71.0736L0.817304 66.0656C0.855389 65.7942 2.01458 65.5514 2.01458 65.5514L4.77806 65.5133V65.9751L4.95658 65.9442L5.44454 65.5395" stroke="#F9EDD9" stroke-miterlimit="10"/>
<path d="M1.46014 72.1229L1.4292 69.8997L1.37207 65.7248" stroke="#F9EDD9" stroke-miterlimit="10"/>
<path d="M1.42956 69.9001L2.48402 69.9215L2.47926 69.5692L1.4248 69.5312" stroke="#F9EDD9" stroke-miterlimit="10"/>
<path d="M1.40613 68.1933L2.49629 68.2243L2.49153 67.8458L1.40137 67.8339" stroke="#F9EDD9" stroke-miterlimit="10"/>
<path d="M5.0434 66.4007L3.29883 66.4245L3.35009 70.1897L5.09466 70.1659L5.0434 66.4007Z" stroke="#F9EDD9" stroke-miterlimit="10"/>
<path d="M3.12616 23.2422L4.70427 23.3279L4.65428 19.6194L3.07617 19.548L3.12616 23.2422Z" stroke="#F9EDD9" stroke-miterlimit="10"/>
<path d="M5.09876 18.4175L4.54654 19.3244L4.39182 19.3577L4.3823 18.5818L2.25911 17.6796C1.35461 17.3655 1.20703 17.9581 1.20703 17.9581L1.2832 23.6232C1.29986 23.8398 1.54027 23.9826 1.87827 24.0778C2.75896 24.3253 4.30375 24.2492 4.30375 24.2492L4.71554 24.0254L5.03449 24.2444" stroke="#F9EDD9" stroke-miterlimit="10"/>
<path d="M1.87853 24.0774L1.87139 23.6347L1.83807 21.9614L1.75 17.5912" stroke="#F9EDD9" stroke-miterlimit="10"/>
<path d="M2.95283 21.9474L1.83887 21.9617" stroke="#F9EDD9" stroke-miterlimit="10"/>
<path d="M2.94629 21.5497L2.95105 21.9448" stroke="#F9EDD9" stroke-miterlimit="10"/>
<path d="M1.82422 21.5664L2.94532 21.5497" stroke="#F9EDD9" stroke-miterlimit="10"/>
<path d="M1.82666 20.1716L2.92634 20.1549L2.92158 19.6789L1.80762 19.6931" stroke="#F9EDD9" stroke-miterlimit="10"/>
</svg>
