<svg width="99" height="89" viewBox="0 0 99 89" fill="none" xmlns="http://www.w3.org/2000/svg">
<path d="M89.4259 17.0062L88.8262 17.0144L88.8627 19.6943L89.4624 19.6862L89.4259 17.0062Z" stroke="#03A4FF" stroke-miterlimit="10"/>
<path d="M54.1426 8.74797L55.4113 79.3084L55.4327 80.5557C55.4327 80.5557 55.4351 80.7414 55.5207 80.9842C55.6778 81.4293 56.1158 82.0577 57.3393 82.041L78.9854 87.5323C78.9854 87.5323 82.9699 89.2389 81.7203 85.1044L80.842 3.897C80.842 3.897 81.2585 0.107622 78.5712 2.03563L55.5445 8.1053C55.5445 8.1053 54.6163 8.05055 54.1426 8.74797Z" stroke="#03A4FF" stroke-miterlimit="10"/>
<path d="M55.8126 81.4842C56.1078 81.9864 53.7085 82.522 53.7085 82.522L9.08096 84.212C9.08096 84.212 5.09878 84.162 5.75573 78.5993L5.26063 11.3284C5.26063 11.3284 3.58969 4.12094 13.2583 6.08465L51.6305 7.34381C51.6305 7.34381 53.8204 7.40332 54.1393 8.74817" stroke="#03A4FF" stroke-miterlimit="10"/>
<path d="M81.7852 87.2968L89.164 87.004C89.164 87.004 90.3565 86.4065 90.4922 86.1042C90.6278 85.802 90.466 84.1215 90.466 84.1215L94.1054 80.8486C94.1054 80.8486 95.3765 81.5913 95.8811 81.8864C96.3857 82.1816 96.5237 82.1173 96.5237 82.1173C96.5237 82.1173 96.7427 81.9745 96.7403 81.815C96.7403 81.815 97.5306 85.5068 94.4291 86.9921L89.0878 87.3444L89.0711 87.0397" stroke="#03A4FF" stroke-miterlimit="10"/>
<path d="M95.4899 56.1177C100.07 54.6395 96.8324 33.848 96.8324 33.848C96.8324 33.848 96.6705 32.4745 95.5018 32.4079C95.3995 32.4008 95.2876 32.4079 95.1662 32.4222L87.5327 32.3008C87.5327 32.3008 86.2616 32.0913 85.9736 34.1764L85.9998 36.0759H89.3488C89.3488 36.0759 88.899 34.7239 90.6128 35.0167H93.7238C93.7238 35.0167 94.5854 35.1428 94.5116 36.4567C94.5116 36.4567 92.029 46.9894 94.7544 51.0692C94.7544 51.0692 94.6497 53.2876 93.9261 53.3875L90.082 53.5303C90.082 53.5303 89.4036 53.4946 89.4798 52.4521L86.2212 52.4973L86.2497 54.6681C86.2497 54.6681 86.4092 56.4961 87.4922 56.2224L95.4828 56.1129L95.8708 81.8816" stroke="#03A4FF" stroke-miterlimit="10"/>
<path d="M95.0928 7.03418L95.5046 32.4078" stroke="#03A4FF" stroke-miterlimit="10"/>
<path d="M88.3704 1.52382C96.9013 0.664547 95.7135 6.7485 95.7135 6.7485L93.5332 7.64824L89.7224 4.9871L89.6676 3.3114C89.6676 3.3114 89.6058 1.62617 87.8301 1.56429L88.3704 1.5262V1.52382Z" stroke="#03A4FF" stroke-miterlimit="10"/>
<path d="M80.2158 1.57129L87.8327 1.56177" stroke="#03A4FF" stroke-miterlimit="10"/>
<path d="M88.613 74.1505L94.2875 73.3674C94.2875 73.3674 94.9254 73.5007 94.8802 72.8652L94.8159 68.0285C94.8159 68.0285 94.8754 67.2858 93.9923 67.2977L88.5201 67.3715C88.5201 67.3715 87.3562 67.3882 87.3633 67.9166L87.4347 73.1056C87.4347 73.1056 87.3181 74.329 88.6153 74.1481L88.613 74.1505Z" stroke="#03A4FF" stroke-miterlimit="10"/>
<path d="M89.8974 69.3491L89.2715 69.3577L89.3086 72.0852L89.9346 72.0767L89.8974 69.3491Z" stroke="#03A4FF" stroke-miterlimit="10"/>
<path d="M88.2308 21.6917L93.6863 21.5227C93.6863 21.5227 94.648 21.8679 94.6313 20.5278L94.5766 16.5313C94.5766 16.5313 94.7765 15.4269 93.722 15.3221L88.3069 14.9889C88.3069 14.9889 86.9883 14.7675 86.9502 15.534L87.162 20.5325L87.193 21.0586C87.193 21.0586 86.9645 21.8512 88.2308 21.6917Z" stroke="#03A4FF" stroke-miterlimit="10"/>
<path d="M57.0541 79.244L79.7452 84.5901L79.5 4.7085L55.7402 10.721L57.0541 79.244Z" stroke="#03A4FF" stroke-miterlimit="10"/>
<path d="M57.0541 79.2442L62.3217 78.8681L61.3957 10.8735L55.7402 10.7212" stroke="#03A4FF" stroke-miterlimit="10"/>
<path d="M61.3955 10.8734L79.4998 4.7085" stroke="#03A4FF" stroke-miterlimit="10"/>
<path d="M62.3213 78.8682L79.7448 84.5903" stroke="#03A4FF" stroke-miterlimit="10"/>
<path d="M86.227 52.5017L86.1865 49.4741L89.2404 49.4336L89.864 49.4241L89.9045 52.4518L89.4856 52.4565" stroke="#03A4FF" stroke-miterlimit="10"/>
<path d="M89.2397 49.4338L89.123 39.0463L89.7229 39.0392L89.6824 36.0829L89.3515 36.0781" stroke="#03A4FF" stroke-miterlimit="10"/>
<path d="M86.0049 36.0781L86.0454 39.1153L89.123 39.0463" stroke="#03A4FF" stroke-miterlimit="10"/>
<path d="M86.1854 49.4744L86.0449 39.1155" stroke="#03A4FF" stroke-miterlimit="10"/>
<path d="M52.9999 79.3011L51.4836 77.873L49.8008 11.7041L52.0692 10.771L52.9999 79.3011Z" stroke="#03A4FF" stroke-miterlimit="10"/>
<path d="M52.9997 79.3013L8.91012 80.7533L8.11035 9.22168L52.069 10.7712" stroke="#03A4FF" stroke-miterlimit="10"/>
<path d="M49.8006 11.7043L8.77206 10.5023L8.11035 9.22168L8.77206 10.5023L8.91012 80.7533" stroke="#03A4FF" stroke-miterlimit="10"/>
<path d="M51.4844 77.873L8.90625 78.9656" stroke="#03A4FF" stroke-miterlimit="10"/>
<path d="M5.70906 71.9393L5.13304 71.6537L5.12351 71.011L4.91881 70.9943L4.97118 71.8036L1.68166 72.7843C0.912831 72.7319 1.00328 71.7346 1.00328 71.7346L1.03898 66.7265C1.07707 66.4552 2.23626 66.2124 2.23626 66.2124L4.99974 66.1743V66.6361L5.17826 66.6051L5.66622 66.2005" stroke="#03A4FF" stroke-miterlimit="10"/>
<path d="M1.68182 72.7839L1.65088 70.5607L1.59375 66.3857" stroke="#03A4FF" stroke-miterlimit="10"/>
<path d="M1.65124 70.5611L2.7057 70.5825L2.70094 70.2302L1.64648 70.1921" stroke="#03A4FF" stroke-miterlimit="10"/>
<path d="M1.62781 68.8543L2.71797 68.8852L2.71321 68.5068L1.62305 68.4949" stroke="#03A4FF" stroke-miterlimit="10"/>
<path d="M5.26508 67.0617L3.52051 67.0854L3.57177 70.8507L5.31634 70.8269L5.26508 67.0617Z" stroke="#03A4FF" stroke-miterlimit="10"/>
<path d="M3.34784 23.9032L4.92595 23.9888L4.87596 20.2804L3.29785 20.209L3.34784 23.9032Z" stroke="#03A4FF" stroke-miterlimit="10"/>
<path d="M5.32044 19.0785L4.76822 19.9854L4.6135 20.0187L4.60398 19.2427L2.48079 18.3406C1.57629 18.0264 1.42871 18.6191 1.42871 18.6191L1.50488 24.2841C1.52154 24.5007 1.76195 24.6436 2.09994 24.7388C2.98064 24.9863 4.52543 24.9102 4.52543 24.9102L4.93722 24.6864L5.25617 24.9054" stroke="#03A4FF" stroke-miterlimit="10"/>
<path d="M2.10021 24.7384L2.09307 24.2957L2.05975 22.6224L1.97168 18.2522" stroke="#03A4FF" stroke-miterlimit="10"/>
<path d="M3.17451 22.6084L2.06055 22.6227" stroke="#03A4FF" stroke-miterlimit="10"/>
<path d="M3.16797 22.2107L3.17273 22.6058" stroke="#03A4FF" stroke-miterlimit="10"/>
<path d="M2.0459 22.2274L3.167 22.2107" stroke="#03A4FF" stroke-miterlimit="10"/>
<path d="M2.04834 20.8326L3.14802 20.8159L3.14326 20.3398L2.0293 20.3541" stroke="#03A4FF" stroke-miterlimit="10"/>
</svg>
