<svg width="391" height="746" viewBox="0 0 391 746" fill="none" xmlns="http://www.w3.org/2000/svg">
<path d="M209 5H187V746H209V5Z" fill="#F9EDD9"/>
<path d="M194.019 0.0211955H202.027C206.973 0.0211955 211 3.73246 211 8.292V12.1729C211 12.6183 210.609 13 210.103 13H185.897C185.414 13 185 12.6395 185 12.1729V8.31321C185 3.73246 189.05 0 194.019 0V0.0211955Z" fill="#DADADA"/>
<path d="M29.698 246.283L192.558 246.283V180.295H29.698V246.283Z" fill="#348BCB"/>
<path d="M30.1186 180.24V205.516V246.228L0 213.234L30.1186 180.24Z" fill="#F9EDD9"/>
<path d="M30.1186 204.082L8.25246 204.193L0 213.234L8.30859 222.33L30.1186 222.716V204.082Z" fill="#BE8BBD"/>
<path d="M30.1187 222.716V246.227L8.30859 222.33L30.1187 222.716Z" fill="#F9EDD9"/>
<path d="M30.1181 204.082L8.25195 204.193L30.1181 180.24V204.082Z" fill="#F9EDD9"/>
<path d="M361.219 78.5203H198.359V144.508H361.219V78.5203Z" fill="#348BCB"/>
<path d="M360.799 144.59V119.314V78.6025L390.917 111.596L360.799 144.59Z" fill="#F9EDD9"/>
<path d="M360.799 120.748L382.665 120.638L390.917 111.597L382.609 102.501L360.799 102.115V120.748Z" fill="#BE8BBD"/>
<path d="M360.799 102.114V78.6024L382.609 102.5L360.799 102.114Z" fill="#F9EDD9"/>
<path d="M360.799 120.748L382.665 120.638L360.799 144.591V120.748Z" fill="#F9EDD9"/>
<path d="M69.5 201.531C74.9971 201.531 79.4686 206.003 79.4686 211.5C79.4686 216.997 74.9971 221.469 69.5 221.469C64.0029 221.469 59.5314 216.997 59.5314 211.5C59.5314 206.003 64.0029 201.531 69.5 201.531ZM69.5 201C63.7 201 59 205.703 59 211.5C59 217.297 63.7027 222 69.5 222C75.2973 222 80 217.297 80 211.5C80 205.703 75.2973 201 69.5 201Z" fill="#F9EDD9"/>
<path d="M87.4543 208.843C86.7469 208.434 85.9232 208.231 84.9834 208.231C84.0436 208.231 83.2173 208.434 82.5098 208.843C81.8049 209.252 81.2585 209.849 80.8731 210.638C80.4876 211.428 80.2949 212.378 80.2949 213.492C80.2949 214.606 80.4876 215.559 80.8731 216.346C81.2585 217.135 81.8023 217.732 82.5098 218.141C83.2173 218.55 84.0409 218.753 84.9834 218.753C85.9258 218.753 86.7495 218.55 87.4543 218.141C88.1592 217.732 88.7057 217.135 89.0911 216.346C89.4765 215.559 89.6666 214.606 89.6666 213.492C89.6666 212.378 89.4739 211.425 89.0911 210.638C88.7057 209.852 88.1618 209.252 87.4543 208.843ZM86.826 216.404C86.6149 217.143 86.3482 217.671 86.0262 217.99C85.7041 218.307 85.3556 218.466 84.9808 218.466C84.6059 218.466 84.2574 218.307 83.9354 217.99C83.6133 217.674 83.3467 217.146 83.1355 216.404C82.9243 215.665 82.8187 214.693 82.8187 213.492C82.8187 212.291 82.9243 211.319 83.1355 210.58C83.3467 209.841 83.6133 209.31 83.9354 208.994C84.2574 208.677 84.6059 208.518 84.9808 208.518C85.3556 208.518 85.7041 208.677 86.0262 208.994C86.3482 209.31 86.6149 209.838 86.826 210.58C87.0372 211.319 87.1428 212.291 87.1428 213.492C87.1428 214.693 87.0372 215.665 86.826 216.404Z" fill="#F9EDD9"/>
<path d="M97.2428 215.221C97.0025 214.675 96.5458 214.295 95.8727 214.083C95.6034 213.996 95.2919 213.943 94.9355 213.925V213.854C95.5321 213.843 96.0944 213.738 96.6224 213.537C97.1213 213.355 97.5305 213.078 97.8473 212.708C98.1641 212.338 98.3225 211.855 98.3225 211.259C98.3225 210.374 97.9635 209.685 97.2428 209.189C96.5221 208.695 95.3447 208.447 93.7106 208.447H89.8906V208.664L90.7565 208.88V218.107L89.8906 218.323V218.54H94.1435V218.323L93.1351 218.107V214.07H94.0722L95.5136 217.315C95.8779 218.13 96.4561 218.54 97.2428 218.54H99.2597V218.323L98.539 218.107L97.2428 215.224V215.221ZM93.7106 213.706H93.1351V208.806H93.7106C94.3837 208.806 94.9117 209.017 95.2972 209.44C95.6826 209.862 95.8727 210.469 95.8727 211.256C95.8727 212.043 95.6799 212.65 95.2972 213.072C94.9117 213.495 94.3837 213.706 93.7106 213.706Z" fill="#F9EDD9"/>
<path d="M105.186 216.074C104.872 216.56 104.716 217.085 104.716 217.653H102.721V208.796L103.602 208.592V208.389H99.4102V208.592L100.295 208.796V217.584L99.4102 217.787V218.574H106.113V215.559H105.672C105.485 215.694 105.324 215.865 105.186 216.071V216.074Z" fill="#F9EDD9"/>
<path d="M110.163 208.445H106.485V208.661L107.351 208.877V218.104L106.485 218.32V218.537H110.163C111.881 218.537 113.201 218.096 114.12 217.212C115.039 216.327 115.495 215.087 115.495 213.492C115.495 211.898 115.036 210.657 114.12 209.772C113.201 208.888 111.884 208.447 110.163 208.447V208.445ZM112.238 217.088C111.747 217.814 111.055 218.175 110.163 218.175H109.73V208.806H110.163C111.058 208.806 111.749 209.168 112.238 209.894C112.726 210.62 112.972 211.818 112.972 213.489C112.972 215.16 112.726 216.362 112.238 217.085V217.088Z" fill="#F9EDD9"/>
<path d="M132.544 208.899C131.837 208.489 131.013 208.286 130.073 208.286C129.133 208.286 128.307 208.489 127.6 208.899C126.895 209.308 126.348 209.904 125.963 210.694C125.577 211.483 125.385 212.433 125.385 213.547C125.385 214.662 125.577 215.615 125.963 216.401C126.348 217.191 126.892 217.787 127.6 218.196C128.304 218.606 129.131 218.809 130.073 218.809C131.016 218.809 131.839 218.606 132.544 218.196C133.249 217.787 133.796 217.191 134.181 216.401C134.566 215.615 134.756 214.662 134.756 213.547C134.756 212.433 134.564 211.48 134.181 210.694C133.796 209.907 133.252 209.308 132.544 208.899ZM131.919 216.459C131.707 217.198 131.441 217.726 131.119 218.046C130.797 218.363 130.448 218.521 130.073 218.521C129.698 218.521 129.35 218.363 129.028 218.046C128.706 217.729 128.439 217.201 128.228 216.459C128.017 215.72 127.911 214.749 127.911 213.547C127.911 212.346 128.017 211.375 128.228 210.636C128.439 209.897 128.706 209.366 129.028 209.049C129.35 208.732 129.698 208.574 130.073 208.574C130.448 208.574 130.797 208.732 131.119 209.049C131.441 209.366 131.707 209.894 131.919 210.636C132.13 211.375 132.235 212.346 132.235 213.547C132.235 214.749 132.13 215.72 131.919 216.459Z" fill="#F9EDD9"/>
<path d="M152.072 215.485C151.831 214.939 151.375 214.559 150.701 214.347C150.432 214.26 150.121 214.207 149.764 214.189V214.118C150.361 214.107 150.923 214.002 151.451 213.801C151.95 213.619 152.359 213.342 152.676 212.972C152.993 212.602 153.151 212.119 153.151 211.523C153.151 210.638 152.792 209.949 152.072 209.453C151.351 208.959 150.173 208.711 148.539 208.711H144.719V208.928L145.585 209.144V217.798L144.719 218.014V218.687H148.022V218.014L147.964 217.798V214.334H148.901L150.789 218.687L150.884 219.115L139.928 219.17L139.136 221.282L140.451 221.322V219.83H141.628V221.322H143.04V222.499H141.628V223.835H140.451V222.499H138.785L137.724 225.332L154.22 225.39L152.072 215.483V215.485ZM148.69 213.97H148.114V209.07H148.69C149.363 209.07 149.891 209.281 150.276 209.704C150.662 210.126 150.852 210.733 150.852 211.52C150.852 212.307 150.659 212.914 150.276 213.336C149.891 213.759 149.363 213.97 148.69 213.97Z" fill="#F9EDD9"/>
<path d="M142.66 208.933C141.953 208.524 141.129 208.32 140.189 208.32C139.25 208.32 138.423 208.524 137.716 208.933C137.011 209.342 136.465 209.939 136.079 210.728C135.694 211.517 135.501 212.468 135.501 213.582C135.501 214.696 135.694 215.649 136.079 216.436C136.465 217.225 137.008 217.821 137.716 218.231C138.421 218.64 139.247 218.843 140.189 218.843C141.132 218.843 141.956 218.64 142.66 218.231C143.365 217.821 143.912 217.225 144.297 216.436C144.683 215.649 144.873 214.696 144.873 213.582C144.873 212.468 144.68 211.515 144.297 210.728C143.912 209.941 143.368 209.342 142.66 208.933ZM142.032 216.494C141.821 217.233 141.554 217.761 141.232 218.08C140.91 218.397 140.562 218.555 140.187 218.555C139.812 218.555 139.463 218.397 139.141 218.08C138.819 217.763 138.553 217.235 138.342 216.494C138.13 215.754 138.025 214.783 138.025 213.582C138.025 212.381 138.13 211.409 138.342 210.67C138.553 209.931 138.819 209.4 139.141 209.083C139.463 208.767 139.812 208.608 140.187 208.608C140.562 208.608 140.91 208.767 141.232 209.083C141.554 209.4 141.821 209.928 142.032 210.67C142.243 211.409 142.349 212.381 142.349 213.582C142.349 214.783 142.243 215.754 142.032 216.494Z" fill="#F9EDD9"/>
<path d="M119.136 208.571H115.459V208.788L116.325 209.004V218.231L115.459 218.447V218.664H119.136C120.855 218.664 122.175 218.223 123.094 217.338C124.012 216.454 124.469 215.213 124.469 213.619C124.469 212.024 124.01 210.784 123.094 209.899C122.175 209.015 120.858 208.574 119.136 208.574V208.571ZM121.211 217.214C120.72 217.94 120.029 218.302 119.136 218.302H118.703V208.933H119.136C120.031 208.933 120.723 209.295 121.211 210.021C121.7 210.747 121.945 211.945 121.945 213.616C121.945 215.287 121.7 216.488 121.211 217.212V217.214Z" fill="#F9EDD9"/>
<path d="M62.1429 207.706L61 207.353V207H63.6286C64.4362 207 65.0762 207.173 65.5486 207.518C66.021 207.863 66.4095 208.357 66.7143 209L69.2286 214.412L70.5314 210.976L69 207.706L67.8571 207.353V207H70.4857C71.2933 207 71.9333 207.173 72.4057 207.518C72.8781 207.863 73.2667 208.357 73.5714 209L76.0857 214.412L78.4857 208.059L76.7714 207.353V207H81V207.353L79.1714 208.059L74.9429 219H74.2571L70.8743 211.753L68.0857 219H67.4L62.1429 207.706Z" fill="#F9EDD9"/>
<path d="M236.5 99.5314C241.997 99.5314 246.469 104.003 246.469 109.5C246.469 114.997 241.997 119.469 236.5 119.469C231.003 119.469 226.531 114.997 226.531 109.5C226.531 104.003 231.003 99.5314 236.5 99.5314ZM236.5 99C230.7 99 226 103.703 226 109.5C226 115.297 230.703 120 236.5 120C242.297 120 247 115.297 247 109.5C247 103.703 242.297 99 236.5 99Z" fill="#F9EDD9"/>
<path d="M254.454 106.843C253.747 106.434 252.923 106.231 251.983 106.231C251.044 106.231 250.217 106.434 249.51 106.843C248.805 107.252 248.258 107.849 247.873 108.638C247.488 109.428 247.295 110.378 247.295 111.492C247.295 112.606 247.488 113.559 247.873 114.346C248.258 115.135 248.802 115.732 249.51 116.141C250.217 116.55 251.041 116.753 251.983 116.753C252.926 116.753 253.749 116.55 254.454 116.141C255.159 115.732 255.706 115.135 256.091 114.346C256.477 113.559 256.667 112.606 256.667 111.492C256.667 110.378 256.474 109.425 256.091 108.638C255.706 107.852 255.162 107.252 254.454 106.843ZM253.826 114.404C253.615 115.143 253.348 115.671 253.026 115.99C252.704 116.307 252.356 116.466 251.981 116.466C251.606 116.466 251.257 116.307 250.935 115.99C250.613 115.674 250.347 115.146 250.135 114.404C249.924 113.665 249.819 112.693 249.819 111.492C249.819 110.291 249.924 109.319 250.135 108.58C250.347 107.841 250.613 107.31 250.935 106.994C251.257 106.677 251.606 106.518 251.981 106.518C252.356 106.518 252.704 106.677 253.026 106.994C253.348 107.31 253.615 107.838 253.826 108.58C254.037 109.319 254.143 110.291 254.143 111.492C254.143 112.693 254.037 113.665 253.826 114.404Z" fill="#F9EDD9"/>
<path d="M264.243 113.221C264.003 112.675 263.546 112.295 262.873 112.083C262.603 111.996 262.292 111.943 261.935 111.925V111.854C262.532 111.843 263.094 111.738 263.622 111.537C264.121 111.355 264.531 111.078 264.847 110.708C265.164 110.338 265.322 109.855 265.322 109.259C265.322 108.374 264.963 107.685 264.243 107.189C263.522 106.695 262.345 106.447 260.711 106.447H256.891V106.664L257.757 106.88V116.107L256.891 116.323V116.54H261.144V116.323L260.135 116.107V112.07H261.072L262.514 115.315C262.878 116.13 263.456 116.54 264.243 116.54H266.26V116.323L265.539 116.107L264.243 113.224V113.221ZM260.711 111.706H260.135V106.806H260.711C261.384 106.806 261.912 107.017 262.297 107.44C262.683 107.862 262.873 108.469 262.873 109.256C262.873 110.043 262.68 110.65 262.297 111.072C261.912 111.495 261.384 111.706 260.711 111.706Z" fill="#F9EDD9"/>
<path d="M272.186 114.074C271.872 114.56 271.716 115.085 271.716 115.653H269.721V106.796L270.602 106.592V106.389H266.41V106.592L267.295 106.796V115.584L266.41 115.787V116.574H273.113V113.559H272.672C272.485 113.694 272.324 113.865 272.186 114.071V114.074Z" fill="#F9EDD9"/>
<path d="M277.163 106.445H273.485V106.661L274.351 106.877V116.104L273.485 116.32V116.537H277.163C278.881 116.537 280.201 116.096 281.12 115.212C282.039 114.327 282.495 113.087 282.495 111.492C282.495 109.898 282.036 108.657 281.12 107.772C280.201 106.888 278.884 106.447 277.163 106.447V106.445ZM279.238 115.088C278.747 115.814 278.055 116.175 277.163 116.175H276.73V106.806H277.163C278.058 106.806 278.749 107.168 279.238 107.894C279.726 108.62 279.972 109.818 279.972 111.489C279.972 113.16 279.726 114.362 279.238 115.085V115.088Z" fill="#F9EDD9"/>
<path d="M299.544 106.899C298.837 106.489 298.013 106.286 297.073 106.286C296.133 106.286 295.307 106.489 294.6 106.899C293.895 107.308 293.348 107.904 292.963 108.694C292.577 109.483 292.385 110.433 292.385 111.547C292.385 112.662 292.577 113.615 292.963 114.401C293.348 115.191 293.892 115.787 294.6 116.196C295.304 116.606 296.131 116.809 297.073 116.809C298.016 116.809 298.839 116.606 299.544 116.196C300.249 115.787 300.796 115.191 301.181 114.401C301.566 113.615 301.756 112.662 301.756 111.547C301.756 110.433 301.564 109.48 301.181 108.694C300.796 107.907 300.252 107.308 299.544 106.899ZM298.919 114.459C298.707 115.198 298.441 115.726 298.119 116.046C297.797 116.363 297.448 116.521 297.073 116.521C296.698 116.521 296.35 116.363 296.028 116.046C295.706 115.729 295.439 115.201 295.228 114.459C295.017 113.72 294.911 112.749 294.911 111.547C294.911 110.346 295.017 109.375 295.228 108.636C295.439 107.897 295.706 107.366 296.028 107.049C296.35 106.732 296.698 106.574 297.073 106.574C297.448 106.574 297.797 106.732 298.119 107.049C298.441 107.366 298.707 107.894 298.919 108.636C299.13 109.375 299.235 110.346 299.235 111.547C299.235 112.749 299.13 113.72 298.919 114.459Z" fill="#F9EDD9"/>
<path d="M319.072 113.485C318.831 112.939 318.375 112.559 317.701 112.347C317.432 112.26 317.121 112.207 316.764 112.189V112.118C317.361 112.107 317.923 112.002 318.451 111.801C318.95 111.619 319.359 111.342 319.676 110.972C319.993 110.602 320.151 110.119 320.151 109.523C320.151 108.638 319.792 107.949 319.072 107.453C318.351 106.959 317.173 106.711 315.539 106.711H311.719V106.928L312.585 107.144V115.798L311.719 116.014V116.687H315.022V116.014L314.964 115.798V112.334H315.901L317.789 116.687L317.884 117.115L306.928 117.17L306.136 119.282L307.451 119.322V117.83H308.628V119.322H310.04V120.499H308.628V121.835H307.451V120.499H305.785L304.724 123.332L321.22 123.39L319.072 113.483V113.485ZM315.69 111.97H315.114V107.07H315.69C316.363 107.07 316.891 107.281 317.276 107.704C317.662 108.126 317.852 108.733 317.852 109.52C317.852 110.307 317.659 110.914 317.276 111.336C316.891 111.759 316.363 111.97 315.69 111.97Z" fill="#F9EDD9"/>
<path d="M309.66 106.933C308.953 106.524 308.129 106.32 307.189 106.32C306.25 106.32 305.423 106.524 304.716 106.933C304.011 107.342 303.465 107.939 303.079 108.728C302.694 109.517 302.501 110.468 302.501 111.582C302.501 112.696 302.694 113.649 303.079 114.436C303.465 115.225 304.008 115.821 304.716 116.231C305.421 116.64 306.247 116.843 307.189 116.843C308.132 116.843 308.956 116.64 309.66 116.231C310.365 115.821 310.912 115.225 311.297 114.436C311.683 113.649 311.873 112.696 311.873 111.582C311.873 110.468 311.68 109.515 311.297 108.728C310.912 107.941 310.368 107.342 309.66 106.933ZM309.032 114.494C308.821 115.233 308.554 115.761 308.232 116.08C307.91 116.397 307.562 116.555 307.187 116.555C306.812 116.555 306.463 116.397 306.141 116.08C305.819 115.763 305.553 115.235 305.342 114.494C305.13 113.754 305.025 112.783 305.025 111.582C305.025 110.381 305.13 109.409 305.342 108.67C305.553 107.931 305.819 107.4 306.141 107.083C306.463 106.767 306.812 106.608 307.187 106.608C307.562 106.608 307.91 106.767 308.232 107.083C308.554 107.4 308.821 107.928 309.032 108.67C309.243 109.409 309.349 110.381 309.349 111.582C309.349 112.783 309.243 113.754 309.032 114.494Z" fill="#F9EDD9"/>
<path d="M286.136 106.571H282.459V106.788L283.325 107.004V116.231L282.459 116.447V116.664H286.136C287.855 116.664 289.175 116.223 290.094 115.338C291.012 114.454 291.469 113.213 291.469 111.619C291.469 110.024 291.01 108.784 290.094 107.899C289.175 107.015 287.858 106.574 286.136 106.574V106.571ZM288.211 115.214C287.72 115.94 287.029 116.302 286.136 116.302H285.703V106.933H286.136C287.031 106.933 287.723 107.295 288.211 108.021C288.7 108.747 288.945 109.945 288.945 111.616C288.945 113.287 288.7 114.488 288.211 115.212V115.214Z" fill="#F9EDD9"/>
<path d="M229.143 105.706L228 105.353V105H230.629C231.436 105 232.076 105.173 232.549 105.518C233.021 105.863 233.41 106.357 233.714 107L236.229 112.412L237.531 108.976L236 105.706L234.857 105.353V105H237.486C238.293 105 238.933 105.173 239.406 105.518C239.878 105.863 240.267 106.357 240.571 107L243.086 112.412L245.486 106.059L243.771 105.353V105H248V105.353L246.171 106.059L241.943 117H241.257L237.874 109.753L235.086 117H234.4L229.143 105.706Z" fill="#F9EDD9"/>
</svg>
