<?xml version="1.0" encoding="UTF-8"?>
<svg id="Layer_1" data-name="Layer 1" xmlns="http://www.w3.org/2000/svg" viewBox="0 0 664.41 817.13">
  <defs>
    <style>
      .cls-1 {
        fill: none;
        stroke: #3c8dcc;
        stroke-miterlimit: 10;
      }
    </style>
  </defs>
  <rect class="cls-1" x="474.55" y="265.36" width="2.52" height="11.26" transform="translate(-3.64 6.49) rotate(-.78)"/>
  <path class="cls-1" d="M328.77,230.64l5.33,296.44.09,5.24s.01.78.37,1.8c.66,1.87,2.5,4.51,7.64,4.44l90.94,23.07s16.74,7.17,11.49-10.2l-3.69-341.17s1.75-15.92-9.54-7.82l-96.74,25.5s-3.9-.23-5.89,2.7Z"/>
  <path class="cls-1" d="M335.8,536.22c1.24,2.11-8.84,4.36-8.84,4.36l-187.49,7.1s-16.73-.21-13.97-23.58l-2.08-282.62s-7.02-30.28,33.6-22.03l161.21,5.29s9.2.25,10.54,5.9"/>
  <path class="cls-1" d="M444.9,560.64l31-1.23s5.01-2.51,5.58-3.78-.11-8.33-.11-8.33l15.29-13.75s5.34,3.12,7.46,4.36,2.7.97,2.7.97c0,0,.92-.6.91-1.27,0,0,3.32,15.51-9.71,21.75l-22.44,1.48-.07-1.28"/>
  <path class="cls-1" d="M502.49,429.65c19.24-6.21,5.64-93.56,5.64-93.56,0,0-.68-5.77-5.59-6.05-.43-.03-.9,0-1.41.06l-32.07-.51s-5.34-.88-6.55,7.88l.11,7.98h14.07s-1.89-5.68,5.31-4.45h13.07s3.62.53,3.31,6.05c0,0-10.43,44.25,1.02,61.39,0,0-.44,9.32-3.48,9.74l-16.15.6s-2.85-.15-2.53-4.53l-13.69.19.12,9.12s.67,7.68,5.22,6.53l33.57-.46,1.63,108.26"/>
  <line class="cls-1" x1="500.81" y1="223.44" x2="502.54" y2="330.04"/>
  <path class="cls-1" d="M472.58,200.29c35.84-3.61,30.85,21.95,30.85,21.95l-9.16,3.78-16.01-11.18-.23-7.04s-.26-7.08-7.72-7.34l2.27-.16Z"/>
  <line class="cls-1" x1="438.31" y1="200.49" x2="470.31" y2="200.45"/>
  <path class="cls-1" d="M473.6,505.41l23.84-3.29s2.68.56,2.49-2.11l-.27-20.32s.25-3.12-3.46-3.07l-22.99.31s-4.89.07-4.86,2.29l.3,21.8s-.49,5.14,4.96,4.38Z"/>
  <rect class="cls-1" x="476.42" y="485.27" width="2.63" height="11.46" transform="translate(-6.63 6.54) rotate(-.78)"/>
  <path class="cls-1" d="M471.98,285.02l22.92-.71s4.04,1.45,3.97-4.18l-.23-16.79s.84-4.64-3.59-5.08l-22.75-1.4s-5.54-.93-5.7,2.29l.89,21,.13,2.21s-.96,3.33,4.36,2.66Z"/>
  <polygon class="cls-1" points="341 526.82 436.33 549.28 435.3 213.67 335.48 238.93 341 526.82"/>
  <polyline class="cls-1" points="341 526.82 363.13 525.23 359.25 239.57 335.48 238.93"/>
  <line class="cls-1" x1="359.25" y1="239.57" x2="435.3" y2="213.67"/>
  <line class="cls-1" x1="363.13" y1="525.23" x2="436.33" y2="549.28"/>
  <polyline class="cls-1" points="463.57 414.46 463.39 401.74 476.22 401.57 478.84 401.53 479.02 414.25 477.25 414.27"/>
  <polyline class="cls-1" points="476.22 401.57 475.73 357.93 478.25 357.9 478.08 345.48 476.7 345.46"/>
  <polyline class="cls-1" points="462.63 345.46 462.8 358.22 475.73 357.93"/>
  <line class="cls-1" x1="463.39" y1="401.74" x2="462.8" y2="358.22"/>
  <polygon class="cls-1" points="323.98 527.05 317.6 521.05 310.53 243.06 320.06 239.14 323.98 527.05"/>
  <polyline class="cls-1" points="323.98 527.05 138.74 533.15 135.38 232.63 320.06 239.14"/>
  <polyline class="cls-1" points="310.53 243.06 138.16 238.01 135.38 232.63 138.16 238.01 138.74 533.15"/>
  <line class="cls-1" x1="317.6" y1="521.05" x2="138.73" y2="525.64"/>
  <path class="cls-1" d="M125.29,496.12l-2.42-1.2-.04-2.7-.86-.07.22,3.4-13.82,4.12c-3.23-.22-2.85-4.41-2.85-4.41l.15-21.04c.16-1.14,5.03-2.16,5.03-2.16l11.61-.16v1.94s.75-.13.75-.13l2.05-1.7"/>
  <polyline class="cls-1" points="108.37 499.67 108.24 490.33 108.01 472.79"/>
  <polyline class="cls-1" points="108.24 490.33 112.67 490.42 112.65 488.94 108.22 488.78"/>
  <polyline class="cls-1" points="108.15 483.16 112.72 483.29 112.7 481.7 108.13 481.65"/>
  <rect class="cls-1" x="116.19" y="475.68" width="7.33" height="15.82" transform="translate(-6.56 1.67) rotate(-.78)"/>
  <polygon class="cls-1" points="115.37 294.31 122 294.67 121.79 279.09 115.16 278.79 115.37 294.31"/>
  <path class="cls-1" d="M123.66,274.04l-2.32,3.81-.65.14-.04-3.26-8.92-3.79c-3.8-1.32-4.42,1.17-4.42,1.17l.32,23.8c.07.91,1.08,1.51,2.5,1.91,3.7,1.04,10.19.72,10.19.72l1.73-.94,1.34.92"/>
  <polyline class="cls-1" points="110.13 297.82 110.11 295.96 109.96 288.93 109.59 270.57"/>
  <path class="cls-1" d="M114.64,288.87l-4.68.06,4.68-.06Z"/>
  <path class="cls-1" d="M114.62,287.21l.02,1.66-.02-1.66Z"/>
  <line class="cls-1" x1="109.9" y1="287.27" x2="114.62" y2="287.21"/>
  <polyline class="cls-1" points="109.91 281.41 114.54 281.34 114.51 279.34 109.83 279.4"/>
</svg>