<?xml version="1.0" encoding="UTF-8"?>
<svg id="Layer_1" data-name="Layer 1" xmlns="http://www.w3.org/2000/svg" viewBox="0 0 630.86 821.17">
  <defs>
    <style>
      .cls-1 {
        fill: none;
        stroke: #f9edd9;
        stroke-miterlimit: 10;
      }
    </style>
  </defs>
  <rect class="cls-1" x="437.55" y="277.16" width="2.52" height="11.26" transform="translate(-3.8 5.99) rotate(-.78)"/>
  <path class="cls-1" d="M291.77,242.44l5.33,296.44.09,5.24s.01.78.37,1.8c.66,1.87,2.5,4.51,7.64,4.44l90.94,23.07s16.74,7.17,11.49-10.2l-3.69-341.17s1.75-15.92-9.54-7.82l-96.74,25.5s-3.9-.23-5.89,2.7Z"/>
  <path class="cls-1" d="M298.8,548.03c1.24,2.11-8.84,4.36-8.84,4.36l-187.49,7.1s-16.73-.21-13.97-23.58l-2.08-282.62s-7.02-30.28,33.6-22.03l161.21,5.29s9.2.25,10.54,5.9"/>
  <path class="cls-1" d="M407.9,572.45l31-1.23s5.01-2.51,5.58-3.78-.11-8.33-.11-8.33l15.29-13.75s5.34,3.12,7.46,4.36,2.7.97,2.7.97c0,0,.92-.6.91-1.27,0,0,3.32,15.51-9.71,21.75l-22.44,1.48-.07-1.28"/>
  <path class="cls-1" d="M465.49,441.46c19.24-6.21,5.64-93.56,5.64-93.56,0,0-.68-5.77-5.59-6.05-.43-.03-.9,0-1.41.06l-32.07-.51s-5.34-.88-6.55,7.88l.11,7.98h14.07s-1.89-5.68,5.31-4.45h13.07s3.62.53,3.31,6.05c0,0-10.43,44.25,1.02,61.39,0,0-.44,9.32-3.48,9.74l-16.15.6s-2.85-.15-2.53-4.53l-13.69.19.12,9.12s.67,7.68,5.22,6.53l33.57-.46,1.63,108.26"/>
  <line class="cls-1" x1="463.81" y1="235.25" x2="465.54" y2="341.85"/>
  <path class="cls-1" d="M435.58,212.1c35.84-3.61,30.85,21.95,30.85,21.95l-9.16,3.78-16.01-11.18-.23-7.04s-.26-7.08-7.72-7.34l2.27-.16Z"/>
  <line class="cls-1" x1="401.31" y1="212.3" x2="433.31" y2="212.26"/>
  <path class="cls-1" d="M436.6,517.22l23.84-3.29s2.68.56,2.49-2.11l-.27-20.32s.25-3.12-3.46-3.07l-22.99.31s-4.89.07-4.86,2.29l.3,21.8s-.49,5.14,4.96,4.38Z"/>
  <rect class="cls-1" x="439.42" y="497.07" width="2.63" height="11.46" transform="translate(-6.79 6.04) rotate(-.78)"/>
  <path class="cls-1" d="M434.98,296.82l22.92-.71s4.04,1.45,3.97-4.18l-.23-16.79s.84-4.64-3.59-5.08l-22.75-1.4s-5.54-.93-5.7,2.29l.89,21,.13,2.21s-.96,3.33,4.36,2.66Z"/>
  <polygon class="cls-1" points="304 538.62 399.33 561.08 398.3 225.48 298.48 250.74 304 538.62"/>
  <polyline class="cls-1" points="304 538.62 326.13 537.04 322.25 251.38 298.48 250.74"/>
  <line class="cls-1" x1="322.25" y1="251.38" x2="398.3" y2="225.48"/>
  <line class="cls-1" x1="326.13" y1="537.04" x2="399.33" y2="561.08"/>
  <polyline class="cls-1" points="426.56 426.26 426.39 413.55 439.22 413.37 441.84 413.34 442.02 426.05 440.25 426.08"/>
  <polyline class="cls-1" points="439.22 413.37 438.73 369.74 441.25 369.71 441.08 357.29 439.7 357.26"/>
  <polyline class="cls-1" points="425.63 357.26 425.8 370.03 438.73 369.74"/>
  <line class="cls-1" x1="426.39" y1="413.55" x2="425.8" y2="370.03"/>
  <polygon class="cls-1" points="286.97 538.85 280.6 532.86 273.53 254.86 283.06 250.95 286.97 538.85"/>
  <polyline class="cls-1" points="286.97 538.85 101.74 544.95 98.38 244.44 283.06 250.95"/>
  <polyline class="cls-1" points="273.53 254.86 101.16 249.82 98.38 244.44 101.16 249.82 101.74 544.95"/>
  <line class="cls-1" x1="280.6" y1="532.86" x2="101.73" y2="537.44"/>
  <path class="cls-1" d="M88.29,507.93l-2.42-1.2-.04-2.7-.86-.07.22,3.4-13.82,4.12c-3.23-.22-2.85-4.41-2.85-4.41l.15-21.04c.16-1.14,5.03-2.16,5.03-2.16l11.61-.16v1.94s.75-.13.75-.13l2.05-1.7"/>
  <polyline class="cls-1" points="71.37 511.48 71.24 502.14 71.01 484.6"/>
  <polyline class="cls-1" points="71.24 502.14 75.67 502.23 75.65 500.75 71.22 500.59"/>
  <polyline class="cls-1" points="71.15 494.97 75.72 495.09 75.7 493.5 71.13 493.46"/>
  <rect class="cls-1" x="79.19" y="487.49" width="7.33" height="15.82" transform="translate(-6.72 1.17) rotate(-.78)"/>
  <polygon class="cls-1" points="78.37 306.11 85 306.48 84.79 290.9 78.16 290.6 78.37 306.11"/>
  <path class="cls-1" d="M86.66,285.85l-2.32,3.81-.65.14-.04-3.26-8.92-3.79c-3.8-1.32-4.42,1.17-4.42,1.17l.32,23.8c.07.91,1.08,1.51,2.5,1.91,3.7,1.04,10.19.72,10.19.72l1.73-.94,1.34.92"/>
  <polyline class="cls-1" points="73.13 309.63 73.11 307.76 72.96 300.74 72.59 282.37"/>
  <path class="cls-1" d="M77.64,300.67l-4.68.06,4.68-.06Z"/>
  <path class="cls-1" d="M77.62,299.01l.02,1.66-.02-1.66Z"/>
  <line class="cls-1" x1="72.9" y1="299.08" x2="77.62" y2="299.01"/>
  <polyline class="cls-1" points="72.91 293.21 77.54 293.15 77.51 291.15 72.83 291.21"/>
</svg>