<svg width="1222" height="819" viewBox="0 0 1222 819" fill="none" xmlns="http://www.w3.org/2000/svg">
<path d="M775.33 699.718L769.694 705.891L768.995 711.013L782.402 712.248L792.622 725.127L797.558 726.178L797.208 729.697L796.858 736.754L798.792 737.289L798.608 739.758C799.142 748.05 802.659 744.346 802.659 744.346L805.477 741.693L807.595 743.277L807.061 750.15L812.18 759.326L804.427 772.206L815.882 767.618L823.12 772.206L823.819 769.553L827.171 771.137L829.455 776.26L833.341 777.144L838.276 774.675L838.46 767.968L842.346 763.564L842.53 754.922L846.416 753.504L851.886 744.678L847.65 744.143L847.834 740.255L832.144 729.679L831.609 720.853L825.974 720.503L826.158 714.864H830.394L834.446 710.626L834.795 705.854L836.563 703.035L852.438 703.569L860.541 697.931L859.841 694.227C860.375 691.758 857.024 691.408 857.024 691.408L852.254 696.18L837.263 696.53L833.746 699.349L832.862 698.115L828.46 692.992L838.515 682.582L848.736 681.163L848.387 676.225L851.038 670.586L846.453 657.891L858.092 654.003L867.963 641.123L875.2 639.888L879.086 636.185L879.62 628.593L887.558 615.898L892.843 615.197L894.077 600.899L901.314 590.322L900.78 584.149L905.9 578.511L903.616 576.742V567.916L900.265 564.747L901.499 555.571L899.565 552.917L898.515 542.156L893.93 541.622L889.694 537.734L890.228 531.377L894.814 531.193L897.815 527.305L897.281 512.49L905.753 508.971L917.042 508.787L921.093 506.318L922.88 514.167L935.955 522.901L936.968 513.504L946.876 507.644L947.797 519.032L949.215 531.469L945.182 539.356L951.056 545.731L950.209 558.482L960.78 564.857L962.29 573.407L973.193 585.66L975.881 584.997L980.743 588.848L988.294 588.682L990.301 591.538L1001.2 591.207L1007.58 585.66L1011.61 589.696L1017.48 588.019L1019.16 583.818L1018.83 569.556L1025.7 565.705L1030.56 571.583L1044.15 566.553L1049.69 560.343L1059.75 558.169L1068.64 552.457L1073.84 557.819L1077.52 552.106L1081.55 551.609L1081.88 557.321L1091.94 562.683L1091.53 567.677L1090.1 575.6L1093.45 579.801V590.875L1103.01 591.207L1105.7 594.394L1109.73 595.058L1110.74 602.944L1116.62 596.071L1108.4 610.333L1116.12 614.7L1118.13 611.015L1132.88 609.172L1141.94 596.255L1122.82 568.893L1123.16 563.181L1127.69 559.495L1127.85 553.12L1136.06 548.421L1136.56 539.356L1127.67 531.303L1125.99 532.98L1122.64 532.649L1119.78 535.67L1114.76 536.002L1113.74 532.649L1107.7 532.151L1107.04 527.95L1102.68 525.776L1106.36 516.876L1104.35 513.522L1103.69 501.951L1106.54 496.755L1103.03 490.379L1110.08 484.833L1113.43 475.767L1117.11 472.414L1116.95 468.728L1117.8 462.519L1127.02 462.85L1138.42 454.467L1144.63 454.632L1148.99 456.807V452.771L1153.19 449.915L1158.9 459.81L1165.44 457.636L1156.54 462.5L1156.71 475.085L1164.92 473.74L1171.13 483.801L1175.66 483.469L1178.02 482.972L1182.22 487.007L1184.74 484.999L1184.57 480.798L1191.96 481.461L1197.83 484.317L1203.71 481.295L1209.42 488.168L1213.62 488.002L1219.82 482.64L1219.49 473.74L1221 469.889L1220.5 455.793L1208.75 445.898L1205.57 447.741L1196.51 447.078L1192.99 429.628L1199.86 419.899L1200.19 416.048L1196.51 410.852L1206.4 403.297V397.254L1202.03 389.036L1208.73 383.323L1209.4 372.249L1211.57 369.393L1211.24 351.096L1214.59 342.031L1214.26 329.611L1198 323.236L1198.33 315.35L1191.79 308.643L1185.92 308.477L1174.35 316.031L1173.34 326.276L1168.81 327.124L1167.3 332.836L1170.48 336.871L1164.11 339.561L1157.74 336.042L1150.52 335.029L1150.19 345.937L1145.83 350.304L1149.67 355.168L1148.66 361.875L1137.59 362.723L1130.04 368.767L1119.8 369.614L1114.94 371.789L1110.41 364.732L1100.85 364.566L1100.69 358.024L1092.47 350.801L1086.1 350.636L1079.73 345.771L1067.65 345.605L1054.9 337.719L1054.57 330.496L1051.72 325.797L1056.41 313.046L1051.06 309.011L1052.57 304.312H1046.86L1045.02 306.321L1037.3 306.155L1026.07 297.771L1018.18 298.269L1015 295.247H1007.12L1000.41 289.535L992.695 289.7L988.846 294.731L981.13 289.535L968.386 296.408L962.18 290.364L947.428 296.408L944.905 294.233L945.568 289.369L955.126 279.64L953.285 264.033L945.9 245.57L963.671 197.57L973.395 191.029L973.892 181.631L981.443 171.571L990.835 170.392C990.835 170.392 995.034 166.19 995.2 164.016C995.366 161.842 988.994 155.964 988.994 155.964L988.496 144.392L993.855 135.493L993.358 124.253C995.531 117.03 1006.84 117.896 1006.84 117.896C1025.62 115.169 1001.96 100.243 1001.96 100.243L996.507 100.962C993.487 95.6553 985.181 97.6638 985.181 97.6638C983.027 89.3352 975.863 92.9283 975.863 92.9283C972.843 86.3317 971.13 86.9029 971.13 86.9029C959.362 90.3486 955.347 82.5912 955.347 82.5912C950.191 63.7966 943.727 62.3594 943.727 62.3594C936.121 64.7916 928.239 61.3459 928.239 61.3459C923.211 53.5886 918.626 55.8918 918.626 55.8918C905.569 62.9306 902.843 58.4715 902.843 58.4715L875.219 40.6166C873.027 22.559 864.188 26.3548 864.188 26.3548L859.27 22.1905C853.359 17.0865 847.723 17.3629 847.723 17.3629C846.379 12.5352 836.177 6.62045 836.177 6.62045C820.873 -4.39835 818.737 3.67228 821.149 6.62045C823.562 9.56863 848 26.5022 848 26.5022C864.114 27.8473 860.615 44.7625 860.615 44.7625C873.506 54.6941 868.405 57.3843 868.405 57.3843C844.519 58.9874 843.433 50.4008 843.433 50.4008C843.156 41.5379 819.271 35.0888 819.271 35.0888C808.81 25.4151 809.602 29.7083 809.602 29.7083C820.615 40.4508 814.98 37.7605 814.98 37.7605C801.02 26.4838 797.54 35.8811 797.54 35.8811C819.547 47.4342 813.101 51.7275 813.101 51.7275C795.072 62.6542 784.722 66.6527 782.07 63.7045C781.26 62.8016 781.168 61.2722 781.775 59.098L779.179 55.0626L773.709 54.7678L774.28 50.1613L781.775 49.8665L781.481 45.5364H774.851L773.691 41.7959L767.65 42.0907L764.777 38.0554L764.206 32.288L760.468 32.8592L760.173 37.1893L753.267 38.9214L753.562 44.9651L758.737 45.26L762.77 48.7241L760.763 55.0626L758.737 57.2185L751.831 51.101L743.857 49.7744L744.649 40.7272L739.068 39.1241L738.811 35.9364L744.63 27.8289L738.553 22.9091L735.901 26.8892L732.715 27.6815L731.389 25.2861L731.131 15.4466L722.365 10.1214L722.899 20.7533L717.319 25.2677L715.459 23.6646L714.925 13.0327L712.531 9.0527L699.511 7.855L698.719 12.9038L702.697 13.6961V17.4181L696.325 15.8151L688.35 20.0715L684.63 18.2105L682.77 21.1402H679.05L667.356 34.7018L671.868 35.4941L671.334 39.7506L667.356 39.4926L664.704 44.5414L660.984 44.2834L657.264 48.7978L663.636 54.9152L657.522 61.825L663.636 62.083L666.03 66.063H672.678V72.9728L677.19 73.2308L676.932 68.9744L691.279 68.7164C690.487 62.0646 698.461 60.4799 698.461 60.4799L702.973 61.8066L711.205 58.0845L713.065 65.7866L708.553 66.8553L707.227 73.5072L710.947 79.6246L708.295 88.1375L700.063 87.0688L701.923 81.4857L693.691 75.1102L686.785 74.3179L684.667 81.2277L679.345 81.4857L677.227 85.7421L672.973 86.3686V92.1359L682.126 91.9333L682.531 95.9133L663.249 101.091L656.491 93.9233L653.304 102.289L648.922 98.5114L637.393 98.7141L629.437 90.754V84.3785L622.679 83.9732L619.898 81.9832L610.947 85.9632L608.756 80.1958L604.373 80.6012L595.625 89.9617L591.85 90.1644L588.664 93.739L581.113 93.9417C577.135 109.254 572.163 104.887 572.163 104.887L568.59 102.307C564.023 109.678 558.24 109.07 558.24 109.07L553.066 106.084L542.126 106.674L537.743 110.249L528.793 109.659L529.198 99.5064L527.614 95.5263L523.232 95.121L509.309 97.5164L509.106 94.5313L503.139 95.121C504.539 110.636 467.541 115.021 467.541 115.021L458.186 104.481H467.725L470.304 99.9118L466.731 95.1394L472.293 90.754L470.101 86.9766L464.539 92.3571L459.972 90.5697C448.83 108.683 448.241 92.1544 448.241 92.1544L443.471 93.3521V98.3271L437.302 98.1244C438.701 104.297 426.952 109.659 426.952 109.659L420.193 110.857L418.407 115.832H421.188L425.166 114.045L430.138 117.619L426.565 121.194L424.171 119.996L419.604 122.981L423.582 128.362L418.204 135.732L412.44 134.94L409.457 130.96L403.692 128.97L402.109 134.94L410.267 139.509L400.12 148.262C393.95 160.202 379.641 151.45 379.641 151.45L365.516 152.242L359.144 158.009L353.969 158.599L350.396 152.223C320.765 157.788 341.52 133.134 341.52 133.134L339.66 130.923L330.507 130.333L323.343 125.948L319.568 129.522L313.601 130.112L309.034 133.503L307.247 130.72L302.275 130.518L298.297 126.537H292.533L285.977 130.923L286.382 140.67L290.562 140.081L290.765 144.466L288.371 146.861L281.207 148.059L280.617 153.624L273.251 153.421L274.246 163.371L268.279 163.777L264.503 172.732L257.542 178.112L258.905 183.124L262.514 182.479L289.163 181.484L291.354 178.296L295.535 177.301L298.518 180.692L302.201 181.687L302.312 185.464L305.295 189.039L301.907 194.806L292.754 195.396L292.956 203.761L287.579 207.152L275.24 206.562L272.054 211.334L276.032 216.715L275.24 228.452L255.148 244.575L254.743 249.955L247.487 256.312L250.765 258.321L237.45 270.851L220.747 279.216L221.336 286.973L211.594 287.766L211.999 292.151L206.824 296.537L213.583 301.309L208.61 306.874L201.649 306.284L188.721 325.392H179.973L157.708 333.555L153.27 332.781L145.388 343.505L138.684 347.227L138.021 350.414L145.204 361.415L145.001 379.712L140.029 384.89L139.624 392.057H136.051L136.254 396.24L142.81 402.21V406.393L136.254 414.556L124.522 418.13L124.725 424.69L119.348 424.893L118.758 429.868L91.5208 442.803L90.1211 449.178L49.9556 485.386L60.3054 495.741L60.508 502.503L55.5357 502.706L47.5799 510.666L46.5854 520.414L39.4216 525.794L38.4271 529.369L41.9998 536.131L35.5173 545.75L44.9832 548.679L63.2704 563.807L60.287 568.377L59.6977 573.352L50.3423 587.485L50.1397 593.657L45.37 596.053L46.1619 600.825L50.9316 609.983L45.7567 615.363L40.3792 612.968L33.6205 611.973L28.6481 615.953L24.4677 615.75L17.3038 623.508H9.93734L10.7292 629.478L7.54325 632.26L15.9042 634.25L15.3149 637.438L2 657.135L7.3775 657.725L13.7495 651.957L23.1049 652.16L25.499 655.938L29.882 653.542V649.157L42.6076 648.751L41.8157 652.529L55.5357 653.118L68.0586 645.158L67.8561 636.995L77.8007 629.035L83.1783 630.436L92.7178 624.871L101.079 616.911L100.876 610.536L95.9038 607.551L90.5263 612.728L81.1709 601.581L86.1433 596.2L83.9517 590.433C95.4802 561.375 110.397 566.35 110.397 566.35C117.948 588.83 129.09 569.74 129.09 569.74L137.451 568.948L146.401 562.388C145.609 551.646 157.929 552.438 157.929 552.438C159.329 556.418 166.088 556.621 166.088 556.621C172.054 552.641 183.196 553.046 183.196 553.046C183.196 553.046 221.502 553.102 220.912 554.097C220.323 555.092 233.638 558.279 233.638 558.279L233.233 565.244L224.485 570.422L228.26 580.372L232.238 580.962L231.446 587.927L237.413 588.13L244.172 597.085L250.526 600.659L248.334 611.789C243.564 613.779 233.62 633.071 233.62 633.071L234.817 639.041C225.48 649.175 233.822 658.333 233.822 658.333L244.559 661.318L257.874 661.908L258.665 668.873L255.885 674.235L256.474 681.789C245.148 697.691 257.671 693.324 257.671 693.324L267.8 684.369L268.205 689.344L274.559 692.126L275.958 697.894L281.925 703.256L282.128 710.221L289.476 711.621L292.846 717.794L288.481 722.566L290.268 726.546L296.437 728.739L295.848 738.081L303.398 745.433L303.601 750.611L308.96 753.983L313.14 764.32L316.916 766.107L324.466 758.35L329.236 759.345L337.394 766.697L340.58 764.117L340.783 759.934L346.75 753.577L357.284 754.775L366.823 740.845L374.779 745.617L379.954 744.033L390.691 751.587L394.263 746.41L398.628 746.612L408.37 737.657L414.926 735.87L415.129 729.513L419.696 730.103L420.893 728.113L423.674 725.92L428.646 728.113L432.624 729.31L434.024 725.736L431.832 721.553L436.013 716.78L441.188 716.578L446.363 721.94L459.475 722.529L464.834 720.539L470.009 728.094L478.351 730.876L477.357 736.846L479.143 739.629H485.11L487.302 735.059L493.858 734.856L503.987 743.406L509.162 740.034L520.285 743.812L524.852 740.237L521.869 736.054V731.871L524.06 729.292L524.263 722.124L531.611 712.174L547.117 712.579L549.898 710.184L555.073 712.377L561.242 706.812L565.22 689.713L562.826 686.93L563.029 679.376L565.607 673.203L576.141 668.633L583.894 669.223L588.259 665.648L588.848 660.47L597.982 656.103L597.78 646.153L601.555 640.386L595.994 633.421L594.005 623.286L586.251 618.109L586.454 613.742L580.69 612.949L578.112 608.767L593.415 592.46L601.758 596.827L612.292 591.262L617.651 578.935L626.399 575.95L625.607 567.603L632.771 569.003L640.929 562.83L640.34 556.068L634.17 551.701L636.951 544.533L643.912 544.331L652.457 535.191L659.014 534.989L664.575 530.622L675.514 528.632L680.487 533.809L677.503 541.972L682.862 553.304L679.676 558.666L682.071 568.414L679.879 570.993L678.682 581.533L670.137 593.27L679.087 605.008L674.317 612.562L681.076 612.968L682.66 619.933L700.155 624.705L701.15 631.873L708.7 637.051L710.892 645.398L719.05 647.977L716.472 653.948L721.647 660.913L724.225 660.12L731.186 660.71L731.978 665.888L738.534 666.293L743.102 670.07V674.64C746.287 680.002 747.871 696.309 747.871 696.309C736.343 701.487 734.943 708.046 734.943 708.046L725.993 719.784L725.201 725.349L707.908 739.279L699.953 735.299C691.002 728.334 688.019 736.883 688.019 736.883L696.767 748.418L701.334 751.993C714.649 755.973 711.279 771.488 711.279 771.488L708.498 780.627C703.728 781.419 703.139 783.999 703.139 783.999L703.93 793.746L710.689 802.296V806.073L715.459 811.435L716.453 816.208L724.999 817L724.796 814.42L719.621 810.643L719.418 805.871L711.26 794.926L711.849 786.763L719.013 787.352L721.794 783.778L722.991 777.015C731.149 779.411 725.569 766.881 725.569 766.881L720.597 762.514L719.197 754.351L718.203 744.807C721.573 745.396 724.372 744.604 724.372 744.604L722.973 739.242L735.091 730.895L748.405 716.78L750.192 711.216C757.356 707.641 759.934 700.676 759.934 700.676L757.742 694.909L754.372 692.716L753.783 681.181L751.205 675.211L755.569 668.246L761.739 668.652L769.492 671.839L774.464 668.062L787.19 679.799L788.184 683.779L786.6 687.759L781.628 688.165L780.044 697.12L775.532 699.792L775.33 699.718Z" stroke="#F9EDD9" stroke-width="2" stroke-miterlimit="10"/>
</svg>
