<?xml version="1.0" encoding="UTF-8"?>
<svg id="Ebene_1" data-name="Ebene 1" xmlns="http://www.w3.org/2000/svg" viewBox="0 0 841.89 595.28">
  <defs>
    <style>
      .cls-1 {
        fill: none;
        stroke: #f9edd9;
        stroke-miterlimit: 10;
        stroke-width: 2px;
      }
    </style>
  </defs>
  <path id="Schweiz" class="cls-1" d="M468.28,453.79l-3.06,3.35-.38,2.78,7.28.67,5.55,6.99,2.68.57-.19,1.91-.19,3.83,1.05.29-.1,1.34c.29,4.5,2.2,2.49,2.2,2.49l1.53-1.44,1.15.86-.29,3.73,2.78,4.98-4.21,6.99,6.22-2.49,3.93,2.49.38-1.44,1.82.86,1.24,2.78,2.11.48,2.68-1.34.1-3.64,2.11-2.39.1-4.69,2.11-.77,2.97-4.79-2.3-.29.1-2.11-8.52-5.74-.29-4.79-3.06-.19.1-3.06h2.3l2.2-2.3.19-2.59.96-1.53,8.62.29,4.4-3.06-.38-2.01c.29-1.34-1.53-1.53-1.53-1.53l-2.59,2.59-8.14.19-1.91,1.53-.48-.67-2.39-2.78,5.46-5.65,5.55-.77-.19-2.68,1.44-3.06-2.49-6.89,6.32-2.11,5.36-6.99,3.93-.67,2.11-2.01.29-4.12,4.31-6.89,2.87-.38.67-7.76,3.93-5.74-.29-3.35,2.78-3.06-1.24-.96v-4.79l-1.82-1.72.67-4.98-1.05-1.44-.57-5.84-2.49-.29-2.3-2.11.29-3.45,2.49-.1,1.63-2.11-.29-8.04,4.6-1.91,6.13-.1,2.2-1.34.97,4.26,7.1,4.74.55-5.1,5.38-3.18.5,6.18.77,6.75-2.19,4.28,3.19,3.46-.46,6.92,5.74,3.46.82,4.64,5.92,6.65,1.46-.36,2.64,2.09,4.1-.09,1.09,1.55,5.92-.18,3.46-3.01,2.19,2.19,3.19-.91.91-2.28-.18-7.74,3.73-2.09,2.64,3.19,7.38-2.73,3.01-3.37,5.46-1.18,4.83-3.1,2.82,2.91,2-3.1,2.19-.27.18,3.1,5.46,2.91-.22,2.71-.78,4.3,1.82,2.28v6.01l5.19.18,1.46,1.73,2.19.36.55,4.28,3.19-3.73-4.46,7.74,4.19,2.37,1.09-2,8.01-1,4.92-7.01-10.38-14.85.18-3.1,2.46-2,.09-3.46,4.46-2.55.27-4.92-4.83-4.37-.91.91-1.82-.18-1.55,1.64-2.73.18-.55-1.82-3.28-.27-.36-2.28-2.37-1.18,2-4.83-1.09-1.82-.36-6.28,1.55-2.82-1.91-3.46,3.83-3.01,1.82-4.92,2-1.82-.09-2,.46-3.37,5.01.18,6.19-4.55,3.37.09,2.37,1.18v-2.19l2.28-1.55,3.1,5.37,3.55-1.18-4.83,2.64.09,6.83,4.46-.73,3.37,5.46,2.46-.18,1.28-.27,2.28,2.19,1.37-1.09-.09-2.28,4.01.36,3.19,1.55,3.19-1.64,3.1,3.73,2.28-.09,3.37-2.91-.18-4.83.82-2.09-.27-7.65-6.38-5.37-1.73,1-4.92-.36-1.91-9.47,3.73-5.28.18-2.09-2-2.82,5.37-4.1v-3.28l-2.37-4.46,3.64-3.1.36-6.01,1.18-1.55-.18-9.93,1.82-4.92-.18-6.74-8.83-3.46.18-4.28-3.55-3.64-3.19-.09-6.28,4.1-.55,5.56-2.46.46-.82,3.1,1.73,2.19-3.46,1.46-3.46-1.91-3.92-.55-.18,5.92-2.37,2.37,2.09,2.64-.55,3.64-6.01.46-4.1,3.28-5.56.46-2.64,1.18-2.46-3.83-5.19-.09-.09-3.55-4.46-3.92-3.46-.09-3.46-2.64-6.56-.09-6.92-4.28-.18-3.92-1.55-2.55,2.55-6.92-2.91-2.19.82-2.55h-3.1l-1,1.09-4.19-.09-6.1-4.55-4.28.27-1.73-1.64h-4.28l-3.64-3.1-4.19.09-2.09,2.73-4.19-2.82-6.92,3.73-3.37-3.28-8.01,3.28-1.37-1.18.36-2.64,5.19-5.28-1-8.47-4.01-10.02,9.65-26.05,5.28-3.55.27-5.1,4.1-5.46,5.1-.64s2.28-2.28,2.37-3.46-3.37-4.37-3.37-4.37l-.27-6.28,2.91-4.83-.27-6.1c1.18-3.92,7.32-3.45,7.32-3.45,10.2-1.48-2.65-9.58-2.65-9.58l-2.96.39c-1.64-2.88-6.15-1.79-6.15-1.79-1.17-4.52-5.06-2.57-5.06-2.57-1.64-3.58-2.57-3.27-2.57-3.27-6.39,1.87-8.57-2.34-8.57-2.34-2.8-10.2-6.31-10.98-6.31-10.98-4.13,1.32-8.41-.55-8.41-.55-2.73-4.21-5.22-2.96-5.22-2.96-7.09,3.82-8.57,1.4-8.57,1.4l-15-9.69c-1.19-9.8-5.99-7.74-5.99-7.74l-2.67-2.26c-3.21-2.77-6.27-2.62-6.27-2.62-.73-2.62-6.27-5.83-6.27-5.83-8.31-5.98-9.47-1.6-8.16,0s14.58,10.79,14.58,10.79c8.75.73,6.85,9.91,6.85,9.91,7,5.39,4.23,6.85,4.23,6.85-12.97.87-13.56-3.79-13.56-3.79-.15-4.81-13.12-8.31-13.12-8.31-5.68-5.25-5.25-2.92-5.25-2.92,5.98,5.83,2.92,4.37,2.92,4.37-7.58-6.12-9.47-1.02-9.47-1.02,11.95,6.27,8.45,8.6,8.45,8.6-9.79,5.93-15.41,8.1-16.85,6.5-.44-.49-.49-1.32-.16-2.5l-1.41-2.19-2.97-.16.31-2.5,4.07-.16-.16-2.35h-3.6l-.63-2.03-3.28.16-1.56-2.19-.31-3.13-2.03.31-.16,2.35-3.75.94.16,3.28,2.81.16,2.19,1.88-1.09,3.44-1.1,1.17-3.75-3.32-4.33-.72.43-4.91-3.03-.87-.14-1.73,3.16-4.4-3.3-2.67-1.44,2.16-1.73.43-.72-1.3-.14-5.34-4.76-2.89.29,5.77-3.03,2.45-1.01-.87-.29-5.77-1.3-2.16-7.07-.65-.43,2.74,2.16.43v2.02l-3.46-.87-4.33,2.31-2.02-1.01-1.01,1.59h-2.02l-6.35,7.36,2.45.43-.29,2.31-2.16-.14-1.44,2.74-2.02-.14-2.02,2.45,3.46,3.32-3.32,3.75,3.32.14,1.3,2.16h3.61v3.75l2.45.14-.14-2.31,7.79-.14c-.43-3.61,3.9-4.47,3.9-4.47l2.45.72,4.47-2.02,1.01,4.18-2.45.58-.72,3.61,2.02,3.32-1.44,4.62-4.47-.58,1.01-3.03-4.47-3.46-3.75-.43-1.15,3.75-2.89.14-1.15,2.31-2.31.34v3.13l4.97-.11.22,2.16-10.47,2.81-3.67-3.89-1.73,4.54-2.38-2.05-6.26.11-4.32-4.32v-3.46l-3.67-.22-1.51-1.08-4.86,2.16-1.19-3.13-2.38.22-4.75,5.08-2.05.11-1.73,1.94-4.1.11c-2.16,8.31-4.86,5.94-4.86,5.94l-1.94-1.4c-2.48,4-5.62,3.67-5.62,3.67l-2.81-1.62-5.94.32-2.38,1.94-4.86-.32.22-5.51-.86-2.16-2.38-.22-7.56,1.3-.11-1.62-3.24.32c.76,8.42-19.33,10.8-19.33,10.8l-5.08-5.72h5.18l1.4-2.48-1.94-2.59,3.02-2.38-1.19-2.05-3.02,2.92-2.48-.97c-6.05,9.83-6.37.86-6.37.86l-2.59.65v2.7l-3.35-.11c.76,3.35-5.62,6.26-5.62,6.26l-3.67.65-.97,2.7h1.51l2.16-.97,2.7,1.94-1.94,1.94-1.3-.65-2.48,1.62,2.16,2.92-2.92,4-3.13-.43-1.62-2.16-3.13-1.08-.86,3.24,4.43,2.48-5.51,4.75c-3.35,6.48-11.12,1.73-11.12,1.73l-7.67.43-3.46,3.13-2.81.32-1.94-3.46c-16.09,3.02-4.82-10.36-4.82-10.36l-1.01-1.2-4.97-.32-3.89-2.38-2.05,1.94-3.24.32-2.48,1.84-.97-1.51-2.7-.11-2.16-2.16h-3.13l-3.56,2.38.22,5.29,2.27-.32.11,2.38-1.3,1.3-3.89.65-.32,3.02-4-.11.54,5.4-3.24.22-2.05,4.86-3.78,2.92.74,2.72,1.96-.35,14.47-.54,1.19-1.73,2.27-.54,1.62,1.84,2,.54.06,2.05,1.62,1.94-1.84,3.13-4.97.32.11,4.54-2.92,1.84-6.7-.32-1.73,2.59,2.16,2.92-.43,6.37-10.91,8.75-.22,2.92-3.94,3.45,1.78,1.09-7.23,6.8-9.07,4.54.32,4.21-5.29.43.22,2.38-2.81,2.38,3.67,2.59-2.7,3.02-3.78-.32-7.02,10.37h-4.75l-12.09,4.43-2.41-.42-4.28,5.82-3.64,2.02-.36,1.73,3.9,5.97-.11,9.93-2.7,2.81-.22,3.89h-1.94l.11,2.27,3.56,3.24v2.27l-3.56,4.43-6.37,1.94.11,3.56-2.92.11-.32,2.7-14.79,7.02-.76,3.46-21.81,19.65,5.62,5.62.11,3.67-2.7.11-4.32,4.32-.54,5.29-3.89,2.92-.54,1.94,1.94,3.67-3.52,5.22,5.14,1.59,9.93,8.21-1.62,2.48-.32,2.7-5.08,7.67-.11,3.35-2.59,1.3.43,2.59,2.59,4.97-2.81,2.92-2.92-1.3-3.67-.54-2.7,2.16-2.27-.11-3.89,4.21h-4l.43,3.24-1.73,1.51,4.54,1.08-.32,1.73-7.23,10.69,2.92.32,3.46-3.13,5.08.11,1.3,2.05,2.38-1.3v-2.38l6.91-.22-.43,2.05,7.45.32,6.8-4.32-.11-4.43,5.4-4.32,2.92.76,5.18-3.02,4.54-4.32-.11-3.46-2.7-1.62-2.92,2.81-5.08-6.05,2.7-2.92-1.19-3.13c6.26-15.77,14.36-13.07,14.36-13.07,4.1,12.2,10.15,1.84,10.15,1.84l4.54-.43,4.86-3.56c-.43-5.83,6.26-5.4,6.26-5.4.76,2.16,4.43,2.27,4.43,2.27,3.24-2.16,9.29-1.94,9.29-1.94,0,0,20.8.03,20.48.57s6.91,2.27,6.91,2.27l-.22,3.78-4.75,2.81,2.05,5.4,2.16.32-.43,3.78,3.24.11,3.67,4.86,3.45,1.94-1.19,6.04c-2.59,1.08-7.99,11.55-7.99,11.55l.65,3.24c-5.07,5.5-.54,10.47-.54,10.47l5.83,1.62,7.23.32.43,3.78-1.51,2.91.32,4.1c-6.15,8.63.65,6.26.65,6.26l5.5-4.86.22,2.7,3.45,1.51.76,3.13,3.24,2.91.11,3.78,3.99.76,1.83,3.35-2.37,2.59.97,2.16,3.35,1.19-.32,5.07,4.1,3.99.11,2.81,2.91,1.83,2.27,5.61,2.05.97,4.1-4.21,2.59.54,4.43,3.99,1.73-1.4.11-2.27,3.24-3.45,5.72.65,5.18-7.56,4.32,2.59,2.81-.86,5.83,4.1,1.94-2.81,2.37.11,5.29-4.86,3.56-.97.11-3.45,2.48.32.65-1.08,1.51-1.19,2.7,1.19,2.16.65.76-1.94-1.19-2.27,2.27-2.59,2.81-.11,2.81,2.91,7.12.32,2.91-1.08,2.81,4.1,4.53,1.51-.54,3.24.97,1.51h3.24l1.19-2.48,3.56-.11,5.5,4.64,2.81-1.83,6.04,2.05,2.48-1.94-1.62-2.27v-2.27l1.19-1.4.11-3.89,3.99-5.4,8.42.22,1.51-1.3,2.81,1.19,3.35-3.02,2.16-9.28-1.3-1.51.11-4.1,1.4-3.35,5.72-2.48,4.21.32,2.37-1.94.32-2.81,4.96-2.37-.11-5.4,2.05-3.13-3.02-3.78-1.08-5.5-4.21-2.81.11-2.37-3.13-.43-1.4-2.27,8.31-8.85,4.53,2.37,5.72-3.02,2.91-6.69,4.75-1.62-.43-4.53,3.89.76,4.43-3.35-.32-3.67-3.35-2.37,1.51-3.89,3.78-.11,4.64-4.96,3.56-.11,3.02-2.37,5.94-1.08,2.7,2.81-1.62,4.43,2.91,6.15-1.73,2.91,1.3,5.29-1.19,1.4-.65,5.72-4.64,6.37,4.86,6.37-2.59,4.1,3.67.22.86,3.78,9.5,2.59.54,3.89,4.1,2.81,1.19,4.53,4.43,1.4-1.4,3.24,2.81,3.78,1.4-.43,3.78.32.43,2.81,3.56.22,2.48,2.05v2.48c1.73,2.91,2.59,11.76,2.59,11.76-6.26,2.81-7.02,6.37-7.02,6.37l-4.86,6.37-.43,3.02-9.39,7.56-4.32-2.16c-4.86-3.78-6.48.86-6.48.86l4.75,6.26,2.48,1.94c7.23,2.16,5.4,10.58,5.4,10.58l-1.51,4.96c-2.59.43-2.91,1.83-2.91,1.83l.43,5.29,3.67,4.64v2.05l2.59,2.91.54,2.59,4.64.43-.11-1.4-2.81-2.05-.11-2.59-4.43-5.94.32-4.43,3.89.32,1.51-1.94.65-3.67c4.43,1.3,1.4-5.5,1.4-5.5l-2.7-2.37-.76-4.43-.54-5.18c1.83.32,3.35-.11,3.35-.11l-.76-2.91,6.58-4.53,7.23-7.66.97-3.02c3.89-1.94,5.29-5.72,5.29-5.72l-1.19-3.13-1.83-1.19-.32-6.26-1.4-3.24,2.37-3.78,3.35.22,4.21,1.73,2.7-2.05,6.91,6.37.54,2.16-.86,2.16-2.7.22-.86,4.86-2.45,1.45Z"/>
</svg>