<svg width="87" height="166" viewBox="0 0 87 166" fill="none" xmlns="http://www.w3.org/2000/svg">
<path d="M45.8454 1.04596H39.998V166H45.8454V1.04596Z" fill="#F9EDD9"/>
<path d="M41.7876 0.00462554H44.0612C45.4659 0.00462554 46.6093 0.81454 46.6093 1.80958V2.65652C46.6093 2.75371 46.4982 2.83701 46.3545 2.83701H39.4814C39.3442 2.83701 39.2266 2.75833 39.2266 2.65652V1.81421C39.2266 0.814541 40.3764 0 41.7876 0V0.00462554Z" fill="#DADADA"/>
<path d="M6.60812 54.8029L42.8477 54.8029V40.1193H6.60812V54.8029Z" fill="#348BCB"/>
<path d="M6.702 40.107V45.7314V54.7906L0 47.4488L6.702 40.107Z" fill="#F9EDD9"/>
<path d="M6.702 45.4124L1.83634 45.4369L0 47.4487L1.84883 49.4728L6.702 49.5587V45.4124Z" fill="#BE8BBD"/>
<path d="M6.70181 49.5587V54.7906L1.84863 49.4728L6.70181 49.5587Z" fill="#F9EDD9"/>
<path d="M6.7016 45.4125L1.83594 45.437L6.7016 40.107V45.4125Z" fill="#F9EDD9"/>
<path d="M79.7112 17.4724H43.4717V32.156H79.7112V17.4724Z" fill="#348BCB"/>
<path d="M79.6172 32.1743V26.5498V17.4907L86.3192 24.8325L79.6172 32.1743Z" fill="#F9EDD9"/>
<path d="M79.6172 26.8689L84.4829 26.8444L86.3192 24.8326L84.4704 22.8085L79.6172 22.7227V26.8689Z" fill="#BE8BBD"/>
<path d="M79.6172 22.7225V17.4906L84.4704 22.8083L79.6172 22.7225Z" fill="#F9EDD9"/>
<path d="M79.6172 26.8689L84.4829 26.8444L79.6172 32.1744V26.8689Z" fill="#F9EDD9"/>
</svg>
