<svg width="250" height="35" viewBox="0 0 250 35" fill="none" xmlns="http://www.w3.org/2000/svg">
<g clip-path="url(#clip0_863_3417)">
<path d="M27.2637 0.806396C31.7517 0.806396 32.3127 0.806396 34.0617 0.906559C35.8107 0.973333 37.0317 1.27382 38.0877 1.67447C39.1437 2.1085 40.0677 2.67609 40.9917 3.61094C41.9157 4.5124 42.4767 5.44724 42.9057 6.54902C43.3017 7.61742 43.5987 8.81937 43.6647 10.6223C43.7307 12.3918 43.7637 12.9594 43.7637 17.5001C43.7637 22.0408 43.7307 22.6084 43.6647 24.3779C43.5987 26.1474 43.3017 27.3494 42.9057 28.4178C42.4767 29.5195 41.9157 30.4544 40.9917 31.3892C40.0677 32.3241 39.1437 32.8917 38.0877 33.3257C37.0317 33.7263 35.8107 33.9934 34.0617 34.0936C32.3127 34.1604 31.7517 34.1938 27.2637 34.1938C22.7757 34.1938 22.2147 34.1604 20.4657 34.0936C18.7167 33.9934 17.4957 33.7263 16.4727 33.3257C15.3837 32.8917 14.4597 32.3241 13.5357 31.3892C12.6117 30.4544 12.0507 29.5195 11.6217 28.4178C11.2257 27.3494 10.9617 26.1474 10.8627 24.3779C10.7967 22.6084 10.7637 22.0408 10.7637 17.5001C10.7637 12.9594 10.7967 12.3918 10.8627 10.6223C10.9287 8.81937 11.2257 7.61742 11.6217 6.54902C12.0507 5.44724 12.6117 4.5124 13.5357 3.61094C14.4597 2.67609 15.3837 2.1085 16.4727 1.67447C17.4957 1.27382 18.7167 0.973333 20.4657 0.906559C22.2147 0.806396 22.7757 0.806396 27.2637 0.806396ZM25.7787 3.81126C22.7097 3.81126 22.1157 3.81126 20.5977 3.91142C18.9807 3.9782 18.1227 4.2453 17.5287 4.47901C16.7697 4.77949 16.2087 5.14676 15.6477 5.71434C15.0867 6.28193 14.6907 6.84951 14.3937 7.65081C14.1627 8.21839 13.8987 9.11985 13.8327 10.7558C13.7667 12.492 13.7337 13.0262 13.7337 17.5001C13.7337 21.9406 13.7667 22.4748 13.8327 24.2443C13.8987 25.8469 14.1627 26.7484 14.3937 27.316C14.6907 28.1173 15.0537 28.6515 15.6477 29.2524C16.2417 29.8534 16.7697 30.1873 17.5287 30.4878C18.1227 30.7215 18.9807 30.9886 20.5977 31.0887C22.3467 31.1555 22.8747 31.1889 27.2637 31.1889C31.6857 31.1889 32.1807 31.1555 33.9297 31.0887C35.5467 30.9886 36.4047 30.7215 36.9987 30.4878C37.7577 30.1873 38.3187 29.82 38.8797 29.2524C39.4737 28.6849 39.8367 28.1173 40.1337 27.316C40.3647 26.7484 40.6287 25.8469 40.6947 24.2443C40.7607 22.4748 40.7937 21.9406 40.7937 17.5001C40.7937 13.0262 40.7607 12.492 40.6947 10.7558C40.6287 9.11985 40.3647 8.21839 40.1337 7.65081C39.8367 6.8829 39.4737 6.31531 38.8797 5.71434C38.3187 5.14676 37.7577 4.77949 36.9987 4.47901C36.4047 4.2453 35.5467 3.9782 33.9297 3.91142C32.1807 3.81126 31.6857 3.81126 27.2637 3.81126C26.7027 3.81126 26.2407 3.81126 25.7787 3.81126ZM36.0747 6.58241C37.1637 6.58241 38.0547 7.48387 38.0547 8.58565C38.0547 9.68744 37.1637 10.5889 36.0747 10.5889C34.9857 10.5889 34.0947 9.68744 34.0947 8.58565C34.0947 7.48387 34.9857 6.58241 36.0747 6.58241ZM27.2637 8.91953C31.9497 8.91953 35.7447 12.7591 35.7447 17.5001C35.7447 22.2411 31.9497 26.0806 27.2637 26.0806C22.5777 26.0806 18.7827 22.2411 18.7827 17.5001C18.7827 12.7591 22.5777 8.91953 27.2637 8.91953ZM27.2637 11.9244C24.2277 11.9244 21.7527 14.4284 21.7527 17.5001C21.7527 20.5717 24.2277 23.0424 27.2637 23.0424C30.2997 23.0424 32.7747 20.5717 32.7747 17.5001C32.7747 14.4284 30.2997 11.9244 27.2637 11.9244Z" fill="#0E2720"/>
</g>
<path d="M138.783 30L133.196 21.305L128.127 30H122.281L130.421 16.976L122.17 4.174H128.127L133.714 12.832L138.746 4.174H144.592L136.489 17.161L144.74 30H138.783Z" fill="#0E2720"/>
<path d="M234.035 34.1938V17.5001H238.607L239.237 11.7241H234.035L234.068 8.85275C234.068 7.35032 234.2 6.54902 236.321 6.54902H239.204V0.806396H234.631C229.131 0.806396 227.176 3.57755 227.176 8.28517V11.7241H223.764V17.5001H227.176V34.1938H234.035Z" fill="#0E2720"/>
<defs>
<clipPath id="clip0_863_3417">
<rect width="33" height="33.3874" fill="white" transform="translate(10.7637 0.806396)"/>
</clipPath>
</defs>
</svg>
