<?xml version="1.0" encoding="UTF-8"?>
<svg id="Ebene_1" data-name="Ebene 1" xmlns="http://www.w3.org/2000/svg" viewBox="0 0 346.04 589.15">
  <defs>
    <style>
      .cls-1 {
        fill: #f9edd9;
      }

      .cls-1, .cls-2, .cls-3, .cls-4 {
        stroke-width: 0px;
      }

      .cls-2 {
        fill: #348bcb;
      }

      .cls-3 {
        fill: #dadada;
      }

      .cls-4 {
        fill: #be8bbd;
      }
    </style>
  </defs>
  <rect class="cls-1" x="162.02" y="95.2" width="8.95" height="356.42"/>
  <g id="Wegweiser4">
    <g>
      <rect class="cls-2" x="105.72" y="105.76" width="58.02" height="23.94" transform="translate(269.46 235.45) rotate(180)"/>
      <polygon class="cls-1" points="105.87 105.73 105.87 114.9 105.87 129.67 95.14 117.7 105.87 105.73"/>
    </g>
    <polygon class="cls-4" points="105.87 114.38 98.08 114.42 95.14 117.7 98.1 121 105.87 121.14 105.87 114.38"/>
    <polygon class="cls-1" points="105.87 121.14 105.87 129.67 98.1 121 105.87 121.14"/>
    <polygon class="cls-1" points="105.87 114.38 98.08 114.42 105.87 105.73 105.87 114.38"/>
  </g>
  <path class="cls-3" d="M164.76,92.95h3.48c2.15,0,3.9,1.75,3.9,3.9v1.83c0,.21-.17.39-.39.39h-10.52c-.21,0-.39-.17-.39-.39v-1.82c0-2.16,1.76-3.92,3.92-3.92Z"/>
  <g>
    <rect class="cls-2" x="167.92" y="131.7" width="58.02" height="23.94"/>
    <polygon class="cls-1" points="225.79 155.67 225.79 146.5 225.79 131.73 236.52 143.7 225.79 155.67"/>
  </g>
  <polygon class="cls-4" points="225.79 147.02 233.58 146.98 236.52 143.7 233.56 140.4 225.79 140.26 225.79 147.02"/>
  <polygon class="cls-1" points="225.79 140.26 225.79 131.73 233.56 140.4 225.79 140.26"/>
  <polygon class="cls-1" points="225.79 147.02 233.58 146.98 225.79 155.67 225.79 147.02"/>
</svg>