<?xml version="1.0" encoding="UTF-8"?>
<svg id="Ebene_1" data-name="Ebene 1" xmlns="http://www.w3.org/2000/svg" viewBox="0 0 491 331">
  <defs>
    <style>
      .cls-1 {
        stroke-width: 0px;
      }
    </style>
  </defs>
  <path class="cls-1" d="M119.45,104.18c20.69,0,37.52,16.83,37.52,37.52s-16.83,37.52-37.52,37.52-37.52-16.83-37.52-37.52,16.83-37.52,37.52-37.52M119.45,102.18c-21.83,0-39.52,17.7-39.52,39.52s17.7,39.52,39.52,39.52,39.52-17.7,39.52-39.52-17.7-39.52-39.52-39.52h0Z"/>
  <g>
    <path class="cls-1" d="M186.23,131.88c-2.68-1.55-5.8-2.32-9.36-2.32s-6.69.77-9.37,2.32c-2.67,1.55-4.74,3.81-6.2,6.8-1.46,2.99-2.19,6.59-2.19,10.81s.73,7.83,2.19,10.81c1.46,2.99,3.52,5.25,6.2,6.8s5.8,2.32,9.37,2.32,6.69-.77,9.36-2.32c2.67-1.55,4.74-3.81,6.2-6.8,1.46-2.98,2.18-6.59,2.18-10.81s-.73-7.83-2.18-10.81c-1.46-2.98-3.52-5.25-6.2-6.8ZM183.85,160.52c-.8,2.8-1.81,4.8-3.03,6.01-1.22,1.2-2.54,1.8-3.96,1.8s-2.74-.6-3.96-1.8c-1.22-1.2-2.23-3.2-3.03-6.01-.8-2.8-1.2-6.48-1.2-11.03s.4-8.23,1.2-11.03c.8-2.8,1.81-4.81,3.03-6.01,1.22-1.2,2.54-1.8,3.96-1.8s2.74.6,3.96,1.8c1.22,1.2,2.23,3.2,3.03,6.01.8,2.8,1.2,6.48,1.2,11.03s-.4,8.23-1.2,11.03Z"/>
    <path class="cls-1" d="M223.31,156.04c-.91-2.07-2.64-3.51-5.19-4.31-1.02-.33-2.2-.53-3.55-.6v-.27c2.26-.04,4.39-.44,6.39-1.2,1.89-.69,3.44-1.74,4.64-3.14,1.2-1.4,1.8-3.23,1.8-5.49,0-3.35-1.36-5.96-4.09-7.84-2.73-1.87-7.19-2.81-13.38-2.81h-14.47v.82l3.28.82v34.95l-3.28.82v.82h16.11v-.82l-3.82-.82v-15.29h3.55l5.46,12.29c1.38,3.09,3.57,4.64,6.55,4.64h7.64v-.82l-2.73-.82-4.91-10.92ZM209.93,150.31h-2.18v-18.56h2.18c2.55,0,4.55.8,6.01,2.4,1.46,1.6,2.18,3.9,2.18,6.88s-.73,5.28-2.18,6.88c-1.46,1.6-3.46,2.4-6.01,2.4Z"/>
    <path class="cls-1" d="M253.4,159.27c-1.19,1.84-1.78,3.83-1.78,5.98h-7.56v-33.55l3.34-.77v-.77h-15.88v.77l3.35.77v33.29l-3.35.77v2.98h25.39v-11.42h-1.67c-.71.51-1.32,1.16-1.84,1.94Z"/>
    <path class="cls-1" d="M272.25,130.38h-13.93v.82l3.28.82v34.95l-3.28.82v.82h13.93c6.51,0,11.51-1.67,14.99-5.02,3.48-3.35,5.21-8.05,5.21-14.09s-1.74-10.74-5.21-14.09c-3.48-3.35-8.47-5.02-14.99-5.02ZM280.11,163.11c-1.86,2.75-4.48,4.12-7.86,4.12h-1.64v-35.49h1.64c3.39,0,6.01,1.37,7.86,4.12,1.85,2.75,2.78,7.29,2.78,13.62s-.93,10.88-2.78,13.62Z"/>
    <path class="cls-1" d="M357.04,132.1c-2.68-1.55-5.8-2.32-9.36-2.32s-6.69.77-9.37,2.32c-2.67,1.55-4.74,3.81-6.2,6.8-1.46,2.99-2.19,6.59-2.19,10.81s.73,7.83,2.19,10.81c1.46,2.99,3.52,5.25,6.2,6.8,2.67,1.55,5.8,2.32,9.37,2.32s6.69-.77,9.36-2.32c2.67-1.55,4.74-3.81,6.2-6.8,1.46-2.98,2.18-6.59,2.18-10.81s-.73-7.83-2.18-10.81c-1.46-2.98-3.52-5.25-6.2-6.8ZM354.66,160.74c-.8,2.8-1.81,4.8-3.03,6.01-1.22,1.2-2.54,1.8-3.96,1.8s-2.74-.6-3.96-1.8c-1.22-1.2-2.23-3.2-3.03-6.01-.8-2.8-1.2-6.48-1.2-11.03s.4-8.23,1.2-11.03c.8-2.8,1.81-4.81,3.03-6.01,1.22-1.2,2.54-1.8,3.96-1.8s2.74.6,3.96,1.8c1.22,1.2,2.23,3.2,3.03,6.01.8,2.8,1.2,6.48,1.2,11.03s-.4,8.23-1.2,11.03Z"/>
    <path class="cls-1" d="M431,157.04c-.91-2.07-2.64-3.51-5.19-4.31-1.02-.33-2.2-.53-3.55-.6v-.27c2.26-.04,4.39-.44,6.39-1.2,1.89-.69,3.44-1.74,4.64-3.14,1.2-1.4,1.8-3.23,1.8-5.49,0-3.35-1.36-5.96-4.09-7.84-2.73-1.87-7.19-2.81-13.38-2.81h-14.47v.82l3.28.82v32.78l-3.28.82v2.55h12.51v-2.55l-.22-.82v-13.12h3.55l7.15,16.49.36,1.62-41.5.21-3,8,4.98.15v-5.65h4.46v5.65h5.35v4.46h-5.35v5.06h-4.46v-5.06h-6.31s-4.02,10.73-4.02,10.73l62.49.22-8.14-37.53ZM418.2,151.31h-2.18v-18.56h2.18c2.55,0,4.55.8,6.01,2.4,1.46,1.6,2.18,3.9,2.18,6.88s-.73,5.28-2.18,6.88c-1.46,1.6-3.46,2.4-6.01,2.4Z"/>
    <path class="cls-1" d="M395.35,132.23c-2.68-1.55-5.8-2.32-9.36-2.32s-6.69.77-9.37,2.32c-2.67,1.55-4.74,3.81-6.2,6.8-1.46,2.99-2.19,6.59-2.19,10.81s.73,7.83,2.19,10.81c1.46,2.99,3.52,5.25,6.2,6.8,2.67,1.55,5.8,2.32,9.37,2.32s6.69-.77,9.36-2.32c2.67-1.55,4.74-3.81,6.2-6.8,1.46-2.98,2.18-6.59,2.18-10.81s-.73-7.83-2.18-10.81c-1.46-2.98-3.52-5.25-6.2-6.8ZM392.98,160.87c-.8,2.8-1.81,4.8-3.03,6.01-1.22,1.2-2.54,1.8-3.96,1.8s-2.74-.6-3.96-1.8c-1.22-1.2-2.23-3.2-3.03-6.01-.8-2.8-1.2-6.48-1.2-11.03s.4-8.23,1.2-11.03c.8-2.8,1.81-4.81,3.03-6.01,1.22-1.2,2.54-1.8,3.96-1.8s2.74.6,3.96,1.8c1.22,1.2,2.23,3.2,3.03,6.01.8,2.8,1.2,6.48,1.2,11.03s-.4,8.23-1.2,11.03Z"/>
    <path class="cls-1" d="M306.24,130.86h-13.93v.82l3.28.82v34.95l-3.28.82v.82h13.93c6.51,0,11.51-1.67,14.99-5.02,3.48-3.35,5.21-8.05,5.21-14.09s-1.74-10.74-5.21-14.09c-3.48-3.35-8.47-5.02-14.99-5.02ZM314.1,163.59c-1.86,2.75-4.48,4.12-7.86,4.12h-1.64v-35.49h1.64c3.39,0,6.01,1.37,7.86,4.12,1.85,2.75,2.78,7.29,2.78,13.62s-.93,10.88-2.78,13.62Z"/>
  </g>
  <g>
    <path class="cls-1" d="M162.05,173.41v9.24h5.79v.85h-6.8v-10.08h1.01Z"/>
    <path class="cls-1" d="M171.97,183.69c-1.97,0-3.47-1.5-3.47-3.67s1.5-3.67,3.47-3.67,3.49,1.5,3.49,3.67-1.5,3.67-3.49,3.67ZM171.97,182.92c1.57,0,2.46-1.2,2.46-2.9s-.9-2.9-2.46-2.9-2.45,1.2-2.45,2.9.9,2.9,2.45,2.9Z"/>
    <path class="cls-1" d="M177.89,183.5h-.98v-10.08h.98v6.5l3.83-3.36h1.28l-3.3,2.88,3.46,4.07h-1.18l-2.99-3.52-1.09.91v2.61Z"/>
    <path class="cls-1" d="M189.38,182.33c0,.37.22.54.58.54.16,0,.43-.06.62-.18v.53c-.21.24-.43.42-.91.42-.69,0-1.18-.59-1.22-1.47-.37.82-1.39,1.52-2.58,1.52-1.3,0-2.16-.72-2.16-1.92,0-1.31,1.15-1.84,2.88-2.19l1.86-.38v-.35c0-1.06-.62-1.71-1.71-1.71s-1.74.66-1.98,1.55l-.83-.16c.27-1.25,1.3-2.16,2.8-2.16,1.73,0,2.66.91,2.66,2.62v3.35ZM188.45,179.91l-1.7.37c-1.26.27-2.05.53-2.05,1.46,0,.66.43,1.2,1.34,1.2,1.36,0,2.4-1.04,2.4-2.59v-.43Z"/>
    <path class="cls-1" d="M192.66,173.41v10.08h-.98v-10.08h.98Z"/>
    <path class="cls-1" d="M200.82,181.13c-.34,1.58-1.49,2.56-3.19,2.56-2.02,0-3.52-1.42-3.52-3.57s1.49-3.76,3.46-3.76c2.18,0,3.27,1.57,3.27,3.46v.45h-5.71c.06,1.54,1.14,2.62,2.51,2.62,1.28,0,2.06-.64,2.35-1.87l.83.11ZM199.8,179.57c-.03-1.28-.75-2.45-2.23-2.45-1.38,0-2.27,1.15-2.43,2.45h4.66Z"/>
    <path class="cls-1" d="M211.89,183.5c-.19-.27-.34-1.04-.42-2.27-.06-1.1-.59-1.98-2.1-1.98h-3.14v4.26h-.99v-10.08h3.81c2.54,0,3.76,1.17,3.76,2.91,0,1.57-1.09,2.35-2.32,2.5,1.28.24,1.87,1.04,1.97,2.22.13,1.47.18,2.08.51,2.45h-1.09ZM209.09,178.41c1.87,0,2.69-.74,2.69-2.08,0-1.25-.82-2.06-2.69-2.06h-2.85v4.15h2.85Z"/>
    <path class="cls-1" d="M220.82,181.13c-.34,1.58-1.49,2.56-3.19,2.56-2.02,0-3.52-1.42-3.52-3.57s1.49-3.76,3.46-3.76c2.18,0,3.27,1.57,3.27,3.46v.45h-5.71c.06,1.54,1.14,2.62,2.51,2.62,1.28,0,2.06-.64,2.35-1.87l.83.11ZM219.8,179.57c-.03-1.28-.75-2.45-2.23-2.45-1.38,0-2.27,1.15-2.43,2.45h4.66Z"/>
    <path class="cls-1" d="M222.26,173.41h1.04v1.3h-1.04v-1.3ZM223.27,176.55v6.95h-.98v-6.95h.98Z"/>
    <path class="cls-1" d="M225.47,181.05c.14,1.2.96,1.87,2.29,1.87,1.07,0,1.83-.4,1.83-1.22,0-.77-.54-1.01-1.52-1.18l-1.2-.21c-1.22-.21-1.97-.77-1.97-1.89,0-1.25,1.04-2.06,2.56-2.06,1.79,0,2.83.85,2.95,2.5l-.75.06c-.18-1.25-.91-1.79-2.19-1.79-.99,0-1.65.45-1.65,1.18,0,.67.4,1.01,1.26,1.15l1.28.21c1.36.22,2.16.7,2.16,1.94,0,1.36-1.22,2.08-2.74,2.08-1.68,0-2.98-.83-3.09-2.54l.78-.1Z"/>
    <path class="cls-1" d="M238.28,181.13c-.34,1.58-1.49,2.56-3.19,2.56-2.02,0-3.52-1.42-3.52-3.57s1.49-3.76,3.46-3.76c2.18,0,3.27,1.57,3.27,3.46v.45h-5.71c.06,1.54,1.14,2.62,2.51,2.62,1.28,0,2.06-.64,2.35-1.87l.83.11ZM237.25,179.57c-.03-1.28-.75-2.45-2.23-2.45-1.38,0-2.27,1.15-2.43,2.45h4.66Z"/>
    <path class="cls-1" d="M240.72,183.5h-.98v-6.95h.98v1.28c.34-.85,1.3-1.47,2.34-1.47,1.79,0,2.54,1.17,2.54,2.83v4.31h-.98v-4.34c0-1.23-.64-2.03-1.83-2.03-1.1,0-2.08.86-2.08,2.21v4.16Z"/>
    <path class="cls-1" d="M258.16,176.36c1.79,0,2.45,1.23,2.45,2.83v4.31h-.98v-4.34c0-1.23-.56-2.03-1.71-2.03-1.04,0-1.97.86-1.97,2.21v4.16h-.98v-4.34c0-1.23-.56-2.03-1.71-2.03-1.04,0-1.97.86-1.97,2.21v4.16h-.98v-6.95h.98v1.28c.34-.85,1.17-1.47,2.24-1.47,1.23,0,2,.61,2.3,1.54.37-.88,1.23-1.54,2.32-1.54Z"/>
    <path class="cls-1" d="M262.42,173.41h1.04v1.3h-1.04v-1.3ZM263.42,176.55v6.95h-.98v-6.95h.98Z"/>
    <path class="cls-1" d="M265.58,177.27h-1.07v-.48l.42-.08c.64-.13.77-.43.91-1.1l.21-.99h.5v1.94h2.02v.72h-2.02v4.71c0,.62.26.93.9.93.48,0,.96-.24,1.36-.48v.69c-.5.38-.99.58-1.7.58-.93,0-1.52-.46-1.52-1.73v-4.69Z"/>
    <path class="cls-1" d="M281.16,182.38h.06l2.19-8.96h.95l-2.56,10.08h-1.26l-2.22-8.52h-.06l-2.26,8.52h-1.26l-2.56-10.08h.98l2.24,8.92h.06l2.35-8.92h.96l2.4,8.96Z"/>
    <path class="cls-1" d="M291.48,181.13c-.34,1.58-1.49,2.56-3.19,2.56-2.02,0-3.52-1.42-3.52-3.57s1.49-3.76,3.46-3.76c2.18,0,3.27,1.57,3.27,3.46v.45h-5.71c.06,1.54,1.14,2.62,2.51,2.62,1.28,0,2.06-.64,2.35-1.87l.83.11ZM290.45,179.57c-.03-1.28-.75-2.45-2.23-2.45-1.38,0-2.27,1.15-2.43,2.45h4.66Z"/>
    <path class="cls-1" d="M293.92,173.41v10.08h-.98v-10.08h.98Z"/>
    <path class="cls-1" d="M296.08,177.27h-1.07v-.48l.42-.08c.64-.13.77-.43.91-1.1l.21-.99h.5v1.94h2.02v.72h-2.02v4.71c0,.62.26.93.9.93.48,0,.96-.24,1.36-.48v.69c-.5.38-.99.58-1.7.58-.93,0-1.52-.46-1.52-1.73v-4.69Z"/>
    <path class="cls-1" d="M303.46,176.36c2.02,0,3.1,1.36,3.23,3.04l-.9.06c-.1-1.33-.91-2.29-2.37-2.29s-2.45,1.14-2.45,2.85.99,2.85,2.45,2.85,2.27-.99,2.37-2.32l.9.1c-.13,1.68-1.22,3.04-3.23,3.04s-3.51-1.46-3.51-3.67,1.44-3.67,3.51-3.67Z"/>
    <path class="cls-1" d="M309.12,183.5h-.98v-10.08h.98v4.42c.34-.85,1.3-1.47,2.34-1.47,1.79,0,2.54,1.17,2.54,2.83v4.31h-.98v-4.34c0-1.23-.64-2.03-1.83-2.03-1.1,0-2.08.86-2.08,2.21v4.16Z"/>
    <path class="cls-1" d="M321.19,182.33c0,.37.22.54.58.54.16,0,.43-.06.62-.18v.53c-.21.24-.43.42-.91.42-.69,0-1.18-.59-1.22-1.47-.37.82-1.39,1.52-2.58,1.52-1.3,0-2.16-.72-2.16-1.92,0-1.31,1.15-1.84,2.88-2.19l1.86-.38v-.35c0-1.06-.62-1.71-1.71-1.71s-1.74.66-1.98,1.55l-.83-.16c.27-1.25,1.3-2.16,2.8-2.16,1.73,0,2.66.91,2.66,2.62v3.35ZM320.26,179.91l-1.7.37c-1.26.27-2.05.53-2.05,1.46,0,.66.43,1.2,1.34,1.2,1.36,0,2.4-1.04,2.4-2.59v-.43Z"/>
    <path class="cls-1" d="M327.35,177.53c-.4-.21-.64-.27-1.06-.27-1.01,0-1.83,1.04-1.83,2.43v3.81h-.98v-6.95h.98v1.46c.27-.8.98-1.65,2-1.65.43,0,.74.1.99.32l-.11.85Z"/>
    <path class="cls-1" d="M333.76,182.33c0,.37.22.54.58.54.16,0,.43-.06.62-.18v.53c-.21.24-.43.42-.91.42-.69,0-1.18-.59-1.22-1.47-.37.82-1.39,1.52-2.58,1.52-1.3,0-2.16-.72-2.16-1.92,0-1.31,1.15-1.84,2.88-2.19l1.86-.38v-.35c0-1.06-.62-1.71-1.71-1.71s-1.74.66-1.98,1.55l-.83-.16c.27-1.25,1.3-2.16,2.8-2.16,1.73,0,2.66.91,2.66,2.62v3.35ZM332.83,179.91l-1.7.37c-1.26.27-2.05.53-2.05,1.46,0,.66.43,1.2,1.34,1.2,1.36,0,2.4-1.04,2.4-2.59v-.43Z"/>
    <path class="cls-1" d="M337.04,183.5h-.98v-10.08h.98v6.5l3.83-3.36h1.28l-3.3,2.88,3.46,4.07h-1.18l-2.99-3.52-1.09.91v2.61Z"/>
    <path class="cls-1" d="M343.67,177.27h-1.07v-.48l.42-.08c.64-.13.77-.43.91-1.1l.21-.99h.5v1.94h2.02v.72h-2.02v4.71c0,.62.26.93.9.93.48,0,.96-.24,1.36-.48v.69c-.5.38-.99.58-1.7.58-.93,0-1.52-.46-1.52-1.73v-4.69Z"/>
    <path class="cls-1" d="M354.25,181.13c-.34,1.58-1.49,2.56-3.19,2.56-2.02,0-3.52-1.42-3.52-3.57s1.49-3.76,3.46-3.76c2.18,0,3.27,1.57,3.27,3.46v.45h-5.71c.06,1.54,1.14,2.62,2.51,2.62,1.28,0,2.06-.64,2.35-1.87l.83.11ZM353.22,179.57c-.03-1.28-.75-2.45-2.23-2.45-1.38,0-2.27,1.15-2.43,2.45h4.66Z"/>
    <path class="cls-1" d="M359.57,177.53c-.4-.21-.64-.27-1.06-.27-1.01,0-1.83,1.04-1.83,2.43v3.81h-.98v-6.95h.98v1.46c.27-.8.98-1.65,2-1.65.43,0,.74.1.99.32l-.11.85Z"/>
    <path class="cls-1" d="M359.44,182.22h1.28v1.28h-1.28v-1.28Z"/>
  </g>
  <path class="cls-1" d="M89.57,125.7l-4.48-1.41.02-1.35,10.35.15c3.18.05,5.69.74,7.53,2.09,1.84,1.35,3.34,3.26,4.51,5.74l9.6,20.84,5.32-13.07-5.85-12.6-4.48-1.41.02-1.35,10.35.15c3.18.05,5.69.74,7.53,2.09,1.84,1.35,3.34,3.26,4.51,5.74l9.6,20.84,9.8-24.16-6.71-2.8.02-1.35,16.65.24-.02,1.35-7.24,2.6-17.25,41.61-2.7-.04-12.92-27.91-11.38,27.56-2.7-.04-20.07-43.5Z"/>
</svg>