<svg width="290" height="75" viewBox="0 0 290 75" fill="none" xmlns="http://www.w3.org/2000/svg">
<path d="M32.0134 2.13443C48.6589 2.13443 62.199 15.6745 62.199 32.32C62.199 48.9655 48.6589 62.5056 32.0134 62.5056C15.3679 62.5056 1.82779 48.9655 1.82779 32.32C1.82779 15.6745 15.3679 2.13443 32.0134 2.13443ZM32.0134 0.525391C14.4507 0.525391 0.21875 14.7654 0.21875 32.32C0.21875 49.8747 14.4588 64.1146 32.0134 64.1146C49.568 64.1146 63.808 49.8747 63.808 32.32C63.808 14.7654 49.568 0.525391 32.0134 0.525391Z" fill="#E187F0"/>
<path d="M85.7483 24.4275C83.5922 23.1805 81.0821 22.561 78.218 22.561C75.3539 22.561 72.8357 23.1805 70.6796 24.4275C68.5315 25.6745 66.8662 27.4927 65.6916 29.8983C64.517 32.3038 63.9297 35.2 63.9297 38.5951C63.9297 41.9902 64.517 44.8945 65.6916 47.292C66.8662 49.6975 68.5235 51.5157 70.6796 52.7627C72.8357 54.0097 75.3458 54.6292 78.218 54.6292C81.0901 54.6292 83.6002 54.0097 85.7483 52.7627C87.8963 51.5157 89.5617 49.6975 90.7363 47.292C91.9109 44.8945 92.4901 41.9902 92.4901 38.5951C92.4901 35.2 91.9028 32.2957 90.7363 29.8983C89.5617 27.5008 87.9044 25.6745 85.7483 24.4275ZM83.8335 47.469C83.1899 49.7216 82.3773 51.3307 81.3958 52.3041C80.4143 53.2696 79.3523 53.7523 78.2099 53.7523C77.0675 53.7523 76.0055 53.2696 75.024 52.3041C74.0425 51.3387 73.2299 49.7297 72.5863 47.469C71.9427 45.2163 71.6209 42.2557 71.6209 38.5951C71.6209 34.9345 71.9427 31.9739 72.5863 29.7213C73.2299 27.4686 74.0425 25.8515 75.024 24.8861C76.0055 23.9207 77.0675 23.438 78.2099 23.438C79.3523 23.438 80.4143 23.9207 81.3958 24.8861C82.3773 25.8515 83.1899 27.4606 83.8335 29.7213C84.4771 31.9739 84.7989 34.9345 84.7989 38.5951C84.7989 42.2557 84.4771 45.2163 83.8335 47.469Z" fill="#E187F0"/>
<path d="M115.58 43.8647C114.848 42.1993 113.456 41.0408 111.404 40.3972C110.584 40.1317 109.634 39.9708 108.548 39.9145V39.6973C110.366 39.6651 112.08 39.3433 113.689 38.7319C115.21 38.1767 116.457 37.332 117.422 36.2057C118.387 35.0793 118.87 33.6071 118.87 31.7888C118.87 29.0937 117.776 26.9939 115.58 25.4814C113.383 23.977 109.795 23.2207 104.815 23.2207H93.1738V23.8804L95.8127 24.5401V52.6581L93.1738 53.3178V53.9775H106.135V53.3178L103.061 52.6581V40.357H105.917L110.31 50.2445C111.42 52.7305 113.182 53.9775 115.58 53.9775H121.726V53.3178L119.53 52.6581L115.58 43.8727V43.8647ZM104.815 39.2468H103.061V24.3149H104.815C106.867 24.3149 108.476 24.9585 109.65 26.2457C110.825 27.5329 111.404 29.3833 111.404 31.7808C111.404 34.1783 110.817 36.0287 109.65 37.3159C108.476 38.6031 106.867 39.2468 104.815 39.2468Z" fill="#E187F0"/>
<path d="M139.788 46.4635C138.831 47.9438 138.356 49.5448 138.356 51.2745H132.274V24.2829L134.961 23.6634V23.0439H122.186V23.6634L124.881 24.2829V51.0654L122.186 51.6849V54.0823H142.612V44.8947H141.269C140.698 45.305 140.207 45.8279 139.788 46.4555V46.4635Z" fill="#E187F0"/>
<path d="M154.953 23.2124H143.746V23.8721L146.385 24.5318V52.6498L143.746 53.3095V53.9692H154.953C160.19 53.9692 164.213 52.6257 167.013 49.9305C169.813 47.2354 171.204 43.4541 171.204 38.5948C171.204 33.7355 169.804 29.9543 167.013 27.2591C164.213 24.564 160.199 23.2204 154.953 23.2204V23.2124ZM161.277 49.5524C159.78 51.7648 157.672 52.867 154.953 52.867H153.634V24.3146H154.953C157.68 24.3146 159.788 25.4168 161.277 27.6292C162.765 29.8417 163.513 33.4942 163.513 38.5868C163.513 43.6794 162.765 47.34 161.277 49.5443V49.5524Z" fill="#E187F0"/>
<path d="M223.16 24.5965C221.004 23.3495 218.494 22.73 215.63 22.73C212.766 22.73 210.248 23.3495 208.092 24.5965C205.944 25.8435 204.278 27.6617 203.104 30.0672C201.929 32.4727 201.342 35.369 201.342 38.7641C201.342 42.1591 201.929 45.0634 203.104 47.4609C204.278 49.8664 205.936 51.6847 208.092 52.9317C210.24 54.1787 212.758 54.7981 215.63 54.7981C218.502 54.7981 221.012 54.1787 223.16 52.9317C225.308 51.6847 226.974 49.8664 228.148 47.4609C229.323 45.0634 229.902 42.1591 229.902 38.7641C229.902 35.369 229.315 32.4647 228.148 30.0672C226.974 27.6697 225.316 25.8435 223.16 24.5965ZM221.254 47.6379C220.61 49.8906 219.797 51.4996 218.816 52.4731C217.834 53.4385 216.772 53.9212 215.63 53.9212C214.488 53.9212 213.426 53.4385 212.444 52.4731C211.463 51.5077 210.65 49.8986 210.006 47.6379C209.363 45.3853 209.041 42.4246 209.041 38.7641C209.041 35.1035 209.363 32.1429 210.006 29.8902C210.65 27.6375 211.463 26.0205 212.444 25.055C213.426 24.0896 214.488 23.6069 215.63 23.6069C216.772 23.6069 217.834 24.0896 218.816 25.055C219.797 26.0205 220.61 27.6295 221.254 29.8902C221.897 32.1429 222.219 35.1035 222.219 38.7641C222.219 42.4246 221.897 45.3853 221.254 47.6379Z" fill="#E187F0"/>
<path d="M282.671 44.6694C281.939 43.004 280.547 41.8455 278.496 41.2019C277.675 40.9364 276.726 40.7755 275.639 40.7192V40.502C277.458 40.4698 279.171 40.148 280.78 39.5365C282.301 38.9814 283.548 38.1367 284.513 37.0104C285.479 35.884 285.961 34.4118 285.961 32.5935C285.961 29.8984 284.867 27.7986 282.671 26.2861C280.475 24.7816 276.886 24.0254 271.906 24.0254H260.265V24.6851L262.904 25.3448V51.717L260.265 52.3767V54.4282H270.33V52.3767L270.153 51.717V41.1617H273.009L278.761 54.4282L279.051 55.7315L245.663 55.9005L243.249 62.3366L247.256 62.4573V57.9118H250.844V62.4573H255.148V66.0455H250.844V70.1163H247.256V66.0455H242.179L238.945 74.678L289.22 74.855L282.671 44.6613V44.6694ZM272.365 40.0514H270.611V25.1195H272.365C274.417 25.1195 276.026 25.7632 277.2 27.0504C278.375 28.3376 278.954 30.188 278.954 32.5855C278.954 34.983 278.367 36.8334 277.2 38.1206C276.026 39.4078 274.417 40.0514 272.365 40.0514Z" fill="#E187F0"/>
<path d="M253.99 24.701C251.833 23.454 249.323 22.8345 246.459 22.8345C243.595 22.8345 241.077 23.454 238.921 24.701C236.773 25.948 235.107 27.7662 233.933 30.1717C232.758 32.5772 232.171 35.4735 232.171 38.8686C232.171 42.2636 232.758 45.168 233.933 47.5654C235.107 49.9709 236.765 51.7892 238.921 53.0362C241.069 54.2832 243.587 54.9026 246.459 54.9026C249.331 54.9026 251.841 54.2832 253.99 53.0362C256.138 51.7892 257.803 49.9709 258.978 47.5654C260.152 45.168 260.731 42.2636 260.731 38.8686C260.731 35.4735 260.144 32.5692 258.978 30.1717C257.803 27.7742 256.146 25.948 253.99 24.701ZM252.075 47.7424C251.431 49.9951 250.619 51.6041 249.637 52.5776C248.656 53.543 247.594 54.0257 246.451 54.0257C245.309 54.0257 244.247 53.543 243.265 52.5776C242.284 51.6122 241.471 50.0031 240.828 47.7424C240.184 45.4898 239.862 42.5291 239.862 38.8686C239.862 35.208 240.184 32.2474 240.828 29.9947C241.471 27.7421 242.284 26.125 243.265 25.1595C244.247 24.1941 245.309 23.7114 246.451 23.7114C247.594 23.7114 248.656 24.1941 249.637 25.1595C250.619 26.125 251.431 27.734 252.075 29.9947C252.718 32.2474 253.04 35.208 253.04 38.8686C253.04 42.5291 252.718 45.4898 252.075 47.7424Z" fill="#E187F0"/>
<path d="M182.299 23.5991H171.092V24.2588L173.731 24.9185V53.0365L171.092 53.6962V54.3559H182.299C187.536 54.3559 191.559 53.0124 194.359 50.3172C197.158 47.6221 198.55 43.8409 198.55 38.9816C198.55 34.1223 197.15 30.341 194.359 27.6459C191.559 24.9507 187.544 23.6072 182.299 23.6072V23.5991ZM188.622 49.9391C187.126 52.1515 185.018 53.2537 182.299 53.2537H180.979V24.7013H182.299C185.026 24.7013 187.134 25.8035 188.622 28.0159C190.111 30.2284 190.859 33.8809 190.859 38.9735C190.859 44.0661 190.111 47.7267 188.622 49.9311V49.9391Z" fill="#E187F0"/>
<path d="M7.74143 19.8582L4.12109 18.7721V17.686H12.4479C15.0062 17.686 17.0336 18.217 18.53 19.279C20.0265 20.3409 21.2574 21.8615 22.2228 23.8406L30.1875 40.4942L34.3147 29.9228L29.4635 19.8582L25.8431 18.7721V17.686H34.1699C36.7283 17.686 38.7557 18.217 40.2521 19.279C41.7485 20.3409 42.9794 21.8615 43.9448 23.8406L51.9096 40.4942L59.5123 20.9443L54.0818 18.7721V17.686H67.477V18.7721L61.6845 20.9443L48.2892 54.6135H46.117L35.4008 32.3122L26.5672 54.6135H24.395L7.74143 19.8582Z" fill="#E187F0"/>
</svg>
