<svg width="375" height="96" viewBox="0 0 375 96" fill="none" xmlns="http://www.w3.org/2000/svg">
<path d="M41.201 2.07815C62.7711 2.07815 80.3169 19.5658 80.3169 41.0642C80.3169 62.5626 62.7711 80.0502 41.201 80.0502C19.6309 80.0502 2.08507 62.5626 2.08507 41.0642C2.08507 19.5658 19.6309 2.07815 41.201 2.07815ZM41.201 0C18.4424 0 0 18.3916 0 41.0642C0 63.7368 18.4529 82.1283 41.201 82.1283C63.9491 82.1283 82.402 63.7368 82.402 41.0642C82.402 18.3916 63.9491 0 41.201 0Z" fill="#0093ED"/>
<path d="M110.832 30.871C108.038 29.2604 104.785 28.4604 101.074 28.4604C97.3626 28.4604 94.0995 29.2604 91.3055 30.871C88.5219 32.4816 86.3638 34.8299 84.8417 37.9367C83.3196 41.0435 82.5586 44.7842 82.5586 49.1691C82.5586 53.554 83.3196 57.305 84.8417 60.4015C86.3638 63.5083 88.5115 65.8566 91.3055 67.4672C94.0995 69.0777 97.3522 69.8778 101.074 69.8778C104.796 69.8778 108.049 69.0777 110.832 67.4672C113.616 65.8566 115.774 63.5083 117.296 60.4015C118.818 57.305 119.569 53.554 119.569 49.1691C119.569 44.7842 118.808 41.0331 117.296 37.9367C115.774 34.8403 113.626 32.4816 110.832 30.871ZM108.351 60.6301C107.517 63.5395 106.464 65.6176 105.192 66.8749C103.92 68.1218 102.544 68.7452 101.064 68.7452C99.5832 68.7452 98.207 68.1218 96.9351 66.8749C95.6633 65.628 94.6103 63.5499 93.7763 60.6301C92.9422 57.7207 92.5252 53.8969 92.5252 49.1691C92.5252 44.4413 92.9422 40.6175 93.7763 37.7081C94.6103 34.7987 95.6633 32.7102 96.9351 31.4633C98.207 30.2164 99.5832 29.5929 101.064 29.5929C102.544 29.5929 103.92 30.2164 105.192 31.4633C106.464 32.7102 107.517 34.7883 108.351 37.7081C109.185 40.6175 109.602 44.4413 109.602 49.1691C109.602 53.8969 109.185 57.7207 108.351 60.6301Z" fill="#0093ED"/>
<path d="M149.49 55.9753C148.541 53.8244 146.737 52.3282 144.079 51.4969C143.016 51.154 141.785 50.9462 140.378 50.8735V50.5929C142.734 50.5514 144.955 50.1357 147.04 49.346C149.01 48.6291 150.626 47.538 151.877 46.0833C153.128 44.6286 153.754 42.7271 153.754 40.3788C153.754 36.8979 152.336 34.186 149.49 32.2325C146.644 30.2894 141.994 29.3127 135.541 29.3127H120.455V30.1647L123.875 31.0168V67.3324L120.455 68.1844V69.0365H137.25V68.1844L133.268 67.3324V51.4449H136.969L142.661 64.2152C144.1 67.4259 146.383 69.0365 149.49 69.0365H157.455V68.1844L154.609 67.3324L149.49 55.9857V55.9753ZM135.541 50.011H133.268V30.7258H135.541C138.199 30.7258 140.284 31.5571 141.806 33.2196C143.328 34.8821 144.079 37.272 144.079 40.3684C144.079 43.4649 143.318 45.8547 141.806 47.5173C140.284 49.1798 138.199 50.011 135.541 50.011Z" fill="#0093ED"/>
<path d="M180.859 59.3315C179.618 61.2434 179.003 63.3112 179.003 65.5452H171.121V30.6843L174.603 29.8842V29.0841H158.048V29.8842L161.54 30.6843V65.275L158.048 66.0751V69.1715H184.518V57.3053H182.777C182.037 57.8353 181.401 58.5107 180.859 59.3211V59.3315Z" fill="#0093ED"/>
<path d="M200.511 29.3023H185.988V30.1543L189.408 31.0064V67.322L185.988 68.174V69.026H200.511C207.298 69.026 212.51 67.2908 216.138 63.8099C219.766 60.329 221.57 55.4454 221.57 49.1694C221.57 42.8934 219.756 38.0097 216.138 34.5288C212.51 31.0479 207.308 29.3127 200.511 29.3127V29.3023ZM208.705 63.3215C206.766 66.179 204.035 67.6025 200.511 67.6025H198.801V30.7258H200.511C204.045 30.7258 206.776 32.1493 208.705 35.0068C210.634 37.8642 211.603 42.5816 211.603 49.159C211.603 55.7363 210.634 60.4641 208.705 63.3111V63.3215Z" fill="#0093ED"/>
<path d="M288.897 31.0894C286.103 29.4788 282.85 28.6787 279.138 28.6787C275.427 28.6787 272.164 29.4788 269.37 31.0894C266.586 32.6999 264.428 35.0482 262.906 38.1551C261.384 41.2619 260.623 45.0025 260.623 49.3874C260.623 53.7723 261.384 57.5234 262.906 60.6198C264.428 63.7266 266.576 66.075 269.37 67.6855C272.153 69.2961 275.417 70.0962 279.138 70.0962C282.86 70.0962 286.113 69.2961 288.897 67.6855C291.68 66.075 293.838 63.7266 295.36 60.6198C296.882 57.5234 297.633 53.7723 297.633 49.3874C297.633 45.0025 296.872 41.2515 295.36 38.1551C293.838 35.0586 291.691 32.6999 288.897 31.0894ZM286.426 60.8484C285.592 63.7578 284.539 65.836 283.267 67.0932C281.995 68.3401 280.619 68.9636 279.138 68.9636C277.658 68.9636 276.282 68.3401 275.01 67.0932C273.738 65.8464 272.685 63.7682 271.851 60.8484C271.017 57.939 270.6 54.1152 270.6 49.3874C270.6 44.6597 271.017 40.8359 271.851 37.9265C272.685 35.0171 273.738 32.9285 275.01 31.6816C276.282 30.4347 277.658 29.8113 279.138 29.8113C280.619 29.8113 281.995 30.4347 283.267 31.6816C284.539 32.9285 285.592 35.0067 286.426 37.9265C287.26 40.8359 287.677 44.6597 287.677 49.3874C287.677 54.1152 287.26 57.939 286.426 60.8484Z" fill="#0093ED"/>
<path d="M366.013 57.0144C365.065 54.8635 363.261 53.3672 360.603 52.536C359.539 52.1931 358.309 51.9853 356.902 51.9125V51.632C359.258 51.5904 361.478 51.1748 363.563 50.3851C365.534 49.6681 367.15 48.5771 368.401 47.1224C369.652 45.6677 370.277 43.7662 370.277 41.4179C370.277 37.937 368.859 35.225 366.013 33.2716C363.167 31.3285 358.518 30.3517 352.064 30.3517H336.979V31.2038L340.398 32.0558V66.1167L336.979 66.9687V69.6183H350.021V66.9687L349.792 66.1167V52.484H353.493L360.947 69.6183L361.322 71.3016L318.057 71.5198L314.929 79.8324L320.121 79.9883V74.1175H324.771V79.9883H330.348V84.6226H324.771V89.8803H320.121V84.6226H313.543L309.352 95.7718L374.5 96.0004L366.013 57.004V57.0144ZM352.658 51.0501H350.386V31.7649H352.658C355.317 31.7649 357.402 32.5962 358.924 34.2587C360.446 35.9212 361.197 38.3111 361.197 41.4075C361.197 44.5039 360.436 46.8938 358.924 48.5563C357.402 50.2188 355.317 51.0501 352.658 51.0501Z" fill="#0093ED"/>
<path d="M328.847 31.2246C326.053 29.614 322.8 28.8139 319.089 28.8139C315.377 28.8139 312.114 29.614 309.32 31.2246C306.537 32.8352 304.378 35.1835 302.856 38.2903C301.334 41.3971 300.573 45.1378 300.573 49.5227C300.573 53.9076 301.334 57.6586 302.856 60.7551C304.378 63.8619 306.526 66.2102 309.32 67.8208C312.104 69.4313 315.367 70.2314 319.089 70.2314C322.811 70.2314 326.063 69.4313 328.847 67.8208C331.63 66.2102 333.788 63.8619 335.311 60.7551C336.833 57.6586 337.583 53.9076 337.583 49.5227C337.583 45.1378 336.822 41.3867 335.311 38.2903C333.788 35.1939 331.641 32.8352 328.847 31.2246ZM326.366 60.9837C325.532 63.8931 324.479 65.9712 323.207 67.2285C321.935 68.4754 320.559 69.0988 319.078 69.0988C317.598 69.0988 316.222 68.4754 314.95 67.2285C313.678 65.9816 312.625 63.9035 311.791 60.9837C310.957 58.0742 310.54 54.2505 310.54 49.5227C310.54 44.7949 310.957 40.9711 311.791 38.0617C312.625 35.1523 313.678 33.0637 314.95 31.8169C316.222 30.57 317.598 29.9465 319.078 29.9465C320.559 29.9465 321.935 30.57 323.207 31.8169C324.479 33.0637 325.532 35.1419 326.366 38.0617C327.2 40.9711 327.617 44.7949 327.617 49.5227C327.617 54.2505 327.2 58.0742 326.366 60.9837Z" fill="#0093ED"/>
<path d="M235.946 29.801H221.424V30.653L224.843 31.5051V67.8207L221.424 68.6727V69.5248H235.946C242.733 69.5248 247.946 67.7895 251.574 64.3086C255.202 60.8277 257.006 55.9441 257.006 49.6681C257.006 43.3921 255.192 38.5084 251.574 35.0275C247.946 31.5466 242.744 29.8114 235.946 29.8114V29.801ZM244.141 63.8203C242.202 66.6777 239.47 68.1012 235.946 68.1012H234.237V31.2245H235.946C239.481 31.2245 242.212 32.6481 244.141 35.5055C246.069 38.363 247.039 43.0804 247.039 49.6577C247.039 56.235 246.069 60.9628 244.141 63.8099V63.8203Z" fill="#0093ED"/>
<path d="M9.74805 24.969L5.05664 23.5663V22.1635H15.8469C19.1621 22.1635 21.7893 22.8493 23.7284 24.2209C25.6676 25.5925 27.2626 27.5563 28.5137 30.1124L38.8348 51.6212L44.183 37.9678L37.8965 24.969L33.2051 23.5663V22.1635H43.9953C47.3106 22.1635 49.9378 22.8493 51.8769 24.2209C53.816 25.5925 55.4111 27.5563 56.6621 30.1124L66.9832 51.6212L76.8352 26.3718L69.7981 23.5663V22.1635H87.1563V23.5663L79.65 26.3718L62.2918 69.857H59.477L45.5904 41.0539L34.1434 69.857H31.3285L9.74805 24.969Z" fill="#0093ED"/>
</svg>
