<?xml version="1.0" encoding="UTF-8"?>
<svg id="Ebene_1" data-name="Ebene 1" xmlns="http://www.w3.org/2000/svg" viewBox="0 0 492 351">
  <defs>
    <style>
      .cls-1 {
        fill: #0093ed;
        stroke-width: 0px;
      }
    </style>
  </defs>
  <path class="cls-1" d="M106.82,134.72c20.69,0,37.52,16.83,37.52,37.52s-16.83,37.52-37.52,37.52-37.52-16.83-37.52-37.52,16.83-37.52,37.52-37.52M106.82,132.72c-21.83,0-39.52,17.7-39.52,39.52s17.7,39.52,39.52,39.52,39.52-17.7,39.52-39.52-17.7-39.52-39.52-39.52h0Z"/>
  <g>
    <path class="cls-1" d="M173.61,162.43c-2.68-1.55-5.8-2.32-9.36-2.32s-6.69.77-9.37,2.32c-2.67,1.55-4.74,3.81-6.2,6.8-1.46,2.99-2.19,6.59-2.19,10.81s.73,7.83,2.19,10.81c1.46,2.99,3.52,5.25,6.2,6.8s5.8,2.32,9.37,2.32,6.69-.77,9.36-2.32c2.67-1.55,4.74-3.81,6.2-6.8,1.46-2.98,2.18-6.59,2.18-10.81s-.73-7.83-2.18-10.81c-1.46-2.98-3.52-5.25-6.2-6.8ZM171.23,191.07c-.8,2.8-1.81,4.8-3.03,6.01-1.22,1.2-2.54,1.8-3.96,1.8s-2.74-.6-3.96-1.8c-1.22-1.2-2.23-3.2-3.03-6.01-.8-2.8-1.2-6.48-1.2-11.03s.4-8.23,1.2-11.03c.8-2.8,1.81-4.81,3.03-6.01,1.22-1.2,2.54-1.8,3.96-1.8s2.74.6,3.96,1.8c1.22,1.2,2.23,3.2,3.03,6.01.8,2.8,1.2,6.48,1.2,11.03s-.4,8.23-1.2,11.03Z"/>
    <path class="cls-1" d="M210.69,186.59c-.91-2.07-2.64-3.51-5.19-4.31-1.02-.33-2.2-.53-3.55-.6v-.27c2.26-.04,4.39-.44,6.39-1.2,1.89-.69,3.44-1.74,4.64-3.14,1.2-1.4,1.8-3.23,1.8-5.49,0-3.35-1.36-5.96-4.09-7.84-2.73-1.87-7.19-2.81-13.38-2.81h-14.47v.82l3.28.82v34.95l-3.28.82v.82h16.11v-.82l-3.82-.82v-15.29h3.55l5.46,12.29c1.38,3.09,3.57,4.64,6.55,4.64h7.64v-.82l-2.73-.82-4.91-10.92ZM197.31,180.85h-2.18v-18.56h2.18c2.55,0,4.55.8,6.01,2.4,1.46,1.6,2.18,3.9,2.18,6.88s-.73,5.28-2.18,6.88c-1.46,1.6-3.46,2.4-6.01,2.4Z"/>
    <path class="cls-1" d="M240.78,189.82c-1.19,1.84-1.78,3.83-1.78,5.98h-7.56v-33.55l3.34-.77v-.77h-15.88v.77l3.35.77v33.29l-3.35.77v2.98h25.39v-11.42h-1.67c-.71.51-1.32,1.16-1.84,1.94Z"/>
    <path class="cls-1" d="M259.63,160.92h-13.93v.82l3.28.82v34.95l-3.28.82v.82h13.93c6.51,0,11.51-1.67,14.99-5.02,3.48-3.35,5.21-8.05,5.21-14.09s-1.74-10.74-5.21-14.09c-3.48-3.35-8.47-5.02-14.99-5.02ZM267.49,193.66c-1.86,2.75-4.48,4.12-7.86,4.12h-1.64v-35.49h1.64c3.39,0,6.01,1.37,7.86,4.12,1.85,2.75,2.78,7.29,2.78,13.62s-.93,10.88-2.78,13.62Z"/>
    <path class="cls-1" d="M344.41,162.64c-2.68-1.55-5.8-2.32-9.36-2.32s-6.69.77-9.37,2.32c-2.67,1.55-4.74,3.81-6.2,6.8-1.46,2.99-2.19,6.59-2.19,10.81s.73,7.83,2.19,10.81c1.46,2.99,3.52,5.25,6.2,6.8,2.67,1.55,5.8,2.32,9.37,2.32s6.69-.77,9.36-2.32c2.67-1.55,4.74-3.81,6.2-6.8,1.46-2.98,2.18-6.59,2.18-10.81s-.73-7.83-2.18-10.81c-1.46-2.98-3.52-5.25-6.2-6.8ZM342.04,191.28c-.8,2.8-1.81,4.8-3.03,6.01-1.22,1.2-2.54,1.8-3.96,1.8s-2.74-.6-3.96-1.8c-1.22-1.2-2.23-3.2-3.03-6.01-.8-2.8-1.2-6.48-1.2-11.03s.4-8.23,1.2-11.03c.8-2.8,1.81-4.81,3.03-6.01,1.22-1.2,2.54-1.8,3.96-1.8s2.74.6,3.96,1.8c1.22,1.2,2.23,3.2,3.03,6.01.8,2.8,1.2,6.48,1.2,11.03s-.4,8.23-1.2,11.03Z"/>
    <path class="cls-1" d="M418.38,187.59c-.91-2.07-2.64-3.51-5.19-4.31-1.02-.33-2.2-.53-3.55-.6v-.27c2.26-.04,4.39-.44,6.39-1.2,1.89-.69,3.44-1.74,4.64-3.14,1.2-1.4,1.8-3.23,1.8-5.49,0-3.35-1.36-5.96-4.09-7.84-2.73-1.87-7.19-2.81-13.38-2.81h-14.47v.82l3.28.82v32.78l-3.28.82v2.55h12.51v-2.55l-.22-.82v-13.12h3.55l7.15,16.49.36,1.62-41.5.21-3,8,4.98.15v-5.65h4.46v5.65h5.35v4.46h-5.35v5.06h-4.46v-5.06h-6.31s-4.02,10.73-4.02,10.73l62.49.22-8.14-37.53ZM405.57,181.85h-2.18v-18.56h2.18c2.55,0,4.55.8,6.01,2.4,1.46,1.6,2.18,3.9,2.18,6.88s-.73,5.28-2.18,6.88c-1.46,1.6-3.46,2.4-6.01,2.4Z"/>
    <path class="cls-1" d="M382.73,162.77c-2.68-1.55-5.8-2.32-9.36-2.32s-6.69.77-9.37,2.32c-2.67,1.55-4.74,3.81-6.2,6.8-1.46,2.99-2.19,6.59-2.19,10.81s.73,7.83,2.19,10.81c1.46,2.99,3.52,5.25,6.2,6.8,2.67,1.55,5.8,2.32,9.37,2.32s6.69-.77,9.36-2.32c2.67-1.55,4.74-3.81,6.2-6.8,1.46-2.98,2.18-6.59,2.18-10.81s-.73-7.83-2.18-10.81c-1.46-2.98-3.52-5.25-6.2-6.8ZM380.35,191.41c-.8,2.8-1.81,4.8-3.03,6.01-1.22,1.2-2.54,1.8-3.96,1.8s-2.74-.6-3.96-1.8c-1.22-1.2-2.23-3.2-3.03-6.01-.8-2.8-1.2-6.48-1.2-11.03s.4-8.23,1.2-11.03c.8-2.8,1.81-4.81,3.03-6.01,1.22-1.2,2.54-1.8,3.96-1.8s2.74.6,3.96,1.8c1.22,1.2,2.23,3.2,3.03,6.01.8,2.8,1.2,6.48,1.2,11.03s-.4,8.23-1.2,11.03Z"/>
    <path class="cls-1" d="M293.62,161.4h-13.93v.82l3.28.82v34.95l-3.28.82v.82h13.93c6.51,0,11.51-1.67,14.99-5.02,3.48-3.35,5.21-8.05,5.21-14.09s-1.74-10.74-5.21-14.09c-3.48-3.35-8.47-5.02-14.99-5.02ZM301.48,194.14c-1.86,2.75-4.48,4.12-7.86,4.12h-1.64v-35.49h1.64c3.39,0,6.01,1.37,7.86,4.12,1.85,2.75,2.78,7.29,2.78,13.62s-.93,10.88-2.78,13.62Z"/>
  </g>
  <path class="cls-1" d="M76.65,156.75l-4.5-1.35v-1.35h10.35c3.18,0,5.7.66,7.56,1.98,1.86,1.32,3.39,3.21,4.59,5.67l9.9,20.7,5.13-13.14-6.03-12.51-4.5-1.35v-1.35h10.35c3.18,0,5.7.66,7.56,1.98,1.86,1.32,3.39,3.21,4.59,5.67l9.9,20.7,9.45-24.3-6.75-2.7v-1.35h16.65v1.35l-7.2,2.7-16.65,41.85h-2.7l-13.32-27.72-10.98,27.72h-2.7l-20.7-43.2Z"/>
</svg>