<svg width="347" height="89" viewBox="0 0 347 89" fill="none" xmlns="http://www.w3.org/2000/svg">
<path d="M38.1767 1.92682C58.1634 1.92682 74.4214 18.1411 74.4214 38.074C74.4214 58.007 58.1634 74.2212 38.1767 74.2212C18.19 74.2212 1.93202 58.007 1.93202 38.074C1.93202 18.1411 18.19 1.92682 38.1767 1.92682ZM38.1767 0C17.0887 0 0 17.0524 0 38.074C0 59.0957 17.0984 76.1481 38.1767 76.1481C59.255 76.1481 76.3534 59.0957 76.3534 38.074C76.3534 17.0524 59.255 0 38.1767 0Z" fill="#0E2720"/>
<path d="M102.686 28.6132C100.098 27.1199 97.0836 26.3781 93.6446 26.3781C90.2056 26.3781 87.182 27.1199 84.5931 28.6132C82.0139 30.1064 80.0142 32.2838 78.6038 35.1644C77.1935 38.045 76.4883 41.5132 76.4883 45.5788C76.4883 49.6444 77.1935 53.1224 78.6038 55.9933C80.0142 58.8739 82.0042 61.0512 84.5931 62.5445C87.182 64.0378 90.196 64.7796 93.6446 64.7796C97.0933 64.7796 100.107 64.0378 102.686 62.5445C105.266 61.0512 107.265 58.8739 108.676 55.9933C110.086 53.1224 110.782 49.6444 110.782 45.5788C110.782 41.5132 110.076 38.0353 108.676 35.1644C107.265 32.2934 105.275 30.1064 102.686 28.6132ZM100.387 56.2053C99.6146 58.9028 98.6389 60.8297 97.4604 61.9954C96.2818 63.1515 95.0067 63.7295 93.635 63.7295C92.2632 63.7295 90.9881 63.1515 89.8096 61.9954C88.631 60.8393 87.6554 58.9125 86.8826 56.2053C86.1097 53.5077 85.7233 49.9624 85.7233 45.5788C85.7233 41.1953 86.1097 37.65 86.8826 34.9524C87.6554 32.2549 88.631 30.3184 89.8096 29.1623C90.9881 28.0062 92.2632 27.4282 93.635 27.4282C95.0067 27.4282 96.2818 28.0062 97.4604 29.1623C98.6389 30.3184 99.6146 32.2452 100.387 34.9524C101.16 37.65 101.547 41.1953 101.547 45.5788C101.547 49.9624 101.16 53.5077 100.387 56.2053Z" fill="#0E2720"/>
<path d="M138.506 51.8894C137.627 49.8951 135.956 48.5078 133.492 47.7371C132.507 47.4191 131.367 47.2265 130.063 47.159V46.8989C132.246 46.8604 134.304 46.475 136.236 45.7428C138.062 45.078 139.559 44.0665 140.718 42.7177C141.877 41.3689 142.457 39.6059 142.457 37.4285C142.457 34.2011 141.143 31.6866 138.506 29.8754C135.869 28.0738 131.56 27.1682 125.581 27.1682H111.603V27.9582L114.771 28.7482V62.4195L111.603 63.2095V63.9995H127.165V63.2095L123.475 62.4195V47.6889H126.904L132.179 59.5292C133.512 62.5062 135.627 63.9995 138.506 63.9995H145.886V63.2095L143.249 62.4195L138.506 51.899V51.8894ZM125.581 46.369H123.475V28.4881H125.581C128.044 28.4881 129.976 29.2588 131.386 30.8003C132.797 32.3417 133.492 34.5576 133.492 37.4285C133.492 40.2995 132.787 42.5154 131.386 44.0568C129.976 45.5983 128.044 46.369 125.581 46.369Z" fill="#0E2720"/>
<path d="M167.573 55.0012C166.423 56.7739 165.853 58.6911 165.853 60.7624H158.55V28.44L161.777 27.6981V26.9563H146.437V27.6981L149.673 28.44V60.5119L146.437 61.2538V64.1247H170.964V53.1226H169.35C168.664 53.6139 168.075 54.2401 167.573 54.9916V55.0012Z" fill="#0E2720"/>
<path d="M185.783 27.1682H172.326V27.9582L175.495 28.7482V62.4195L172.326 63.2095V63.9995H185.783C192.071 63.9995 196.901 62.3906 200.263 59.1631C203.625 55.9357 205.296 51.4077 205.296 45.5886C205.296 39.7696 203.615 35.2416 200.263 32.0142C196.901 28.7867 192.081 27.1778 185.783 27.1778V27.1682ZM193.376 58.7007C191.579 61.3501 189.048 62.67 185.783 62.67H184.198V28.4785H185.783C189.057 28.4785 191.588 29.7983 193.376 32.4477C195.163 35.0971 196.061 39.471 196.061 45.5694C196.061 51.6678 195.163 56.0513 193.376 58.6911V58.7007Z" fill="#0E2720"/>
<path d="M267.681 28.8252C265.092 27.3319 262.078 26.5901 258.639 26.5901C255.2 26.5901 252.176 27.3319 249.587 28.8252C247.008 30.3185 245.008 32.4958 243.598 35.3764C242.188 38.257 241.482 41.7253 241.482 45.7909C241.482 49.8565 242.188 53.3344 243.598 56.2054C245.008 59.086 246.998 61.2633 249.587 62.7566C252.167 64.2499 255.19 64.9917 258.639 64.9917C262.087 64.9917 265.101 64.2499 267.681 62.7566C270.26 61.2633 272.26 59.086 273.67 56.2054C275.08 53.3344 275.776 49.8565 275.776 45.7909C275.776 41.7253 275.071 38.2474 273.67 35.3764C272.26 32.5054 270.27 30.3185 267.681 28.8252ZM265.391 56.4173C264.618 59.1149 263.643 61.0417 262.464 62.2074C261.286 63.3635 260.011 63.9416 258.639 63.9416C257.267 63.9416 255.992 63.3635 254.813 62.2074C253.635 61.0513 252.659 59.1245 251.886 56.4173C251.114 53.7198 250.727 50.1744 250.727 45.7909C250.727 41.4074 251.114 37.862 251.886 35.1645C252.659 32.4669 253.635 30.5304 254.813 29.3743C255.992 28.2183 257.267 27.6402 258.639 27.6402C260.011 27.6402 261.286 28.2183 262.464 29.3743C263.643 30.5304 264.618 32.4573 265.391 35.1645C266.164 37.862 266.55 41.4074 266.55 45.7909C266.55 50.1744 266.164 53.7198 265.391 56.4173Z" fill="#0E2720"/>
<path d="M339.136 52.8527C338.257 50.8585 336.586 49.4712 334.123 48.7004C333.137 48.3825 331.998 48.1898 330.693 48.1224V47.8623C332.877 47.8237 334.934 47.4384 336.866 46.7062C338.692 46.0414 340.189 45.0298 341.349 43.6811C342.508 42.3323 343.087 40.5692 343.087 38.3919C343.087 35.1645 341.774 32.65 339.136 30.8388C336.499 29.0372 332.191 28.1316 326.211 28.1316H312.233V28.9216L315.402 29.7116V61.2922L312.233 62.0822V64.5389H324.318V62.0822L324.105 61.2922V48.6523H327.535L334.442 64.5389L334.789 66.0997L294.7 66.302L291.802 74.0093L296.613 74.1538V68.7105H300.921V74.1538H306.089V78.4506H300.921V83.3255H296.613V78.4506H290.517L286.634 88.788L347 89L339.136 52.8431V52.8527ZM326.771 47.3324H324.666V29.4515H326.771C329.235 29.4515 331.167 30.2222 332.577 31.7637C333.988 33.3051 334.683 35.521 334.683 38.3919C334.683 41.2629 333.978 43.4787 332.577 45.0202C331.167 46.5617 329.235 47.3324 326.771 47.3324Z" fill="#0E2720"/>
<path d="M304.698 28.9506C302.109 27.4573 299.095 26.7155 295.656 26.7155C292.217 26.7155 289.194 27.4573 286.605 28.9506C284.026 30.4439 282.026 32.6212 280.616 35.5018C279.205 38.3824 278.5 41.8507 278.5 45.9163C278.5 49.9819 279.205 53.4598 280.616 56.3307C282.026 59.2113 284.016 61.3887 286.605 62.882C289.184 64.3752 292.208 65.1171 295.656 65.1171C299.105 65.1171 302.119 64.3752 304.698 62.882C307.277 61.3887 309.277 59.2113 310.687 56.3307C312.098 53.4598 312.793 49.9819 312.793 45.9163C312.793 41.8507 312.088 38.3727 310.687 35.5018C309.277 32.6308 307.287 30.4439 304.698 28.9506ZM302.399 56.5427C301.626 59.2403 300.651 61.1671 299.472 62.3328C298.294 63.4889 297.018 64.0669 295.647 64.0669C294.275 64.0669 293 63.4889 291.821 62.3328C290.643 61.1767 289.667 59.2499 288.894 56.5427C288.121 53.8451 287.735 50.2998 287.735 45.9163C287.735 41.5327 288.121 37.9874 288.894 35.2898C289.667 32.5923 290.643 30.6558 291.821 29.4997C293 28.3436 294.275 27.7656 295.647 27.7656C297.018 27.7656 298.294 28.3436 299.472 29.4997C300.651 30.6558 301.626 32.5826 302.399 35.2898C303.172 37.9874 303.558 41.5327 303.558 45.9163C303.558 50.2998 303.172 53.8451 302.399 56.5427Z" fill="#0E2720"/>
<path d="M218.617 27.6306H205.16V28.4206L208.329 29.2106V62.8819L205.16 63.6719V64.4619H218.617C224.905 64.4619 229.735 62.853 233.097 59.6255C236.459 56.3981 238.13 51.8701 238.13 46.0511C238.13 40.2321 236.449 35.704 233.097 32.4766C229.735 29.2491 224.915 27.6403 218.617 27.6403V27.6306ZM226.21 59.1631C224.413 61.8125 221.882 63.1324 218.617 63.1324H217.032V28.9409H218.617C221.891 28.9409 224.422 30.2607 226.21 32.9101C227.997 35.5595 228.895 39.9334 228.895 46.0318C228.895 52.1302 227.997 56.5137 226.21 59.1535V59.1631Z" fill="#0E2720"/>
<path d="M9.02282 23.1413L4.67578 21.8406V20.54H14.674C17.7459 20.54 20.1802 21.1759 21.977 22.4476C23.7738 23.7193 25.2518 25.5401 26.411 27.9101L35.9745 47.8528L40.9301 35.1935L35.1051 23.1413L30.758 21.8406V20.54H40.7562C43.8282 20.54 46.2625 21.1759 48.0593 22.4476C49.8561 23.7193 51.334 25.5401 52.4933 27.9101L62.0568 47.8528L71.1855 24.4419L64.665 21.8406V20.54H80.749V21.8406L73.7938 24.4419L57.7097 64.7607H55.1015L42.2342 38.0549L31.6275 64.7607H29.0192L9.02282 23.1413Z" fill="#0E2720"/>
</svg>
